<svg xmlns="http://www.w3.org/2000/svg" width="23.333" height="20.284" viewBox="0 0 23.333 20.284">
  <path id="np_buildings_1216826_000000" d="M29.588,15.431l-7.382-2.964a.826.826,0,0,0-.273-.057h-.065a.805.805,0,0,0-.273.057l-7.382,2.964a.808.808,0,0,0-.507.75v4l-1.575-.634a.645.645,0,0,0-.223-.048h-.062a.664.664,0,0,0-.223.048L7.194,21.326a.675.675,0,0,0-.424.628V32.016a.678.678,0,0,0,1.355,0V22.41L11.2,21.177V32.017a.678.678,0,0,0,.678.678H16.31a.678.678,0,0,0,.678-.678V21.954a.679.679,0,0,0-.424-.628l-1.233-.493v-4.1L21.1,14.415V31.883a.808.808,0,0,0,.809.809h7.39a.808.808,0,0,0,.809-.809v-15.7a.828.828,0,0,0-.516-.751Z" transform="translate(-6.771 -12.41)" fill="#222"/>
</svg>
