<svg xmlns="http://www.w3.org/2000/svg" width="20" height="17.386" viewBox="0 0 20 17.386">
  <path id="np_buildings_1216826_000000" d="M26.328,15,20,12.459a.708.708,0,0,0-.234-.049h-.056a.69.69,0,0,0-.234.049L13.15,15a.693.693,0,0,0-.434.643v3.429l-1.35-.544a.553.553,0,0,0-.191-.042h-.053a.569.569,0,0,0-.191.042l-3.8,1.525a.579.579,0,0,0-.363.538v8.625a.581.581,0,0,0,1.162,0V20.982l2.636-1.057v9.291a.581.581,0,0,0,.581.581h3.8a.581.581,0,0,0,.581-.581V20.591a.582.582,0,0,0-.363-.538l-1.057-.423V16.112l4.942-1.983V29.1a.693.693,0,0,0,.694.694h6.334a.693.693,0,0,0,.694-.694V15.644A.71.71,0,0,0,26.328,15Z" transform="translate(-6.771 -12.41)" fill="#006169"/>
</svg>
