<svg xmlns="http://www.w3.org/2000/svg" width="19.803" height="14.791" viewBox="0 0 19.803 14.791">
  <g id="Group_3603" data-name="Group 3603" transform="translate(-3 -6)">
    <path id="Subtraction_5" data-name="Subtraction 5" d="M-5404.471,276H-5412a1,1,0,0,1-1-1,1,1,0,0,1,1-1h6.342a5.968,5.968,0,0,0,1.186,2Zm-1.446-5H-5412a1,1,0,0,1-1-1,1,1,0,0,1,1-1h6.8a5.941,5.941,0,0,0-.72,2Zm9.917-4.99h-3.661c-.113-.006-.228-.01-.339-.01s-.226,0-.339.01H-5412a1,1,0,0,1-1-1V265a1,1,0,0,1,1-1h16a1,1,0,0,1,1,1v.011A1,1,0,0,1-5396,266.01Z" transform="translate(5416 -258)" fill="#7c7c7c"/>
    <path id="Subtraction_6" data-name="Subtraction 6" d="M14.786,13.791a.994.994,0,0,1-.707-.291l-2.2-2.2A4.386,4.386,0,0,1,9.5,12a4.624,4.624,0,0,1-.84-.078,4.5,4.5,0,0,1,.846-8.929,4.776,4.776,0,0,1,.744.059,4.534,4.534,0,0,1,3.7,3.71,4.436,4.436,0,0,1-.64,3.12l2.2,2.19a1.007,1.007,0,0,1,0,1.42A1.017,1.017,0,0,1,14.786,13.791ZM9.5,5A2.5,2.5,0,1,0,12,7.5,2.5,2.5,0,0,0,9.5,5Z" transform="translate(7 7)" fill="#7c7c7c"/>
  </g>
</svg>
