<svg xmlns="http://www.w3.org/2000/svg" width="27.266" height="21.343" viewBox="0 0 27.266 21.343">
  <g id="Group_3602" data-name="Group 3602" transform="translate(-191.232 -767.048)">
    <path id="Subtraction_8" data-name="Subtraction 8" d="M-16935.336,9838.9h-10.3a1.438,1.438,0,0,1-1.369-1.493,1.437,1.437,0,0,1,1.369-1.492h8.672a9.122,9.122,0,0,0,1.623,2.983Zm-1.979-7.46h-8.318a1.438,1.438,0,0,1-1.369-1.493,1.437,1.437,0,0,1,1.369-1.492h9.3a9.341,9.341,0,0,0-.982,2.984Zm13.564-7.447h-5.029c-.133-.009-.281-.013-.439-.013s-.3,0-.441.013h-15.973a1.435,1.435,0,0,1-1.369-1.488v-.018a1.437,1.437,0,0,1,1.369-1.492h21.883a1.435,1.435,0,0,1,1.365,1.492v.018A1.433,1.433,0,0,1-16923.75,9824Z" transform="translate(17138.234 -9053.951)" fill="#222"/>
    <path id="Subtraction_7" data-name="Subtraction 7" d="M-16925.664,9840.9h0a1.42,1.42,0,0,1-1.016-.419l-3.178-3.172a6.342,6.342,0,0,1-3.434,1,6.636,6.636,0,0,1-1.211-.112,6.512,6.512,0,0,1-3.5-1.925,6.471,6.471,0,0,1-1.723-3.6,6.47,6.47,0,0,1,1.568-5.163,6.5,6.5,0,0,1,4.875-2.2,6.949,6.949,0,0,1,1.076.086,6.555,6.555,0,0,1,5.338,5.351,6.4,6.4,0,0,1-.928,4.5l3.178,3.16a1.448,1.448,0,0,1,0,2.046A1.465,1.465,0,0,1-16925.664,9840.9Zm-7.629-12.685a3.613,3.613,0,0,0-3.607,3.611,3.611,3.611,0,0,0,3.607,3.606,3.61,3.61,0,0,0,3.605-3.606A3.612,3.612,0,0,0-16933.293,9828.212Z" transform="translate(17142.695 -9052.506)" fill="#222"/>
  </g>
</svg>
