<svg xmlns="http://www.w3.org/2000/svg" width="12.229" height="12.233" viewBox="0 0 12.229 12.233">
  <path id="np_info_170065_000000" d="M15.282,21.389A6.116,6.116,0,1,1,21.4,15.322a6.115,6.115,0,0,1-6.115,6.067Zm.129-6.987a3.213,3.213,0,0,0-1.686.573.525.525,0,0,0-.118.1c-.117.143-.077.263.1.309.068.018.137.03.2.051.281.089.357.228.285.519-.173.709-.35,1.417-.521,2.126a.739.739,0,0,0,.646,1,2.99,2.99,0,0,0,2.016-.622.307.307,0,0,0,.106-.237c0-.047-.128-.085-.2-.123a.516.516,0,0,0-.1-.028c-.335-.09-.422-.229-.34-.563.168-.692.346-1.382.5-2.077a1.144,1.144,0,0,0,0-.515c-.094-.362-.409-.528-.893-.514Zm1.557-2.12A1.138,1.138,0,1,0,15.838,13.4,1.127,1.127,0,0,0,16.968,12.282Z" transform="translate(-9.169 -9.156)" fill="#cecece"/>
</svg>
