<svg xmlns="http://www.w3.org/2000/svg" width="24" height="24" viewBox="0 0 24 24">
  <g id="menu_book-24px" transform="translate(-0.237)">
    <g id="Group_1" data-name="Group 1">
      <rect id="Rectangle_1" data-name="Rectangle 1" width="24" height="24" transform="translate(0.237)" fill="none"/>
    </g>
    <g id="Group_4" data-name="Group 4" transform="translate(1.166 4.5)">
      <g id="Group_3" data-name="Group 3">
        <path id="Path_1" data-name="Path 1" d="M21,5a11.8,11.8,0,0,0-3.5-.5A9.3,9.3,0,0,0,12,6,9.3,9.3,0,0,0,6.5,4.5,9.3,9.3,0,0,0,1,6V20.65a.538.538,0,0,0,.5.5c.1,0,.15-.05.25-.05A12.205,12.205,0,0,1,6.5,20,9.3,9.3,0,0,1,12,21.5,12.045,12.045,0,0,1,17.5,20a10.178,10.178,0,0,1,4.75,1.05.451.451,0,0,0,.25.05.538.538,0,0,0,.5-.5V6A6.821,6.821,0,0,0,21,5Zm0,13.5a11.62,11.62,0,0,0-3.5-.5A12.045,12.045,0,0,0,12,19.5V8a12.045,12.045,0,0,1,5.5-1.5A11.62,11.62,0,0,1,21,7Z" transform="translate(-1 -4.5)" fill="#006169"/>
        <g id="Group_2" data-name="Group 2" transform="translate(12 4.5)">
          <path id="Path_2" data-name="Path 2" d="M17.5,10.5a11.694,11.694,0,0,1,2.5.26V9.24A13.5,13.5,0,0,0,17.5,9a11.507,11.507,0,0,0-4.5.83v1.66A9.283,9.283,0,0,1,17.5,10.5Z" transform="translate(-13 -9)" fill="#006169"/>
          <path id="Path_3" data-name="Path 3" d="M13,12.49v1.66a9.283,9.283,0,0,1,4.5-.99,11.694,11.694,0,0,1,2.5.26V11.9a13.5,13.5,0,0,0-2.5-.24A11.691,11.691,0,0,0,13,12.49Z" transform="translate(-13 -9)" fill="#006169"/>
          <path id="Path_4" data-name="Path 4" d="M17.5,14.33a11.507,11.507,0,0,0-4.5.83v1.66a9.283,9.283,0,0,1,4.5-.99,11.694,11.694,0,0,1,2.5.26V14.57A12.7,12.7,0,0,0,17.5,14.33Z" transform="translate(-13 -9)" fill="#006169"/>
        </g>
      </g>
    </g>
  </g>
</svg>
