<svg xmlns="http://www.w3.org/2000/svg" width="16" height="19.677" viewBox="0 0 16 19.677">
  <path id="Subtraction_3" data-name="Subtraction 3" d="M-5213,369.677a1.013,1.013,0,0,1-.666-.248,31.337,31.337,0,0,1-5.495-6.038A9.707,9.707,0,0,1-5221,358.2a8.194,8.194,0,0,1,2.425-5.968A7.965,7.965,0,0,1-5213,350a7.962,7.962,0,0,1,5.574,2.232A8.192,8.192,0,0,1-5205,358.2a9.7,9.7,0,0,1-1.836,5.191,31.3,31.3,0,0,1-5.5,6.038A1.012,1.012,0,0,1-5213,369.677ZM-5216,357a1,1,0,0,0-1,1,1,1,0,0,0,1,1h2v2a1,1,0,0,0,1,1,1,1,0,0,0,1-1v-2h2a1,1,0,0,0,1-1,1,1,0,0,0-1-1h-2v-2a1,1,0,0,0-1-1,1,1,0,0,0-1,1v2Z" transform="translate(5221 -350)" fill="#006169"/>
</svg>
