<svg xmlns="http://www.w3.org/2000/svg" width="19.334" height="23.776" viewBox="0 0 19.334 23.776">
  <path id="Subtraction_3" data-name="Subtraction 3" d="M9.661,23.776a1.223,1.223,0,0,1-.8-.3,37.869,37.869,0,0,1-6.64-7.3A11.731,11.731,0,0,1,0,9.908,9.9,9.9,0,0,1,2.931,2.7,9.625,9.625,0,0,1,9.668,0,9.621,9.621,0,0,1,16.4,2.7a9.9,9.9,0,0,1,2.93,7.211,11.717,11.717,0,0,1-2.219,6.273,37.805,37.805,0,0,1-6.651,7.3A1.222,1.222,0,0,1,9.661,23.776ZM6.042,8.458a1.208,1.208,0,1,0,0,2.416H8.458v2.418a1.209,1.209,0,0,0,2.418,0V10.874h2.416a1.208,1.208,0,1,0,0-2.416H10.876V6.042a1.209,1.209,0,1,0-2.418,0V8.458Z" fill="#222"/>
</svg>
