<svg id="e48k3fp9rpyr1" xmlns="http://www.w3.org/2000/svg" xmlns:xlink="http://www.w3.org/1999/xlink" viewBox="0 0 251.977000 159.512000" shape-rendering="geometricPrecision" text-rendering="geometricPrecision"><style><![CDATA[#e48k3fp9rpyr3_to {animation: e48k3fp9rpyr3_to__to 1200ms linear infinite normal forwards}@keyframes e48k3fp9rpyr3_to__to { 0% {transform: translate(12002.400000px,3625.500000px);animation-timing-function: cubic-bezier(0.420000,0,0.580000,1)} 50% {transform: translate(12002.400000px,3629.500000px);animation-timing-function: cubic-bezier(0.420000,0,0.580000,1)} 100% {transform: translate(12002.400000px,3625.500000px)} }#e48k3fp9rpyr4_to {animation: e48k3fp9rpyr4_to__to 1200ms linear infinite normal forwards}@keyframes e48k3fp9rpyr4_to__to { 0% {transform: translate(10500.500000px,3674.900000px);animation-timing-function: cubic-bezier(0.420000,0,0.580000,1)} 50% {transform: translate(10500.500000px,3677.900000px);animation-timing-function: cubic-bezier(0.420000,0,0.580000,1)} 100% {transform: translate(10500.500000px,3674.900000px)} }#e48k3fp9rpyr5_to {animation: e48k3fp9rpyr5_to__to 1200ms linear infinite normal forwards}@keyframes e48k3fp9rpyr5_to__to { 0% {transform: translate(10498.500000px,3650.490000px);animation-timing-function: cubic-bezier(0.420000,0,0.580000,1)} 50% {transform: translate(10498.500000px,3660.490000px);animation-timing-function: cubic-bezier(0.420000,0,0.580000,1)} 100% {transform: translate(10498.500000px,3650.490000px)} }#e48k3fp9rpyr8 {
           animation-name: e48k3fp9rpyr8__rd, e48k3fp9rpyr8_c_o;
           animation-duration: 1200ms;
           animation-fill-mode: forwards;
           animation-timing-function: linear;
           animation-direction: normal;
           animation-iteration-count: infinite;  
        }@keyframes e48k3fp9rpyr8__rd { 0% {r: 11.356000px;animation-timing-function: cubic-bezier(0.420000,0,0.580000,1)} 50% {r: 15.578184px;animation-timing-function: cubic-bezier(0.420000,0,0.580000,1)} 100% {r: 11.356000px} }@keyframes e48k3fp9rpyr8_c_o { 0% {opacity: 0.700000} 50% {opacity: 0.300000} 100% {opacity: 0.700000} }#e48k3fp9rpyr17_to {animation: e48k3fp9rpyr17_to__to 1200ms linear infinite normal forwards}@keyframes e48k3fp9rpyr17_to__to { 0% {transform: translate(8850.300000px,3371.480000px);animation-timing-function: cubic-bezier(0.420000,0,0.580000,1)} 50% {transform: translate(8860.300000px,3371.480000px);animation-timing-function: cubic-bezier(0.420000,0,0.580000,1)} 100% {transform: translate(8850.300000px,3371.480000px)} }#e48k3fp9rpyr18_to {animation: e48k3fp9rpyr18_to__to 1200ms linear infinite normal forwards}@keyframes e48k3fp9rpyr18_to__to { 0% {transform: translate(8965.300000px,3371.480000px);animation-timing-function: cubic-bezier(0.420000,0,0.580000,1)} 50% {transform: translate(8955.300000px,3371.480000px);animation-timing-function: cubic-bezier(0.420000,0,0.580000,1)} 100% {transform: translate(8965.300000px,3371.480000px)} }]]></style><defs><linearGradient id="e48k3fp9rpyr3-fill" x1="0.500000" y1="0" x2="0.500000" y2="1" spreadMethod="pad" gradientUnits="objectBoundingBox"><stop id="e48k3fp9rpyr3-fill-0" offset="0%" stop-color="rgba(40,177,109,0.102)"/><stop id="e48k3fp9rpyr3-fill-1" offset="100%" stop-color="rgba(40,177,109,0)"/></linearGradient></defs><g id="e48k3fp9rpyr2" transform="matrix(1 0 0 1 -10477 -3639.82999999999993)"><g id="e48k3fp9rpyr3_to" transform="translate(12002.400000,3625.500000)"><path id="e48k3fp9rpyr3" d="M-1516.763000,122.050000L-1516.763000,69.483000L-1517,69.483000C-1515.600000,64.072000,-1510.133000,60.038000,-1503.487000,59.522000C-1496.841000,59.006000,-1490.561000,62.122000,-1487.978000,67.229000C-1484.254000,58.629000,-1475.069000,52.461000,-1464.149000,51.229000C-1453.229000,49.997000,-1442.383000,53.894000,-1436.016000,61.351000C-1431.759318,58.120684,-1426.357591,56.791602,-1421.088000,57.678000C-1416.250565,58.310030,-1411.918191,60.990900,-1409.194000,65.038000C-1406.349973,61.759014,-1402.299670,59.771018,-1397.966000,59.527000C-1391.321000,59.011000,-1385.040000,62.127000,-1382.457000,67.234000C-1378.733000,58.634000,-1369.548000,52.466000,-1358.629000,51.234000C-1347.710000,50.002000,-1336.863000,53.899000,-1330.495000,61.356000C-1326.238370,58.125574,-1320.836595,56.796480,-1315.567000,57.683000C-1310.167000,58.537000,-1305.600000,61.506000,-1303.315000,65.651000C-1299.941077,63.392940,-1295.812414,62.557433,-1291.826000,63.326000C-1288.000592,63.920680,-1284.634680,66.178291,-1282.633000,69.492000L-1282.870000,69.492000L-1282.870000,122.050000Z" transform="translate(0,0)" fill="url(#e48k3fp9rpyr3-fill)" stroke="none" stroke-width="1"/></g><g id="e48k3fp9rpyr4_to" transform="translate(10500.500000,3674.900000)"><path id="e48k3fp9rpyr4" d="M3.410114,106.350000L3.410114,100.791393L0,100.791393L0,24.430203L15.061013,24.430203L15.061013,29.450095L18.471127,29.450095L18.471127,35.903963L21.337572,35.903963L21.337572,106.350000ZM24.897731,106.252583L24.897731,38.336462L41.870357,38.336462L41.870357,52.588550L45.085607,52.588550L45.085607,99.835734L41.870357,99.835734L41.870357,106.243816ZM148.941123,97.231781L137.378887,97.231781L137.378887,38.742690L148.936251,38.742690L148.936251,22.586102L165.910825,22.586102L165.910825,97.231781ZM181.765908,96.899589L181.765908,96.734955L178.705574,96.734955L178.705574,96.734955L175.616985,96.734955L175.616985,96.734955L172.532293,96.734955L172.532293,96.734955L169.914299,96.734955L169.914299,47.758622L169.195252,47.758622L169.195252,44.543865L181.763959,44.543865L181.763959,0L195.404416,0L195.404416,5.845012L198,5.845012L198,96.900563ZM177.832585,37.387622L177.832585,37.387622ZM173.935311,34.861602L173.935311,34.861602ZM31.344796,29.961533L31.344796,29.961533Z" transform="translate(0,0)" fill="rgb(246,246,246)" stroke="rgb(228,228,228)" stroke-width="1" stroke-linecap="round"/></g><g id="e48k3fp9rpyr5_to" transform="translate(10498.500000,3650.490000)"><path id="e48k3fp9rpyr5" d="M0,26.500000C3.185216,26.502758,5.766346,29.084783,5.768000,32.270000ZM7.455000,28.191000C8.537164,27.108303,10.005212,26.500003,11.536000,26.500000L5.768000,32.270000C5.766567,30.739418,6.373431,29.271001,7.455000,28.188000ZM167.974000,23.191000C171.159997,23.193759,173.741449,25.777002,173.742000,28.963000ZM175.430000,24.882000C176.511732,23.799268,177.979493,23.190939,179.510000,23.191000L173.742000,28.963000C173.739704,27.430680,174.347436,25.960466,175.431000,24.877000ZM78.546000,0C81.732387,0.002760,84.314001,2.586612,84.314000,5.773000ZM86,1.691000C87.082284,0.607871,88.550822,-0.000482,90.082000,0L84.314000,5.773000C84.312192,4.242540,84.918704,2.774103,86,1.691000Z" transform="translate(0,0)" fill="none" stroke="rgb(40,177,109)" stroke-width="2" stroke-linecap="round" stroke-linejoin="round"/></g><g id="e48k3fp9rpyr6" transform="matrix(1 0 0 1 10500.50000000000000 3640.36000000000013)"><circle id="e48k3fp9rpyr7" r="11.829000" transform="matrix(1 0 0 1 33.15899999999999 21.95899970500000)" fill="rgb(255,255,255)" stroke="none" stroke-width="1"/><circle id="e48k3fp9rpyr8" r="11.356000" transform="matrix(1 0 0 1 33.15899999999999 21.95899970500000)" opacity="0.7" fill="none" stroke="rgb(203,119,70)" stroke-width="1"/></g><g id="e48k3fp9rpyr9" transform="matrix(1 0 0 1 10504.79999999999927 3644.61000000000013)"><circle id="e48k3fp9rpyr10" r="7.571000" transform="matrix(1 0 0 1 28.90099999999999 17.70099970499999)" fill="rgb(242,195,67)" stroke="none" stroke-width="1"/><circle id="e48k3fp9rpyr11" r="7.098000" transform="matrix(1 0 0 1 28.90099999999999 17.70099970499999)" fill="none" stroke="rgb(203,119,70)" stroke-width="2"/></g><g id="e48k3fp9rpyr12"><path id="e48k3fp9rpyr13" d="M18.131000,-30.921000L5.181000,-30.921000L5.181000,-32.769000L0,-33.272000L0.468000,-100.140000L16.953000,-110.500000L16.953000,-86.719000L18.131000,-86.719000L18.131000,-30.919000ZM39.083000,-41.278000L26.132000,-41.278000L26.132000,-97.078000L27.311000,-97.078000L27.311000,-120.860000L43.791000,-110.500000L44.264000,-43.632000L39.083000,-43.132000L39.083000,-41.282000ZM122.383000,-44.136000L96,-44.136000L96.300000,-87.119000L95.221000,-87.119000C94.564110,-87.120975,93.934391,-87.381412,93.468000,-87.844000C93.001607,-88.307932,92.740185,-88.939161,92.742000,-89.597000L96.320000,-89.597000L96.494000,-114.070000L99.234000,-114.070000L99.234000,-135.718000L101.226000,-133.972000L101.226000,-114.072000C103.572155,-111.916192,105.799438,-109.634496,107.898000,-107.237000C112.621471,-101.957902,116.718680,-96.150335,120.108000,-89.930000L127.180000,-89.930000C127.177493,-89.272826,126.916321,-88.643067,126.453000,-88.177000C125.986609,-87.714412,125.356890,-87.453975,124.700000,-87.452000L121.355000,-87.452000C122.553252,-84.957098,123.562748,-82.375863,124.375000,-79.730000C125.692165,-75.333540,126.398778,-70.776897,126.475000,-66.188000C126.541519,-62.382852,126.222221,-58.580758,125.522000,-54.840000C124.874074,-51.167885,123.819933,-47.579179,122.379000,-44.140000ZM100.800000,-105.368000L100.800000,-105.368000L102.200000,-88.111000L116.086000,-88.111000C112.137489,-94.785286,106.948956,-100.642837,100.800000,-105.368000ZM81.868000,-44.226000L54.887000,-44.226000L54.887000,-53.515000L62.032000,-53.515000L62.032000,-53.515000L58.285000,-53.515000L58.285000,-70.312000L60.249000,-70.312000L60.249000,-84.067000L62.033000,-84.067000L62.033000,-105.867000L63.641000,-105.867000L63.641000,-131.774000L65.250000,-131.774000L65.250000,-158.214000L72.400000,-158.214000L72.400000,-146.423000L74.723000,-146.423000L74.723000,-122.123000L69.902000,-121.764000L69.902000,-121.764000L76.157000,-121.764000L76.157000,-98.715000L70.681000,-98.404000L70.681000,-98.360000L79.010000,-98.360000L79.010000,-62.626000L80.259000,-62.626000L80.259000,-54.856000L79.010000,-54.778000L79.010000,-54.407000L81.867000,-54.407000L81.867000,-44.225000ZM71.505000,-158.392000L67.753000,-158.392000L67.753000,-176.080000L71.505000,-176.080000L71.505000,-158.393000Z" transform="matrix(1 0 0 1 10533.70000000000073 3818.65999999999985)" fill="rgb(178,207,209)" stroke="rgb(0,97,105)" stroke-width="1" stroke-linecap="round"/><path id="e48k3fp9rpyr14" d="M366.250000,154.280000L375.514000,154.280000L375.514000,209.323000" transform="matrix(1 0 0 1 10195.70000000000073 3561.15999999999985)" fill="none" stroke="rgb(0,97,105)" stroke-width="1" stroke-linecap="round" stroke-linejoin="round"/><path id="e48k3fp9rpyr15" d="M375.514000,154.280000L366.250000,154.280000L366.250000,202.345000" transform="matrix(1 0 0 1 10174.70000000000073 3568.13000000000011)" fill="none" stroke="rgb(0,97,105)" stroke-width="1" stroke-linecap="round" stroke-linejoin="round"/></g><rect id="e48k3fp9rpyr16" width="244.628000" height="28.863000" rx="0" ry="0" transform="matrix(1 0 0 1 10480.70000000000073 3770.48000000000002)" fill="rgb(255,255,255)" stroke="none" stroke-width="1"/><g id="e48k3fp9rpyr17_to" transform="translate(8850.300000,3371.480000)"><path id="e48k3fp9rpyr17" d="M1627.700000,399L1762.676000,399" transform="translate(0,0)" fill="rgb(255,255,255)" stroke="rgb(0,97,105)" stroke-width="1" stroke-linecap="round" stroke-linejoin="round"/></g><g id="e48k3fp9rpyr18_to" transform="translate(8965.300000,3371.480000)"><path id="e48k3fp9rpyr18" d="M1627.700000,399L1762.676000,399" transform="translate(0,0)" stroke="rgb(0,97,105)" stroke-width="1" stroke-linecap="round" stroke-linejoin="round"/></g></g></svg>