<svg xmlns="http://www.w3.org/2000/svg" id="arabicBlack" data-name="regular" viewBox="0 0 60 23" >      
		<rect x="58" fill="#222222" width="2" height="17.7"></rect>
		<path fill="#222222" d="M52.3,15.8h-8.6c1.1-0.7,2-1.8,2.6-3c0.6-1.6,0.5-4.2-2.2-4.8c-6-1.3-7,3.5-7,3.5l3,3.7    c-1.8,0.5-3.8,0.6-5.6,0.3c-1.2-0.3-1.2-1.9-1.2-1.9V9.4h-2v7c0,0,0.1,2.9-0.8,3.8c-0.7,0.6-1.7,0.8-2.6,0.7V23    c0,0,3.3,0.4,4.5-1.8c0.6-1.5,0.9-3.1,0.9-4.7c0,0,0,1.6,3.8,1.2c1.6-0.1,3.2-0.5,4.7-0.9c0.3,0.3,0.7,0.6,1.1,0.8    c0.4,0.1,0.7,0.2,1.1,0.2h10.6V0h-2V15.8z M41.9,14.3l-3-3.1c0.4-0.6,1-1.1,1.7-1.4c1.3-0.5,2.7-0.2,3.7,0.8    C45.6,12.1,41.9,14.3,41.9,14.3z"></path>
		<circle fill="#222222" cx="4.1" cy="2" r="1.3"></circle>
		<path fill="#222222" d="M7.2,3.3c0.7,0,1.3-0.6,1.3-1.3S7.9,0.7,7.2,0.7C6.5,0.7,5.9,1.3,5.9,2S6.5,3.3,7.2,3.3z"></path>
		<circle fill="#222222" cx="15" cy="21.5" r="1.3"></circle>
		<circle fill="#222222" cx="18.2" cy="21.5" r="1.3"></circle>
		<path fill="#222222" d="M24.3,20.2c-0.7,0-1.3,0.6-1.3,1.3s0.6,1.3,1.3,1.3c0.7,0,1.3-0.6,1.3-1.3S25.1,20.2,24.3,20.2z"></path>
		<path fill="#222222" d="M23.7,15.7h-4.4c-1.6,0-1.6-2.7-1.6-2.7V8.1h-2.2v6c0,1.1-0.2,1.6-1.3,1.6h-3.7c-0.8,0-1.2-0.4-1.2-1.4V6.7    H4.7c-2-0.1-3.8,1.1-4.4,3c-0.8,1.8-0.2,4,1.4,5.2c0.9,0.5,1.9,0.8,3,0.8c0.9,0,1.7-0.1,2.5-0.4c0,1.4,1.2,2.5,2.6,2.5H15    c1,0.1,2-0.6,2.4-1.6c0.3,0.9,1.1,1.5,2,1.6h6.3V8.1h-2V15.7z M7.2,13.1c-0.7,0.3-1.4,0.5-2.2,0.5c-1.4,0-2.6-0.5-2.8-1.9    C2,10.9,2.2,10,2.8,9.4C3.3,8.9,4,8.7,4.7,8.7c1,0,2,0,2.5,0V13.1z"></path>
	</svg>