<svg xmlns="http://www.w3.org/2000/svg" width="110.258" height="65.825" viewBox="0 0 110.258 65.825">
  <g id="Group_3603" data-name="Group 3603" transform="translate(0 0)">
    <path id="Path_2218" data-name="Path 2218" d="M96.231,13.424a8.263,8.263,0,0,1-4.157-1.006,6.672,6.672,0,0,1-2.7-2.83A9.092,9.092,0,0,1,88.447,5.4a14.572,14.572,0,0,1,.391-3.3A13.211,13.211,0,0,1,89.915-.927h3.773a26.045,26.045,0,0,0-.713,3.221,20.219,20.219,0,0,0-.266,3.137A4.964,4.964,0,0,0,93.758,8.75a3.448,3.448,0,0,0,2.767,1.237h.852a4.087,4.087,0,0,0,3.249-1.195,4.954,4.954,0,0,0,1.041-3.361V-15.2h4.262V3.111h3.731q.14,0,.14.112V6.409a.124.124,0,0,1-.14.14H105.9q-.517,6.875-8.413,6.875Zm13.136-6.875a.124.124,0,0,1-.14-.14V3.223q0-.112.14-.112h4.43V-7.621h4.262V3.111h4.3q.14,0,.14.112V6.409a.124.124,0,0,1-.14.14ZM113.2,13.7a1.823,1.823,0,0,1-1.4-.552,2.11,2.11,0,0,1-.517-1.5,2.148,2.148,0,0,1,.51-1.516,1.818,1.818,0,0,1,1.4-.552,1.79,1.79,0,0,1,1.383.545,2.161,2.161,0,0,1,.5,1.523,2.1,2.1,0,0,1-.517,1.516A1.812,1.812,0,0,1,113.2,13.7Zm4.863,0a1.823,1.823,0,0,1-1.4-.552,2.11,2.11,0,0,1-.517-1.5,2.148,2.148,0,0,1,.51-1.516,1.818,1.818,0,0,1,1.4-.552,1.8,1.8,0,0,1,1.4.552,2.167,2.167,0,0,1,.5,1.516,2.093,2.093,0,0,1-.524,1.5A1.811,1.811,0,0,1,118.059,13.7Zm4.011-7.155a.124.124,0,0,1-.14-.14V3.223q0-.112.14-.112h3.577V-15.2h4.262V6.549Zm11.99-3.438h9.558a17.772,17.772,0,0,0-1.432-4.269,9.891,9.891,0,0,0-2.152-2.809A10.99,10.99,0,0,0,136.84-5.93l1.607-4.011A13.673,13.673,0,0,1,144.589-5.2a21.4,21.4,0,0,1,3.347,8.42V6.549H134.06Z" transform="translate(-38.151 15.195)" fill="#fff"/>
    <path id="Path_2219" data-name="Path 2219" d="M28.116,3.111q.14,0,.14.112V6.409a.124.124,0,0,1-.14.14H24.51a6.983,6.983,0,0,1-2.138,5.2q-1.956,1.677-5.925,1.677H8.887A7.472,7.472,0,0,1,5,12.39,7.186,7.186,0,0,1,2.277,9.5,8.643,8.643,0,0,1,1.3,5.4,14.572,14.572,0,0,1,1.69,2.1,13.211,13.211,0,0,1,2.766-.927H6.539a26.047,26.047,0,0,0-.713,3.221,20.218,20.218,0,0,0-.266,3.137A4.581,4.581,0,0,0,6.742,8.785a4.6,4.6,0,0,0,3.431,1.2h4.835a7.787,7.787,0,0,0,4.018-.79,2.747,2.747,0,0,0,1.251-2.508v-.14H18.082a7.471,7.471,0,0,1-3.64-.866,6.093,6.093,0,0,1-2.466-2.473,7.7,7.7,0,0,1-.88-3.759A7.053,7.053,0,0,1,12.066-4.3a6.331,6.331,0,0,1,2.858-2.459,10.86,10.86,0,0,1,4.556-.866h5.059V3.111Zm-7.84,0V-4.184h-.741q-4.067,0-4.067,3.8a3.2,3.2,0,0,0,1.062,2.62,4.514,4.514,0,0,0,2.949.873Zm-3.1-13.192a1.823,1.823,0,0,1-1.4-.552,2.11,2.11,0,0,1-.517-1.5,2.148,2.148,0,0,1,.51-1.516,1.818,1.818,0,0,1,1.4-.552,1.79,1.79,0,0,1,1.383.545,2.162,2.162,0,0,1,.5,1.523,2.1,2.1,0,0,1-.517,1.516A1.812,1.812,0,0,1,17.174-10.081Zm4.863,0a1.823,1.823,0,0,1-1.4-.552,2.11,2.11,0,0,1-.517-1.5,2.148,2.148,0,0,1,.51-1.516,1.818,1.818,0,0,1,1.4-.552,1.8,1.8,0,0,1,1.4.552,2.167,2.167,0,0,1,.5,1.516,2.093,2.093,0,0,1-.524,1.5A1.811,1.811,0,0,1,22.037-10.081ZM46.925,3.111V-.41a4.262,4.262,0,0,0-.957-3.067A3.977,3.977,0,0,0,43-4.463q-3.857,0-6.666,5.338V3.111ZM27.836,6.549a.124.124,0,0,1-.14-.14V3.223q0-.112.14-.112H32.07V-15.2h4.262V-2.6q2.613-5.3,7.756-5.3A7.057,7.057,0,0,1,49.4-6.049Q51.187-4.2,51.187-.327V6.549ZM64.044,3.111q.14,0,.14.112V6.409a.124.124,0,0,1-.14.14H56.2V-15.2h4.262V3.111Zm11.277,0q.14,0,.14.112V6.409a.124.124,0,0,1-.14.14H63.764a.124.124,0,0,1-.14-.14V3.223q0-.112.14-.112h3.577V-7.621H71.6V3.111ZM69.438-10.081a1.84,1.84,0,0,1-1.411-.552,2.11,2.11,0,0,1-.517-1.5,2.148,2.148,0,0,1,.51-1.516,1.835,1.835,0,0,1,1.418-.552,1.8,1.8,0,0,1,1.376.545,2.143,2.143,0,0,1,.51,1.523,2.093,2.093,0,0,1-.524,1.5A1.794,1.794,0,0,1,69.438-10.081ZM78.27,3.111A9.751,9.751,0,0,1,77.5-.83a9.629,9.629,0,0,1,.419-2.683,10.679,10.679,0,0,1,1.034-2.473A12.246,12.246,0,0,1,81.9-7.2a10.7,10.7,0,0,1,2.732-.419,7.544,7.544,0,0,1,3.556.838,6.022,6.022,0,0,1,2.48,2.369,7.005,7.005,0,0,1,.88,3.556,8.157,8.157,0,0,1-.531,2.949,2.889,2.889,0,0,0,1.181.79,5.155,5.155,0,0,0,1.67.231h.154q.14,0,.14.112V6.409a.124.124,0,0,1-.14.14h-.154a7.3,7.3,0,0,1-2.62-.426,5.706,5.706,0,0,1-2.1-1.488,7.411,7.411,0,0,1-2.5,1.432,8.932,8.932,0,0,1-2.907.482H75.042a.124.124,0,0,1-.14-.14V3.223q0-.112.14-.112Zm3.186-3.34a10.332,10.332,0,0,0,.657,3.34h1.076a3.949,3.949,0,0,0,2.9-1.16A3.814,3.814,0,0,0,87.255-.858a3.7,3.7,0,0,0-.741-2.425,2.422,2.422,0,0,0-1.97-.9,5.351,5.351,0,0,0-2.669.8A11.747,11.747,0,0,0,81.456-.229ZM93.725,6.549a.124.124,0,0,1-.14-.14V3.223q0-.112.14-.112H97.3V-15.2h4.262V6.549ZM107.294-15.2h4.262V6.549h-4.262Z" transform="translate(-1.299 52.401)" fill="#fff"/>
    <path id="np_location_1044413_000000" d="M26.811,6.008A10.868,10.868,0,0,0,16,16.908c0,4.126,1.823,6.156,3.935,8.118s4.529,3.967,6.28,8.556a.636.636,0,0,0,1.183,0c1.751-4.588,4.168-6.593,6.28-8.556s3.945-3.992,3.945-8.118a10.866,10.866,0,0,0-10.811-10.9Zm0,7.234A3.816,3.816,0,1,1,23,17.058,3.825,3.825,0,0,1,26.811,13.242Z" transform="translate(5.911 -6.008)" fill="#fff" fill-rule="evenodd"/>
  </g>
</svg>
