<svg xmlns="http://www.w3.org/2000/svg" width="68.837" height="35.62" viewBox="0 0 68.837 35.62">
  <g id="Group_3605" data-name="Group 3605" transform="translate(0.13 -3.448)">
    <path id="Path_2224" data-name="Path 2224" d="M8.968-5.054,6.83-10.592q-.095-.247-.2-.575t-.2-.7a10.351,10.351,0,0,1-.408,1.283L3.886-5.054ZM12.806,0H11.381a.613.613,0,0,1-.4-.124.759.759,0,0,1-.228-.314L9.481-3.724H3.372L2.1-.437a.667.667,0,0,1-.218.3.607.607,0,0,1-.4.133H.057L5.5-13.613H7.362Zm5.567-7.021a4.66,4.66,0,0,0,1.411-.195,2.89,2.89,0,0,0,1.026-.551,2.285,2.285,0,0,0,.622-.85,2.776,2.776,0,0,0,.209-1.092,2.175,2.175,0,0,0-.8-1.834,3.876,3.876,0,0,0-2.394-.617H16.435v5.139ZM24.662,0H23.028a.806.806,0,0,1-.741-.39L18.753-5.253a1.047,1.047,0,0,0-.347-.328,1.263,1.263,0,0,0-.575-.1h-1.4V0H14.6V-13.613h3.847a8.407,8.407,0,0,1,2.233.261,4.261,4.261,0,0,1,1.553.755,3.024,3.024,0,0,1,.907,1.192,3.985,3.985,0,0,1,.295,1.563,3.918,3.918,0,0,1-.228,1.349,3.563,3.563,0,0,1-.66,1.126,3.95,3.95,0,0,1-1.055.85,5.22,5.22,0,0,1-1.411.532,1.82,1.82,0,0,1,.608.58ZM34.9-1.5,34.894,0H26.505V-13.613h8.389v1.5H28.348v4.522h5.3v1.444h-5.3V-1.5Zm9.8-3.553-2.138-5.538q-.095-.247-.2-.575t-.2-.7a10.351,10.351,0,0,1-.409,1.283L39.625-5.054ZM48.545,0H47.12a.613.613,0,0,1-.4-.124.76.76,0,0,1-.228-.314L45.22-3.724H39.111L37.838-.437a.667.667,0,0,1-.218.3.607.607,0,0,1-.4.133H35.8l5.444-13.613H43.1ZM8.151,12.979h4.731V18.67A7.376,7.376,0,0,1,10.635,19.8a8.765,8.765,0,0,1-2.522.356,8.552,8.552,0,0,1-3.078-.527,6.925,6.925,0,0,1-2.356-1.468,6.48,6.48,0,0,1-1.511-2.233A7.339,7.339,0,0,1,.637,13.1a7.7,7.7,0,0,1,.508-2.84A6.364,6.364,0,0,1,2.594,8.04,6.616,6.616,0,0,1,4.869,6.586a8.137,8.137,0,0,1,2.988-.523,8.736,8.736,0,0,1,1.6.138,7.692,7.692,0,0,1,1.368.38,6.461,6.461,0,0,1,2.1,1.306L12.094,9.16a.769.769,0,0,1-.494.371.9.9,0,0,1-.665-.152q-.342-.209-.67-.375a5.12,5.12,0,0,0-.7-.29,4.87,4.87,0,0,0-.807-.19,6.761,6.761,0,0,0-1.007-.067,4.386,4.386,0,0,0-1.738.333,3.719,3.719,0,0,0-1.325.94,4.21,4.21,0,0,0-.841,1.463A5.837,5.837,0,0,0,3.553,13.1a6,6,0,0,0,.323,2.038,4.242,4.242,0,0,0,.912,1.515A3.888,3.888,0,0,0,6.2,17.6a4.961,4.961,0,0,0,1.829.323,4.925,4.925,0,0,0,1.221-.138,6.109,6.109,0,0,0,1.05-.375V15.089H8.74a.606.606,0,0,1-.432-.147.492.492,0,0,1-.157-.375Zm12.7,4.74a3.171,3.171,0,0,0,1.244-.233,2.559,2.559,0,0,0,.931-.66,2.894,2.894,0,0,0,.58-1.035,4.376,4.376,0,0,0,.2-1.368V6.215h2.85v8.208a6.367,6.367,0,0,1-.4,2.3,5.2,5.2,0,0,1-1.154,1.81,5.262,5.262,0,0,1-1.824,1.188,7.091,7.091,0,0,1-4.85,0A5.253,5.253,0,0,1,16.6,18.537a5.2,5.2,0,0,1-1.154-1.81,6.367,6.367,0,0,1-.4-2.3V6.215h2.85v8.208a4.376,4.376,0,0,0,.2,1.368,2.894,2.894,0,0,0,.579,1.035,2.559,2.559,0,0,0,.931.66A3.2,3.2,0,0,0,20.853,17.72ZM32.243,20H29.374V6.215h2.869Zm15.248-6.9a7.4,7.4,0,0,1-.508,2.779,6.316,6.316,0,0,1-1.434,2.18,6.561,6.561,0,0,1-2.228,1.425A7.813,7.813,0,0,1,40.432,20h-5.3V6.215h5.3a7.813,7.813,0,0,1,2.888.513,6.524,6.524,0,0,1,2.228,1.43,6.376,6.376,0,0,1,1.434,2.18A7.341,7.341,0,0,1,47.491,13.1Zm-2.926,0a6.2,6.2,0,0,0-.285-1.947,4.1,4.1,0,0,0-.817-1.463,3.565,3.565,0,0,0-1.3-.921,4.419,4.419,0,0,0-1.734-.323H38v9.319h2.432a4.477,4.477,0,0,0,1.734-.318,3.492,3.492,0,0,0,1.3-.921,4.154,4.154,0,0,0,.817-1.468A6.236,6.236,0,0,0,44.564,13.1Zm7.895-4.655v3.543h4.6v2.157h-4.6v3.619h5.909V20H49.59V6.215h8.778V8.448Zm15.5.409a1.082,1.082,0,0,1-.271.318.593.593,0,0,1-.356.1.879.879,0,0,1-.451-.147q-.242-.147-.565-.318a5.477,5.477,0,0,0-.741-.318,2.945,2.945,0,0,0-.979-.147,2.164,2.164,0,0,0-1.482.442,1.475,1.475,0,0,0-.494,1.154,1.083,1.083,0,0,0,.271.755,2.353,2.353,0,0,0,.712.518,6.621,6.621,0,0,0,1,.39q.56.171,1.149.375a10.119,10.119,0,0,1,1.15.48,4.043,4.043,0,0,1,1,.693,3.178,3.178,0,0,1,.712,1.021,3.573,3.573,0,0,1,.271,1.468,4.713,4.713,0,0,1-.328,1.762,4.179,4.179,0,0,1-.945,1.434A4.375,4.375,0,0,1,66.1,19.8a5.659,5.659,0,0,1-2.057.351,6.508,6.508,0,0,1-1.306-.133,7.534,7.534,0,0,1-1.254-.37,6.918,6.918,0,0,1-1.135-.57,4.99,4.99,0,0,1-.931-.741l.836-1.349a.845.845,0,0,1,.276-.252.706.706,0,0,1,.361-.1.985.985,0,0,1,.542.19q.285.19.655.418a5.306,5.306,0,0,0,.86.418,3.242,3.242,0,0,0,1.173.19,2.344,2.344,0,0,0,1.544-.456,1.669,1.669,0,0,0,.546-1.358,1.272,1.272,0,0,0-.271-.845,2.178,2.178,0,0,0-.708-.542,5.609,5.609,0,0,0-1-.375q-.561-.157-1.15-.347a9.433,9.433,0,0,1-1.15-.456,3.557,3.557,0,0,1-1-.7,3.33,3.33,0,0,1-.708-1.083,4.167,4.167,0,0,1-.271-1.606,3.815,3.815,0,0,1,1.2-2.774,4.469,4.469,0,0,1,1.449-.9,5.3,5.3,0,0,1,1.971-.342,6.7,6.7,0,0,1,2.3.385,5.166,5.166,0,0,1,1.791,1.069Z" transform="translate(-0.187 18.916)" fill="#fff"/>
    <path id="np_location_1044413_000000" d="M22.543,6.008A6.577,6.577,0,0,0,16,12.6a6.059,6.059,0,0,0,2.381,4.913,12.317,12.317,0,0,1,3.8,5.178.385.385,0,0,0,.716,0,12.314,12.314,0,0,1,3.8-5.178A6.063,6.063,0,0,0,29.086,12.6a6.576,6.576,0,0,0-6.543-6.6Zm0,4.378A2.309,2.309,0,1,1,20.234,12.7,2.315,2.315,0,0,1,22.543,10.386Z" transform="translate(39.427 -2.56)" fill="#fff" fill-rule="evenodd"/>
  </g>
</svg>
