<svg xmlns="http://www.w3.org/2000/svg" viewBox="0 0 65.696 32.16">
  <g id="areaguides" transform="translate(0 -1.834)">
    <path id="Path_2224" data-name="Path 2224" d="M8.561-5.461l-2.04-5.275q-.091-.235-.19-.547t-.19-.665a9.845,9.845,0,0,1-.39,1.222L3.711-5.461ZM12.224-.647h-1.36a.586.586,0,0,1-.381-.118.723.723,0,0,1-.218-.3L9.051-4.194H3.221L2.006-1.063a.635.635,0,0,1-.209.29.58.58,0,0,1-.381.127H.057l5.2-12.966H7.029Zm5.313-6.687a4.455,4.455,0,0,0,1.346-.185,2.76,2.76,0,0,0,.979-.525,2.177,2.177,0,0,0,.594-.81,2.64,2.64,0,0,0,.2-1.041,2.07,2.07,0,0,0-.762-1.746,3.705,3.705,0,0,0-2.285-.588H15.688v4.9Zm6,6.687H21.98a.769.769,0,0,1-.707-.371L17.9-5.651a1,1,0,0,0-.331-.312,1.207,1.207,0,0,0-.549-.1H15.688V-.647h-1.75V-13.614H17.61a8.038,8.038,0,0,1,2.131.249,4.07,4.07,0,0,1,1.482.719,2.881,2.881,0,0,1,.866,1.136,3.788,3.788,0,0,1,.281,1.488,3.725,3.725,0,0,1-.218,1.285,3.392,3.392,0,0,1-.63,1.072,3.769,3.769,0,0,1-1.006.81,4.988,4.988,0,0,1-1.346.507,1.736,1.736,0,0,1,.58.552Zm9.774-1.43L33.3-.647H25.3V-13.614H33.3v1.43H27.057v4.307h5.059V-6.5H27.057v4.425ZM42.67-5.461l-2.04-5.275q-.091-.235-.19-.547t-.19-.665a9.845,9.845,0,0,1-.39,1.222l-2.04,5.266ZM46.333-.647h-1.36a.586.586,0,0,1-.381-.118.724.724,0,0,1-.218-.3L43.159-4.194H37.33L36.115-1.063a.635.635,0,0,1-.209.29.58.58,0,0,1-.381.127h-1.36l5.2-12.966h1.777ZM7.782,11.715H12.3v5.42a7.045,7.045,0,0,1-2.144,1.072,8.381,8.381,0,0,1-2.407.339,8.177,8.177,0,0,1-2.938-.5,6.611,6.611,0,0,1-2.249-1.4A6.171,6.171,0,0,1,1.118,14.52,6.978,6.978,0,0,1,.61,11.833,7.316,7.316,0,0,1,1.1,9.128,6.06,6.06,0,0,1,2.478,7.01,6.316,6.316,0,0,1,4.649,5.626a7.78,7.78,0,0,1,2.851-.5,8.353,8.353,0,0,1,1.523.131,7.353,7.353,0,0,1,1.306.362,6.168,6.168,0,0,1,2,1.244l-.789,1.212a.734.734,0,0,1-.471.353.865.865,0,0,1-.635-.145q-.326-.2-.639-.357a4.892,4.892,0,0,0-.666-.276,4.655,4.655,0,0,0-.771-.181A6.465,6.465,0,0,0,7.4,7.408a4.193,4.193,0,0,0-1.659.317,3.549,3.549,0,0,0-1.265.9,4.008,4.008,0,0,0-.8,1.393,5.55,5.55,0,0,0-.281,1.819A5.7,5.7,0,0,0,3.7,13.774a4.039,4.039,0,0,0,.87,1.443,3.711,3.711,0,0,0,1.346.9,4.743,4.743,0,0,0,1.745.308,4.709,4.709,0,0,0,1.165-.131,5.838,5.838,0,0,0,1-.357V13.724H8.344a.579.579,0,0,1-.413-.14.468.468,0,0,1-.15-.357ZM19.9,16.231a3.031,3.031,0,0,0,1.188-.222,2.442,2.442,0,0,0,.889-.629,2.755,2.755,0,0,0,.553-.986,4.16,4.16,0,0,0,.19-1.3V5.273h2.72v7.818a6.053,6.053,0,0,1-.385,2.194,4.947,4.947,0,0,1-1.1,1.724,5.023,5.023,0,0,1-1.741,1.131,6.78,6.78,0,0,1-4.628,0,5.014,5.014,0,0,1-1.745-1.131,4.947,4.947,0,0,1-1.1-1.724,6.053,6.053,0,0,1-.385-2.194V5.273h2.72v7.818a4.16,4.16,0,0,0,.19,1.3,2.755,2.755,0,0,0,.553.986,2.442,2.442,0,0,0,.889.629A3.056,3.056,0,0,0,19.9,16.231ZM30.775,18.4H28.036V5.273h2.738Zm14.552-6.569a7.039,7.039,0,0,1-.485,2.647,6.015,6.015,0,0,1-1.369,2.077,6.263,6.263,0,0,1-2.126,1.357,7.47,7.47,0,0,1-2.756.489H33.531V5.273H38.59a7.47,7.47,0,0,1,2.756.489,6.228,6.228,0,0,1,2.126,1.362A6.072,6.072,0,0,1,44.841,9.2,6.979,6.979,0,0,1,45.326,11.833Zm-2.793,0a5.9,5.9,0,0,0-.272-1.855,3.907,3.907,0,0,0-.78-1.393,3.4,3.4,0,0,0-1.238-.878A4.224,4.224,0,0,0,38.59,7.4H36.269v8.877H38.59a4.28,4.28,0,0,0,1.655-.3,3.333,3.333,0,0,0,1.238-.878,3.954,3.954,0,0,0,.78-1.4A5.929,5.929,0,0,0,42.534,11.833ZM50.068,7.4v3.375h4.388v2.054H50.068v3.447h5.639V18.4H47.33V5.273h8.378V7.4Zm14.8.389a1.031,1.031,0,0,1-.258.3.567.567,0,0,1-.34.1.84.84,0,0,1-.431-.14q-.231-.14-.539-.3a5.233,5.233,0,0,0-.707-.3,2.816,2.816,0,0,0-.934-.14,2.068,2.068,0,0,0-1.414.421,1.4,1.4,0,0,0-.471,1.1,1.03,1.03,0,0,0,.258.719,2.246,2.246,0,0,0,.68.493,6.327,6.327,0,0,0,.957.371q.535.163,1.1.357a9.669,9.669,0,0,1,1.1.457,3.859,3.859,0,0,1,.957.661,3.027,3.027,0,0,1,.68.973,3.4,3.4,0,0,1,.258,1.4,4.481,4.481,0,0,1-.313,1.678,3.979,3.979,0,0,1-.9,1.366,4.177,4.177,0,0,1-1.455.918,5.411,5.411,0,0,1-1.963.335,6.222,6.222,0,0,1-1.247-.127,7.2,7.2,0,0,1-1.2-.353,6.608,6.608,0,0,1-1.083-.543,4.761,4.761,0,0,1-.889-.706l.8-1.285a.806.806,0,0,1,.263-.24.674.674,0,0,1,.345-.1.941.941,0,0,1,.517.181q.272.181.626.4a5.069,5.069,0,0,0,.821.4,3.1,3.1,0,0,0,1.12.181,2.24,2.24,0,0,0,1.473-.434,1.588,1.588,0,0,0,.521-1.294,1.21,1.21,0,0,0-.258-.805,2.078,2.078,0,0,0-.675-.516,5.359,5.359,0,0,0-.952-.357q-.535-.149-1.1-.33a9.013,9.013,0,0,1-1.1-.434,3.394,3.394,0,0,1-.952-.67,3.171,3.171,0,0,1-.675-1.032,3.962,3.962,0,0,1-.258-1.529,3.63,3.63,0,0,1,1.142-2.642,4.266,4.266,0,0,1,1.383-.86,5.07,5.07,0,0,1,1.881-.326,6.406,6.406,0,0,1,2.2.366,4.932,4.932,0,0,1,1.709,1.018Z" transform="translate(-0.057 15.448)" fill="#222"/>
    <path id="np_location_1044413_000000" d="M21.763,6.008A5.794,5.794,0,0,0,16,11.819a5.337,5.337,0,0,0,2.1,4.328,10.849,10.849,0,0,1,3.348,4.561.339.339,0,0,0,.63,0,10.847,10.847,0,0,1,3.348-4.561,5.34,5.34,0,0,0,2.1-4.328,5.793,5.793,0,0,0-5.763-5.811Zm0,3.856A2.034,2.034,0,1,1,19.729,11.9,2.039,2.039,0,0,1,21.763,9.864Z" transform="translate(34.861 -4.174)" fill="#222" fill-rule="evenodd"/>
  </g>
</svg>
