<svg id="areaguides-ar" xmlns="http://www.w3.org/2000/svg" width="76.017" height="45.339" viewBox="0 0 76.017 45.339">
  <path id="Path_2218" data-name="Path 2218" d="M94.335,6.452a6.25,6.25,0,0,1-3.145-.761,5.046,5.046,0,0,1-2.04-2.14,6.877,6.877,0,0,1-.7-3.166,11.022,11.022,0,0,1,.3-2.5A9.993,9.993,0,0,1,89.557-4.4h2.854a19.7,19.7,0,0,0-.539,2.436,15.294,15.294,0,0,0-.2,2.373,3.755,3.755,0,0,0,.793,2.51,2.608,2.608,0,0,0,2.093.935H95.2a3.091,3.091,0,0,0,2.458-.9A3.747,3.747,0,0,0,98.446.406V-15.2h3.224V-1.349h2.822q.106,0,.106.085v2.41a.093.093,0,0,1-.106.106h-2.843q-.391,5.2-6.363,5.2Zm9.936-5.2a.093.093,0,0,1-.106-.106v-2.41q0-.085.106-.085h3.351V-9.466h3.224v8.118H114.1q.106,0,.106.085v2.41a.093.093,0,0,1-.106.106Zm2.9,5.412a1.379,1.379,0,0,1-1.057-.418,1.6,1.6,0,0,1-.391-1.136,1.625,1.625,0,0,1,.386-1.147,1.375,1.375,0,0,1,1.062-.418,1.354,1.354,0,0,1,1.046.412,1.635,1.635,0,0,1,.381,1.152,1.588,1.588,0,0,1-.391,1.147A1.37,1.37,0,0,1,107.167,6.663Zm3.678,0a1.379,1.379,0,0,1-1.057-.418A1.6,1.6,0,0,1,109.4,5.11a1.625,1.625,0,0,1,.386-1.147,1.375,1.375,0,0,1,1.062-.418,1.358,1.358,0,0,1,1.057.418,1.639,1.639,0,0,1,.381,1.147,1.583,1.583,0,0,1-.4,1.136A1.369,1.369,0,0,1,110.845,6.663Zm3.034-5.412a.093.093,0,0,1-.106-.106v-2.41q0-.085.106-.085h2.706V-15.2h3.224V1.252Zm9.069-2.6h7.23a13.442,13.442,0,0,0-1.083-3.229A7.481,7.481,0,0,0,127.466-6.7a8.313,8.313,0,0,0-2.415-1.485l1.216-3.034a10.342,10.342,0,0,1,4.645,3.588,16.184,16.184,0,0,1,2.532,6.368V1.252h-10.5Z" transform="translate(-57.784 15.195)" fill="#222"/>
  <path id="Path_2219" data-name="Path 2219" d="M19.788-1.349q.1,0,.1.085v2.41q0,.106-.1.106H17.3a5.541,5.541,0,0,1-1.474,3.932,5.776,5.776,0,0,1-4.085,1.268H6.53A4.807,4.807,0,0,1,3.847,5.67,5.262,5.262,0,0,1,1.973,3.487,7.057,7.057,0,0,1,1.3.385a12.044,12.044,0,0,1,.27-2.5A10.644,10.644,0,0,1,2.31-4.4h2.6A21.354,21.354,0,0,0,4.42-1.967,16.744,16.744,0,0,0,4.237.406a3.67,3.67,0,0,0,.814,2.537,3.011,3.011,0,0,0,2.365.909H10.75a4.973,4.973,0,0,0,2.77-.6,2.145,2.145,0,0,0,.862-1.9V1.252H12.87A4.787,4.787,0,0,1,10.36.6a4.428,4.428,0,0,1-1.7-1.871,6.29,6.29,0,0,1-.607-2.843,5.74,5.74,0,0,1,.67-2.833,4.511,4.511,0,0,1,1.97-1.86,6.916,6.916,0,0,1,3.141-.655h3.488v8.118Zm-5.405,0V-6.866h-.511q-2.8,0-2.8,2.875A2.535,2.535,0,0,0,11.8-2.009a2.926,2.926,0,0,0,2.033.661Zm-2.139-9.978a1.2,1.2,0,0,1-.963-.418,1.693,1.693,0,0,1-.356-1.136,1.725,1.725,0,0,1,.352-1.147,1.2,1.2,0,0,1,.968-.418,1.18,1.18,0,0,1,.954.412,1.738,1.738,0,0,1,.347,1.152,1.685,1.685,0,0,1-.356,1.147A1.194,1.194,0,0,1,12.244-11.327Zm3.353,0a1.2,1.2,0,0,1-.963-.418,1.693,1.693,0,0,1-.356-1.136,1.725,1.725,0,0,1,.352-1.147,1.2,1.2,0,0,1,.968-.418,1.184,1.184,0,0,1,.963.418,1.742,1.742,0,0,1,.347,1.147,1.678,1.678,0,0,1-.361,1.136A1.194,1.194,0,0,1,15.6-11.327ZM32.756-1.349V-4.012a3.432,3.432,0,0,0-.66-2.32,2.6,2.6,0,0,0-2.047-.745q-2.659,0-4.6,4.038v1.691Zm-13.161,2.6q-.1,0-.1-.106v-2.41q0-.085.1-.085h2.919V-15.2h2.939v9.524q1.8-4.006,5.347-4.006a4.62,4.62,0,0,1,3.661,1.4,6.419,6.419,0,0,1,1.233,4.328v5.2Zm24.963-2.6q.1,0,.1.085v2.41q0,.106-.1.106H39.153V-15.2h2.939V-1.349Zm7.775,0q.1,0,.1.085v2.41q0,.106-.1.106H44.366q-.1,0-.1-.106v-2.41q0-.085.1-.085h2.466V-9.466h2.939v8.118Zm-4.056-9.978a1.212,1.212,0,0,1-.973-.418,1.693,1.693,0,0,1-.356-1.136,1.725,1.725,0,0,1,.352-1.147,1.209,1.209,0,0,1,.978-.418,1.183,1.183,0,0,1,.949.412,1.721,1.721,0,0,1,.352,1.152,1.678,1.678,0,0,1-.361,1.136A1.184,1.184,0,0,1,48.277-11.327Zm6.089,9.978a8,8,0,0,1-.53-2.981,7.937,7.937,0,0,1,.289-2.029,8.521,8.521,0,0,1,.713-1.871,8.046,8.046,0,0,1,2.028-.92,6.777,6.777,0,0,1,1.884-.317,4.831,4.831,0,0,1,2.452.634,4.349,4.349,0,0,1,1.71,1.792,5.71,5.71,0,0,1,.607,2.69,6.705,6.705,0,0,1-.366,2.23,1.99,1.99,0,0,0,.814.6,3.263,3.263,0,0,0,1.151.174h.106q.1,0,.1.085v2.41q0,.106-.1.106h-.106A4.635,4.635,0,0,1,63.312.929,3.956,3.956,0,0,1,61.862-.2,5.017,5.017,0,0,1,60.137.887a5.666,5.666,0,0,1-2,.365H52.141q-.1,0-.1-.106v-2.41q0-.085.1-.085Zm2.2-2.526a8.487,8.487,0,0,0,.453,2.526h.742a2.6,2.6,0,0,0,2-.877,3.031,3.031,0,0,0,.8-2.125,2.99,2.99,0,0,0-.511-1.834,1.614,1.614,0,0,0-1.358-.682,3.454,3.454,0,0,0-1.84.6A9.7,9.7,0,0,0,56.563-3.875Zm8.459,5.126q-.1,0-.1-.106v-2.41q0-.085.1-.085h2.466V-15.2h2.939V1.252ZM74.377-15.2h2.939V1.252H74.377Z" transform="translate(-1.299 38.887)" fill="#222"/>
  <path id="np_location_1044413_000000" d="M22.841,6.008A6.877,6.877,0,0,0,16,12.905a6.335,6.335,0,0,0,2.49,5.137,12.877,12.877,0,0,1,3.974,5.414.4.4,0,0,0,.748,0,12.875,12.875,0,0,1,3.974-5.414,6.339,6.339,0,0,0,2.5-5.137,6.876,6.876,0,0,0-6.841-6.9Zm0,4.577A2.414,2.414,0,1,1,20.426,13,2.42,2.42,0,0,1,22.841,10.585Z" transform="translate(-0.495 -6.008)" fill="#222" fill-rule="evenodd"/>
</svg>
