<svg id="bayut_white_logo" data-name="bayut white logo" xmlns="http://www.w3.org/2000/svg" width="72.621" height="19.409" viewBox="0 0 72.621 19.409">
  <path id="Path_2" data-name="Path 2" d="M50.87,13.374a.569.569,0,0,0-.108.078,2.718,2.718,0,0,1-2.237,1.079,4.7,4.7,0,0,1-2.276-.441,3.738,3.738,0,0,1-2.031-2.943,6.445,6.445,0,0,1-.069-.981V6.055c0-.549.167-.716.716-.716h1.2c.481,0,.677.206.677.687v4.189a2.4,2.4,0,0,0,.491,1.53,2.207,2.207,0,0,0,3.64-.559,1.108,1.108,0,0,0,.059-.4V6.046c0-.579.167-.746.736-.746h1.167c.481,0,.7.216.7.7v8.9a4.189,4.189,0,0,1-2.335,3.924,5.68,5.68,0,0,1-3.1.6,5.18,5.18,0,0,1-1.913-.441,1.207,1.207,0,0,1-.844-1.3v-.677A.432.432,0,0,1,46,16.572c.334.147.647.343.981.471a3.8,3.8,0,0,0,2.374.157,1.962,1.962,0,0,0,1.511-1.933V13.5A.529.529,0,0,0,50.87,13.374Z" transform="translate(-0.805 -0.032)" fill="#28b16d"/>
  <path id="Path_3" data-name="Path 3" d="M24.291,5.444A12.754,12.754,0,0,1,25.586,5a5.494,5.494,0,0,1,3.081.078,4.062,4.062,0,0,1,2.747,3.336,5.415,5.415,0,0,1-.088,2.57,4.4,4.4,0,0,1-2.747,2.943,6.014,6.014,0,0,1-5.651-.5,4.67,4.67,0,0,1-.716-.6,1.491,1.491,0,0,1-.471-1.06V1.677a.873.873,0,0,1,.471-.834c.441-.255.883-.52,1.324-.775s.755,0,.755.451V5.444Zm0,4.218v1.8a.441.441,0,0,0,.216.412,2.943,2.943,0,0,0,2.305.461,2.227,2.227,0,0,0,1.815-1.452,3.542,3.542,0,0,0,.235-1.619,2.5,2.5,0,0,0-.824-1.786,3.022,3.022,0,0,0-3.561.059.5.5,0,0,0-.128.334A15.683,15.683,0,0,0,24.291,9.663Z" transform="translate(-0.38 0.069)" fill="#28b16d"/>
  <path id="Path_4" data-name="Path 4" d="M11.046-.07a7.2,7.2,0,0,1,6.779,5.661,7.27,7.27,0,0,1-4.277,8.319A7.024,7.024,0,0,1,5.7,12.154c-.392-.441-.4-.441-.9-.147L1.53,13.969c-.559.324-.795.265-1.118-.294l-.3-.54a.628.628,0,0,1,.265-.981l3.365-1.962c.51-.3.5-.294.343-.844A7.26,7.26,0,0,1,8.7.322,6.4,6.4,0,0,1,9.682.067C10.144,0,10.595,0,11.046-.07ZM16.6,7.219a5.778,5.778,0,0,0-5.641-5.837A5.769,5.769,0,0,0,5.189,7.023a5.769,5.769,0,0,0,5.6,5.994,5.759,5.759,0,0,0,5.808-5.8Z" transform="translate(0.032 0.07)" fill="#28b16d"/>
  <path id="Path_5" data-name="Path 5" d="M39.771,13.268a.981.981,0,0,0-.147.118A2.561,2.561,0,0,1,37.8,14.465a4.4,4.4,0,0,1-4.091-1.354A4.454,4.454,0,0,1,32.6,10.472a5.131,5.131,0,0,1,.461-2.943,4.513,4.513,0,0,1,3.071-2.374,6.867,6.867,0,0,1,5.18.628l.157.1a1.609,1.609,0,0,1,.883,1.589v5.955a2.09,2.09,0,0,1,0,.412.471.471,0,0,1-.491.412H40.31c-.324,0-.51-.216-.54-.579C39.761,13.563,39.771,13.445,39.771,13.268Zm0-5.523a.461.461,0,0,0-.245-.441,3.012,3.012,0,0,0-1.354-.343,2.5,2.5,0,0,0-2.855,1.864,3.836,3.836,0,0,0,0,1.874A2.384,2.384,0,0,0,39.2,11.866a1.383,1.383,0,0,0,.559-1.2c-.029-.451-.02-2.4,0-2.924Z" transform="translate(-0.585 -0.024)" fill="#28b16d"/>
  <path id="Path_6" data-name="Path 6" d="M62.179,13.276a1.157,1.157,0,0,0-.157.137,2.472,2.472,0,0,1-1.7,1.05,4.454,4.454,0,0,1-3.159-.549A3.748,3.748,0,0,1,55.459,11.1a6.671,6.671,0,0,1-.069-.981V6.006c0-.549.157-.716.716-.716h1.226a.579.579,0,0,1,.618.7q0,2.1,0,4.209a2.413,2.413,0,0,0,.53,1.6,2.227,2.227,0,0,0,3.6-.618.981.981,0,0,0,0-.334V6.055c0-.549.177-.726.736-.726h1.167c.471,0,.677.216.677.687V13.56c0,.53-.2.726-.716.726H62.856c-.471,0-.657-.186-.667-.657C62.179,13.511,62.179,13.433,62.179,13.276Z" transform="translate(-1.018 -0.032)" fill="#28b16d"/>
  <path id="Path_7" data-name="Path 7" d="M66.63,6.8V3.237a.834.834,0,0,1,.441-.795L68.4,1.668l.118-.059a.451.451,0,0,1,.667.432V4.876c0,.334,0,.343.353.343h3.345c.657,0,.795.137.8.785v.628c0,.432-.2.618-.618.628H69.553c-.383,0-.383,0-.383.373V9.977a3.541,3.541,0,0,0,.147.981,2.05,2.05,0,0,0,2.256,1.413A2.472,2.472,0,0,0,73,11.8l.128-.088a.5.5,0,0,1,.549-.1c.2.108.177.3.177.481v.834a.981.981,0,0,1-.461.873,3.924,3.924,0,0,1-2.188.638,4.905,4.905,0,0,1-2.482-.549,3.836,3.836,0,0,1-1.962-3.022,16.351,16.351,0,0,1-.078-1.962C66.62,8.2,66.63,7.5,66.63,6.8Z" transform="translate(-1.231 0.039)" fill="#28b16d"/>
  <path id="Path_8" data-name="Path 8" d="M14.765,7.978V9.822c0,.422-.177.6-.6.6H12.754c-.334,0-.481-.137-.481-.471V8.468A1.266,1.266,0,0,0,11.2,7.242a1.236,1.236,0,0,0-1.364.981,3.237,3.237,0,0,0,0,.677c0,.343,0,.7,0,1.04s-.147.51-.5.51H7.869a.53.53,0,0,1-.589-.569c0-1.226,0-2.443,0-3.669a.716.716,0,0,1,.392-.7Q9.065,4.73,10.429,3.9a1.03,1.03,0,0,1,1.187,0c.922.559,1.864,1.109,2.8,1.648a.608.608,0,0,1,.334.589c0,.628,0,1.246,0,1.874Z" transform="translate(-0.106 -0.002)" fill="#28b16d"/>
</svg>
