<svg xmlns="http://www.w3.org/2000/svg" width="36.604" height="29.433" viewBox="0 0 36.604 29.433">
  <g id="Group_3485" data-name="Group 3485" transform="translate(-3706 9785)">
    <path id="Path_2171" data-name="Path 2171" d="M22.446-.07A14.611,14.611,0,0,1,36.2,11.416,14.75,14.75,0,0,1,27.522,28.3,14.253,14.253,0,0,1,11.6,24.733c-.8-.9-.816-.9-1.831-.3L3.137,28.415c-1.135.657-1.612.537-2.269-.6L.251,26.723a1.274,1.274,0,0,1,.537-1.991l6.828-3.981c1.035-.617,1.015-.6.7-1.712A14.73,14.73,0,0,1,17.688.726,12.979,12.979,0,0,1,19.679.209C20.615.069,21.53.069,22.446-.07ZM33.713,14.72A11.725,11.725,0,0,0,22.267,2.876a11.7,11.7,0,0,0-11.7,11.446A11.7,11.7,0,0,0,21.928,26.485,11.685,11.685,0,0,0,33.713,14.72Z" transform="translate(3706.032 -9784.93)" fill="#fff"/>
    <path id="Path_2172" data-name="Path 2172" d="M22.471,12.371v3.742c0,.856-.358,1.214-1.214,1.214H18.39c-.677,0-.975-.279-.975-.955V13.366a2.568,2.568,0,0,0-2.17-2.488,2.508,2.508,0,0,0-2.767,1.991,6.569,6.569,0,0,0,0,1.374c0,.7,0,1.413,0,2.11s-.3,1.035-1.015,1.035H8.477a1.075,1.075,0,0,1-1.194-1.155c0-2.488,0-4.957,0-7.445a1.453,1.453,0,0,1,.8-1.413q2.827-1.592,5.594-3.284a2.09,2.09,0,0,1,2.409,0c1.871,1.135,3.782,2.249,5.673,3.344a1.234,1.234,0,0,1,.677,1.194c0,1.274,0,2.528,0,3.8Z" transform="translate(3713.273 -9781.188)" fill="#fff"/>
  </g>
</svg>
