<svg version="1.1" id="bayutLogo_en" xmlns="http://www.w3.org/2000/svg" xmlns:xlink="http://www.w3.org/1999/xlink" x="0px" y="0px"
    viewBox="-243 381 124.9 32" style="enable-background:new -243 381 124.9 32;" xml:space="preserve">
    <g>
        <g>
            <defs>
                <rect id="SVGID_1_" x="-195" y="252" width="128.2" height="32"/>
            </defs>
            <clipPath id="SVGID_2_">
                <use xlink:href="#SVGID_1_"  style="overflow:visible;"/>
            </clipPath>
            <g id="Logo_English" transform="translate(-48 129)" style="clip-path:url(#SVGID_2_);">
                <g id="Group_10" transform="translate(48 -129)">
                    <defs>
                        <rect id="SVGID_3_" x="-243" y="381" width="128.2" height="32"/>
                    </defs>
                    <clipPath id="SVGID_4_">
                        <use xlink:href="#SVGID_3_"  style="overflow:visible;"/>
                    </clipPath>
                    <g id="Group_9" style="clip-path:url(#SVGID_4_);">
                        <path id="Path_4" fill="#28B16D" d="M-224.1,402.6c-5.4,0-9.8-4.3-9.8-9.5c0-5.3,4.4-9.5,9.8-9.5c5.4,0,9.8,4.3,9.8,9.5
                            S-218.7,402.6-224.1,402.6C-224.1,402.6-224.1,402.6-224.1,402.6 M-224.3,381.3c-6.5,0.1-11.8,5.3-12,11.6
                            c0,1.5,0.2,2.9,0.7,4.3c0,0.1,0,0.1-0.1,0.2l-7.2,4.1c-0.2,0.1-0.3,0.5-0.2,0.7l1.4,2.3c0.1,0.1,0.2,0.2,0.3,0.3
                            c0.1,0,0.3,0,0.4-0.1l7.1-4.2c0.1,0,0.1,0,0.2,0c2.4,2.9,6,4.5,9.7,4.4c6.5-0.2,11.7-5.3,11.9-11.6c0.1-3.2-1.2-6.3-3.5-8.6
                            C-217.8,382.5-221,381.2-224.3,381.3"/>
                        <path id="Path_5" fill="#28B16D" d="M-222.1,394.9v2.9c0,0.1,0.1,0.3,0.2,0.4c0.1,0.1,0.2,0.2,0.4,0.2h3.3c0.3,0,0.5-0.2,0.5-0.5
                            l0,0V391c0-0.2-0.1-0.3-0.2-0.4l-5.6-3.3c-0.4-0.2-0.8-0.2-1.2,0l-5.6,3.1c-0.2,0.1-0.3,0.3-0.3,0.4v7c0,0.3,0.2,0.5,0.5,0.5
                            h3.4c0.3,0,0.5-0.2,0.5-0.5v-2.9c0-1,0.8-1.8,1.9-1.8l0,0h0.3C-222.9,393-222.1,393.9-222.1,394.9L-222.1,394.9"/>
                        <path id="Path_6" fill="#28B16D" d="M-194.5,397.9c0,1.1-0.5,2.1-1.4,2.8c-0.9,0.6-1.9,0.9-3,0.8c-1,0.1-2-0.2-2.9-0.8
                            c-0.4-0.2-0.4-0.4-0.4-0.4v-6.4c0-0.1,0-0.2,0.1-0.3c1.1-0.8,2.5-1.1,3.9-0.9c1.1,0,2.1,0.5,2.8,1.4
                            C-194.6,395.2-194.3,396.5-194.5,397.9 M-194.5,389.5c-1.9-0.7-5.9-0.6-7.4,0.6c-0.2,0.2-0.2-0.2-0.2-0.2l0-8.2
                            c0-0.5-0.4-1.1-1.4-0.5c-1.1,0.6-1.9,1-2.5,1.4c-0.5,0.2-0.8,0.7-0.7,1.1v17.4c0,0.2,0.1,0.2,0.2,0.4c1.8,2.1,4.4,3.3,7.1,3.4
                            c3.3,0,4.8-0.3,6.7-1.9c1.6-1.3,3-3.1,3-6.8C-189.7,393.3-191.6,390.6-194.5,389.5"/>
                        <path id="Path_7" fill="#28B16D" d="M-182.4,393.8c0.7-0.7,1.6-1.1,2.5-1.2c1.3-0.2,2.6,0.1,3.7,0.7c0.2,0.1,0.2,0.3,0.2,0.4
                            l0,5.3c0,0.2,0,0.3-0.1,0.4c-0.1,0.3-0.3,0.5-0.5,0.7c-0.7,0.6-1.6,1-2.5,1.1c-1.1,0.2-2.2-0.1-3.1-0.8
                            c-0.9-0.7-1.3-1.7-1.3-2.8C-183.6,396.2-183.4,394.7-182.4,393.8 M-181.5,389.3c-3.8,0.6-6.6,3.7-6.8,7.4c-0.2,2.2,0.5,4.3,2,6
                            c1.6,1.7,4,2.6,6.3,2.3c1.5-0.1,3-0.7,3.9-1.9c0,0,0,0,0.1,0c0,0,0,0,0,0v0.4c0,0.6,0.5,1,1,1l2.5,0c0.6,0,1.1-0.5,1.1-1
                            l0.1-11c0-0.9-1.1-1.7-2.1-2.2C-175.9,389-178.8,388.6-181.5,389.3"/>
                        <path id="Path_8" fill="#28B16D" d="M-149,389.7h2.6c0.5,0,1,0.4,1,0.9l0,7.5c-0.1,1.7,1.3,3.1,3,3.2c0.1,0,0.2,0,0.3,0
                            c3.3,0,3.6-2,3.6-2l0-8.6c0-0.3,0.1-0.5,0.3-0.7c0.2-0.2,0.5-0.3,0.7-0.3h2.7c0.4,0,0.8,0.3,0.8,0.8c0,0,0,0,0,0v13.2
                            c0,0.5-0.4,0.9-0.9,0.9l-2.6,0c-0.2,0-0.5-0.1-0.6-0.3c-0.2-0.2-0.3-0.4-0.2-0.6l0-0.6c0,0,0-0.1,0-0.1c0,0-0.1,0-0.1,0
                            c-0.4,0.5-1.6,1.9-4.6,1.9c-3,0-5.9-1.4-6.7-5c-0.2-1-0.3-2-0.3-3v-6.2C-150.1,390.2-149.6,389.7-149,389.7"/>
                        <path id="Path_9" fill="#28B16D" d="M-157.4,403.7v-0.5c0-0.1-0.1-0.1-0.1,0c-0.4,0.5-1.4,1.8-4.5,1.8c-3,0-5.9-1.4-6.7-5
                            c-0.2-1-0.3-2-0.3-3v-6.2c0-0.6,0.5-1.1,1.1-1.1l0,0h2.6c0.5,0,1,0.4,1,0.9l0,7.5c-0.1,1.7,1.3,3.1,3,3.2c0.1,0,0.2,0,0.3,0
                            c3.3,0,3.6-2,3.6-2l0-8.6c0-0.3,0.1-0.5,0.3-0.7c0.2-0.2,0.5-0.3,0.7-0.3h2.7c0.4,0,0.8,0.3,0.8,0.8v15.7
                            c-0.1,1.8-1,3.4-2.3,4.6c-2.1,1.8-4.2,2-6.4,2.2c-1.9,0.1-3.9-0.6-5.3-1.8c-0.3-0.8-0.4-1.6-0.3-2.5c0-0.5,0.5-0.8,0.9-0.7
                            c0.1,0,0.2,0.1,0.3,0.1c1.2,0.8,2.7,1.3,4.2,1.3c3.1,0,3.8-1.7,4-2.4C-157.4,405.9-157.4,404.8-157.4,403.7"/>
                        <path id="Path_10" fill="#28B16D" d="M-126.8,384.4v5c0,0.1,0.1,0.3,0.3,0.3h6.5c0.6,0,1,0.4,1,1v1.4c0,0.6-0.5,1.1-1.1,1.1l0,0
                            h-6.4c-0.1,0-0.3,0.1-0.3,0.2v5.1c0.3,1.7,1.9,2.9,3.6,2.8c1.1,0.1,2.1-0.3,3-0.9c0.1-0.1,0.3-0.2,0.5-0.3
                            c0.2-0.1,0.4-0.1,0.6,0c0.1,0.1,0.2,0.2,0.2,0.3v2.5c0,0.2-0.1,0.3-0.2,0.4c-0.4,0.5-1.7,1.6-4.7,1.6c-2.1,0.1-4.2-0.7-5.7-2.2
                            c-1.2-1.1-1.8-2.6-1.9-4.2v-0.7l-0.1-11.5c0-0.3,0.2-0.6,0.5-0.8l2.7-1.7c0.3-0.2,0.6-0.2,0.9,0
                            C-127,383.8-126.8,384.1-126.8,384.4"/>
                    </g>
                </g>
            </g>
        </g>
    </g>
</svg>