<?xml version="1.0" encoding="utf-8"?>
<!-- Generator: Adobe Illustrator 24.1.2, SVG Export Plug-In . SVG Version: 6.00 Build 0)  -->
<svg version="1.1" id="Layer_1" xmlns="http://www.w3.org/2000/svg" xmlns:xlink="http://www.w3.org/1999/xlink" x="0px" y="0px"
	 viewBox="0 0 21.28 9.6" style="enable-background:new 0 0 21.28 9.6;" xml:space="preserve">
<style type="text/css">
	.st0{clip-path:url(#SVGID_2_);}
	.st1{fill:#222222;}
</style>
<g>
	<defs>
		<rect id="SVGID_1_" x="-5.37" y="0" width="32" height="9.6"/>
	</defs>
	<clipPath id="SVGID_2_">
		<use xlink:href="#SVGID_1_"  style="overflow:visible;"/>
	</clipPath>
	<g id="Building_Guides_AR" class="st0">
		<g id="Group_3618" transform="translate(33.948)">
			<path id="Path_2220" class="st1" d="M-24.67,9.6c-0.23,0.01-0.45-0.07-0.62-0.21c-0.16-0.15-0.24-0.35-0.24-0.57
				c0-0.13,0.03-0.25,0.08-0.37c0.06-0.11,0.14-0.22,0.23-0.3c0.12-0.1,0.25-0.19,0.4-0.25c0.21-0.09,0.43-0.17,0.66-0.23
				c-0.04-0.12-0.07-0.22-0.09-0.3c-0.03-0.13-0.09-0.24-0.18-0.33c-0.09-0.08-0.21-0.11-0.32-0.11c-0.2,0.01-0.39,0.07-0.56,0.17
				l-0.2-0.41c0.13-0.07,0.27-0.12,0.42-0.15c0.15-0.04,0.3-0.06,0.46-0.06c0.5,0,0.79,0.24,0.87,0.72
				c0.03,0.18,0.08,0.35,0.15,0.52c0.06,0.11,0.14,0.21,0.24,0.28l-0.29,0.37c-0.12-0.09-0.22-0.2-0.3-0.31
				c-0.22,0.05-0.43,0.12-0.64,0.21c-0.11,0.05-0.2,0.13-0.28,0.22c-0.07,0.09-0.1,0.19-0.1,0.3c0,0.1,0.04,0.19,0.12,0.26
				c0.09,0.07,0.19,0.1,0.3,0.1c0.19,0,0.37-0.03,0.55-0.08l0.06,0.41C-24.18,9.56-24.43,9.6-24.67,9.6z M-24.41,8.94
				c-0.07,0-0.14-0.02-0.18-0.07c-0.05-0.05-0.07-0.12-0.07-0.2c0-0.07,0.02-0.14,0.07-0.2c0.05-0.05,0.12-0.08,0.19-0.07
				c0.07,0,0.13,0.02,0.18,0.07c0.05,0.06,0.07,0.13,0.07,0.2c0,0.07-0.02,0.14-0.07,0.2C-24.27,8.92-24.34,8.95-24.41,8.94z
				 M-22.76,5.53h0.56v2.85h-0.56V5.53z M-20.02,7.93c0.01,0,0.02,0,0.02,0.01v0.42c0,0.01,0,0.02-0.01,0.02c0,0,0,0,0,0h-0.49v0.06
				c0.01,0.22-0.06,0.44-0.21,0.61c-0.15,0.15-0.36,0.24-0.57,0.23c-0.12,0-0.24-0.01-0.35-0.05c-0.12-0.04-0.23-0.09-0.34-0.16
				l0.23-0.36c0.05,0.04,0.11,0.06,0.17,0.09c0.06,0.02,0.12,0.03,0.18,0.02c0.09,0,0.18-0.04,0.24-0.11
				c0.06-0.08,0.1-0.18,0.09-0.29V6.52h0.56v1.41H-20.02z M-20.05,8.38c-0.01,0-0.02,0-0.02-0.01c0,0,0,0,0,0V7.94
				c0-0.01,0.01-0.01,0.02-0.01h0.47V6.52h0.56v1.86H-20.05z M-19.34,9.32c-0.07,0-0.14-0.02-0.18-0.07
				c-0.05-0.05-0.07-0.12-0.07-0.2c0-0.07,0.02-0.14,0.07-0.2c0.05-0.05,0.12-0.08,0.19-0.07c0.07,0,0.13,0.02,0.18,0.07
				c0.05,0.06,0.07,0.13,0.07,0.2c0,0.07-0.02,0.14-0.07,0.2C-19.2,9.29-19.27,9.32-19.34,9.32z M-18.54,7.93h0.68l-0.48-1.89h0.58
				l0.45,1.89h0.03c0.1,0.01,0.2-0.03,0.27-0.1c0.07-0.1,0.1-0.21,0.09-0.33V5.53h0.56v2.01c0.01,0.22-0.06,0.44-0.21,0.61
				c-0.15,0.16-0.36,0.24-0.58,0.23h-1.38V7.93z M-18.5,5.62l0.21-0.03c-0.05-0.02-0.09-0.06-0.12-0.1
				c-0.03-0.04-0.05-0.1-0.05-0.15c0-0.1,0.04-0.19,0.11-0.25c0.09-0.06,0.19-0.1,0.3-0.09c0.11,0,0.21,0.02,0.31,0.07l-0.08,0.19
				c-0.06-0.03-0.13-0.05-0.2-0.05c-0.05,0-0.09,0.02-0.13,0.05c-0.03,0.04-0.05,0.08-0.05,0.13c0,0.04,0.01,0.07,0.03,0.1
				c0.02,0.03,0.05,0.05,0.08,0.07l0.07-0.01c0.13-0.02,0.23-0.03,0.3-0.04v0.22c-0.09,0.01-0.24,0.02-0.44,0.05
				c-0.21,0.02-0.32,0.04-0.35,0.05L-18.5,5.62z M-15.65,5.53h0.56v2.85h-0.56L-15.65,5.53z M-13.68,9.28
				c-0.15,0-0.3-0.01-0.44-0.04c-0.13-0.03-0.25-0.07-0.36-0.14l0.22-0.41c0.09,0.05,0.19,0.09,0.29,0.11
				c0.09,0.02,0.19,0.03,0.28,0.03c0.12,0.01,0.24-0.03,0.33-0.12c0.08-0.09,0.12-0.2,0.12-0.32V8.38h-0.37
				c-0.23,0.01-0.45-0.07-0.62-0.23c-0.15-0.18-0.23-0.41-0.22-0.65c0-0.18,0.05-0.37,0.15-0.52c0.1-0.15,0.25-0.27,0.42-0.34
				c0.2-0.08,0.41-0.12,0.63-0.12h0.57v1.87c0.02,0.25-0.08,0.49-0.26,0.66C-13.15,9.21-13.41,9.3-13.68,9.28z M-13.25,7.93V6.97
				h-0.12c-0.14-0.01-0.27,0.04-0.37,0.14c-0.09,0.1-0.14,0.24-0.13,0.38c-0.01,0.12,0.02,0.24,0.09,0.33
				c0.07,0.08,0.18,0.11,0.28,0.11L-13.25,7.93z"/>
			<path id="Path_2221" class="st1" d="M-30.4,2.85c-0.12,0-0.23-0.02-0.34-0.06c-0.11-0.05-0.21-0.13-0.29-0.22
				c-0.03-0.03-0.09-0.11-0.19-0.25c-0.08-0.12-0.17-0.23-0.28-0.33c-0.05-0.05-0.12-0.08-0.19-0.08c-0.06,0.01-0.11,0.03-0.15,0.06
				c-0.06,0.04-0.11,0.09-0.15,0.14c-0.03,0.04-0.06,0.09-0.06,0.14c0,0.05,0.02,0.1,0.06,0.13c0.06,0.05,0.13,0.08,0.2,0.11
				c0.12,0.04,0.24,0.09,0.35,0.15c0.07,0.04,0.13,0.1,0.17,0.18c0.04,0.08,0.06,0.16,0.06,0.25c0.01,0.2-0.09,0.4-0.27,0.51
				c-0.24,0.13-0.52,0.19-0.8,0.17h-0.88c-0.14,0-0.27-0.04-0.38-0.11c-0.12-0.07-0.21-0.18-0.27-0.3c-0.07-0.14-0.1-0.29-0.1-0.44
				c0-0.25,0.04-0.49,0.12-0.73h0.49c-0.03,0.1-0.05,0.19-0.06,0.29c-0.01,0.12-0.02,0.23-0.02,0.35c0,0.09,0.02,0.17,0.06,0.24
				c0.04,0.07,0.1,0.13,0.17,0.18c0.06,0.04,0.14,0.06,0.21,0.06h0.64c0.14,0.01,0.28-0.01,0.41-0.05c0.07-0.02,0.11-0.08,0.11-0.15
				c0-0.04-0.02-0.09-0.06-0.11c-0.06-0.04-0.13-0.07-0.19-0.08c-0.16-0.03-0.31-0.1-0.43-0.21c-0.08-0.1-0.13-0.23-0.12-0.36
				c0.01-0.15,0.05-0.29,0.14-0.41c0.09-0.14,0.22-0.27,0.36-0.36c0.12-0.09,0.27-0.14,0.43-0.15c0.08,0,0.15,0.02,0.22,0.05
				c0.07,0.04,0.14,0.08,0.2,0.14c0.11,0.13,0.22,0.26,0.31,0.41c0.07,0.12,0.17,0.23,0.27,0.32c0.07,0.05,0.14,0.07,0.23,0.07h0.02
				c0.01,0,0.02,0,0.02,0.01v0.42c0,0.01-0.01,0.02-0.02,0.02L-30.4,2.85z M-32.85,4.68c-0.07,0-0.13-0.02-0.18-0.07
				c-0.05-0.05-0.07-0.12-0.07-0.2c0-0.07,0.02-0.14,0.07-0.2c0.05-0.05,0.11-0.08,0.18-0.07c0.07,0,0.13,0.02,0.18,0.07
				c0.05,0.06,0.07,0.13,0.07,0.2c0,0.07-0.02,0.14-0.07,0.2C-32.72,4.65-32.78,4.68-32.85,4.68L-32.85,4.68z M-32.22,4.68
				c-0.07,0-0.13-0.02-0.18-0.07c-0.05-0.05-0.07-0.12-0.07-0.2c0-0.07,0.02-0.14,0.07-0.2c0.05-0.05,0.11-0.08,0.18-0.07
				c0.07,0,0.13,0.02,0.18,0.07c0.05,0.06,0.07,0.13,0.07,0.2c0,0.07-0.02,0.14-0.07,0.2C-32.09,4.65-32.15,4.68-32.22,4.68
				L-32.22,4.68z M-30.42,2.85c-0.01,0-0.02,0-0.02-0.01c0,0,0,0,0,0V2.41c0-0.01,0.01-0.01,0.02-0.01h0.46V0.99h0.55v1.86H-30.42z
				 M-29.68,0.67c-0.07,0-0.14-0.02-0.18-0.07c-0.05-0.05-0.07-0.12-0.07-0.2c0-0.07,0.02-0.14,0.07-0.2
				c0.05-0.05,0.12-0.08,0.18-0.07c0.07,0,0.13,0.02,0.18,0.07c0.05,0.06,0.07,0.13,0.07,0.2c0,0.07-0.02,0.14-0.07,0.2
				C-29.55,0.65-29.61,0.67-29.68,0.67z M-27.69,2.4c0.01,0,0.02,0,0.02,0.01v0.42c0,0.01,0,0.02-0.01,0.02c0,0,0,0,0,0h-1.02V0
				h0.55v2.4H-27.69z M-26.23,2.4c0.01,0,0.02,0,0.02,0.01v0.42c0,0.01,0,0.02-0.01,0.02c0,0,0,0,0,0h-1.5c-0.01,0-0.02,0-0.02-0.01
				c0,0,0,0,0,0V2.41c0-0.01,0.01-0.01,0.02-0.01h0.46V0.99h0.55V2.4H-26.23z M-27,3.79c-0.07,0-0.14-0.02-0.18-0.07
				c-0.05-0.05-0.07-0.12-0.07-0.2c0-0.07,0.02-0.14,0.07-0.2c0.05-0.05,0.12-0.08,0.18-0.07c0.07,0,0.13,0.02,0.18,0.07
				c0.05,0.06,0.07,0.13,0.07,0.2c0,0.07-0.02,0.14-0.07,0.2C-26.87,3.76-26.94,3.79-27,3.79L-27,3.79z M-25.85,2.4
				c-0.07-0.16-0.1-0.34-0.1-0.52c0-0.12,0.02-0.24,0.05-0.35c0.03-0.11,0.08-0.22,0.13-0.32c0.12-0.07,0.25-0.12,0.38-0.16
				c0.12-0.03,0.23-0.05,0.35-0.05c0.16,0,0.32,0.04,0.46,0.11c0.14,0.07,0.25,0.18,0.32,0.31c0.08,0.14,0.12,0.3,0.11,0.47
				c0,0.13-0.02,0.26-0.07,0.39c0.04,0.05,0.09,0.08,0.15,0.1c0.07,0.02,0.14,0.03,0.22,0.03h0.02c0.01,0,0.02,0,0.02,0.01v0.42
				c0,0.01,0,0.02-0.01,0.02c0,0,0,0,0,0h-0.02c-0.12,0-0.23-0.02-0.34-0.06c-0.1-0.04-0.2-0.11-0.27-0.2
				c-0.09,0.08-0.21,0.15-0.32,0.19c-0.12,0.04-0.25,0.06-0.38,0.06h-1.13c-0.01,0-0.02,0-0.02-0.01c0,0,0,0,0,0V2.41
				c0-0.01,0.01-0.01,0.02-0.01L-25.85,2.4z M-25.44,1.96c0,0.15,0.03,0.3,0.08,0.44h0.14c0.14,0,0.28-0.05,0.38-0.15
				c0.1-0.1,0.15-0.23,0.15-0.37c0.01-0.11-0.03-0.23-0.1-0.32c-0.06-0.08-0.16-0.12-0.26-0.12c-0.12,0-0.24,0.04-0.35,0.1
				C-25.42,1.68-25.44,1.82-25.44,1.96z M-23.84,2.85c-0.01,0-0.02,0-0.02-0.01c0,0,0,0,0,0V2.41c0-0.01,0.01-0.01,0.02-0.01h0.46V0
				h0.55v2.85L-23.84,2.85z M-22.08,0h0.55v2.85h-0.55L-22.08,0z M-19.39,3.75c-0.19,0-0.37-0.04-0.54-0.13
				c-0.15-0.09-0.27-0.21-0.35-0.37c-0.08-0.17-0.12-0.36-0.12-0.55c0-0.15,0.02-0.29,0.05-0.43c0.03-0.14,0.08-0.27,0.14-0.4h0.49
				c-0.04,0.14-0.07,0.28-0.09,0.42c-0.02,0.14-0.03,0.27-0.03,0.41c-0.01,0.16,0.04,0.31,0.14,0.43c0.09,0.11,0.22,0.17,0.36,0.16
				h0.11c0.16,0.01,0.31-0.04,0.42-0.16c0.1-0.13,0.14-0.28,0.14-0.44V0h0.55v2.4h0.48c0.01,0,0.02,0,0.02,0.01v0.42
				c0,0.01,0,0.02-0.01,0.02c0,0,0,0,0,0h-0.49c-0.04,0.6-0.41,0.9-1.09,0.9L-19.39,3.75z M-17.69,2.85c-0.01,0-0.02,0-0.02-0.01
				c0,0,0,0,0,0V2.41c0-0.01,0.01-0.01,0.02-0.01h0.57V0.99h0.55V2.4H-16c0.01,0,0.02,0,0.02,0.01v0.42c0,0.01,0,0.02-0.01,0.02
				c0,0,0,0,0,0L-17.69,2.85z M-17.19,3.79c-0.07,0-0.13-0.02-0.18-0.07c-0.05-0.05-0.07-0.12-0.07-0.2c0-0.07,0.02-0.14,0.07-0.2
				c0.05-0.05,0.11-0.08,0.18-0.07c0.07,0,0.13,0.02,0.18,0.07c0.05,0.06,0.07,0.13,0.07,0.2c0,0.07-0.02,0.14-0.07,0.2
				C-17.06,3.76-17.12,3.79-17.19,3.79L-17.19,3.79z M-16.56,3.79c-0.07,0-0.13-0.02-0.18-0.07c-0.05-0.05-0.07-0.12-0.07-0.2
				c0-0.07,0.02-0.14,0.07-0.2c0.05-0.05,0.11-0.08,0.18-0.07c0.07,0,0.13,0.02,0.18,0.07c0.05,0.06,0.07,0.13,0.07,0.2
				c0,0.07-0.02,0.14-0.07,0.2C-16.43,3.76-16.49,3.79-16.56,3.79L-16.56,3.79z M-16.04,2.85c-0.01,0-0.02,0-0.02-0.01c0,0,0,0,0,0
				V2.41c0-0.01,0.01-0.01,0.02-0.01h0.46V0h0.55v2.85H-16.04z M-14.48,2.4h1.24c-0.04-0.19-0.1-0.38-0.19-0.56
				c-0.07-0.14-0.16-0.26-0.28-0.37c-0.12-0.11-0.26-0.2-0.41-0.26l0.21-0.53c0.32,0.13,0.6,0.34,0.8,0.62
				c0.22,0.33,0.37,0.71,0.43,1.1v0.44h-1.8L-14.48,2.4z"/>
			<path id="np_dubai_134339_000000" class="st1" d="M-26.89,8.57h-1.79V8.09h1.69c-0.05-0.21-0.12-0.41-0.2-0.62h-1.49V7h1.26
				c-0.28-0.51-0.73-0.92-1.26-1.15V5.36h-0.48v1.06h-0.65V6.9h0.65v2.59h2.36C-26.82,9.18-26.85,8.88-26.89,8.57z"/>
		</g>
	</g>
</g>
</svg>
