<svg id="Group_3606" data-name="Group 3606" xmlns="http://www.w3.org/2000/svg" width="163.464" height="74.008" viewBox="0 0 163.464 74.008">
  <path id="Path_2220" data-name="Path 2220" d="M3.424,17.113a6.772,6.772,0,0,1-4.73-1.628A5.555,5.555,0,0,1-3.1,11.16a6.351,6.351,0,0,1,.608-2.788A7.22,7.22,0,0,1-.719,6.08,13.044,13.044,0,0,1,2.32,4.165a31.114,31.114,0,0,1,5-1.74q-.447-1.356-.7-2.32A4.888,4.888,0,0,0,5.262-2.41,3.579,3.579,0,0,0,2.8-3.234,9.069,9.069,0,0,0-1.467-1.92L-2.99-5.079A13.741,13.741,0,0,1,.2-6.239,14.934,14.934,0,0,1,3.69-6.672q5.688,0,6.638,5.52A15.111,15.111,0,0,0,11.467,2.81,6.266,6.266,0,0,0,13.3,4.969l-2.18,2.809a11.729,11.729,0,0,1-2.32-2.4A26.537,26.537,0,0,0,3.955,6.96,6.144,6.144,0,0,0,1.817,8.623a3.645,3.645,0,0,0-.741,2.3,2.412,2.412,0,0,0,.9,1.949,3.5,3.5,0,0,0,2.313.748,16.69,16.69,0,0,0,4.206-.6l.475,3.116A16.629,16.629,0,0,1,3.424,17.113ZM5.465,12.1a1.84,1.84,0,0,1-1.411-.552,2.11,2.11,0,0,1-.517-1.5,2.148,2.148,0,0,1,.51-1.516,1.835,1.835,0,0,1,1.418-.552,1.8,1.8,0,0,1,1.376.545,2.143,2.143,0,0,1,.51,1.523,2.093,2.093,0,0,1-.524,1.5A1.794,1.794,0,0,1,5.465,12.1ZM18.028-13.966H22.29V7.778H18.028ZM38.975,4.34q.14,0,.14.112V7.638a.124.124,0,0,1-.14.14H35.258v.461A6.561,6.561,0,0,1,33.63,12.92a5.689,5.689,0,0,1-4.353,1.733,9.769,9.769,0,0,1-2.69-.349,9.282,9.282,0,0,1-2.578-1.258l1.719-2.781a5.911,5.911,0,0,0,1.335.657,4.683,4.683,0,0,0,1.39.182A2.246,2.246,0,0,0,30.3,10.23a3.412,3.412,0,0,0,.7-2.2V-6.392h4.262V4.34ZM38.7,7.778a.124.124,0,0,1-.14-.14V4.452q0-.112.14-.112h3.577V-6.392h4.262V7.778Zm5.464,7.155a1.84,1.84,0,0,1-1.411-.552,2.11,2.11,0,0,1-.517-1.5,2.148,2.148,0,0,1,.51-1.516,1.835,1.835,0,0,1,1.418-.552,1.8,1.8,0,0,1,1.376.545,2.143,2.143,0,0,1,.51,1.523,2.093,2.093,0,0,1-.524,1.5A1.794,1.794,0,0,1,44.16,14.933ZM50.253,4.34h5.184L51.748-10.109h4.458L59.615,4.34h.2A2.58,2.58,0,0,0,61.9,3.55a3.893,3.893,0,0,0,.664-2.522V-13.966h4.262V1.364a6.606,6.606,0,0,1-1.614,4.667,5.76,5.76,0,0,1-4.451,1.747H50.253Zm.279-17.58,1.635-.266a2.526,2.526,0,0,1-.922-.776,1.921,1.921,0,0,1-.363-1.167,2.318,2.318,0,0,1,.852-1.914,3.555,3.555,0,0,1,2.292-.685,4.81,4.81,0,0,1,2.348.517L55.8-16.076a3.421,3.421,0,0,0-1.551-.363,1.37,1.37,0,0,0-.992.363,1.331,1.331,0,0,0-.377,1.006,1.268,1.268,0,0,0,.252.783,1.6,1.6,0,0,0,.615.5l.5-.084q1.453-.224,2.32-.293V-12.5q-1.02.07-3.375.349t-2.662.363Zm21.73-.727h4.262V7.778H72.262ZM87.34,14.653a16.412,16.412,0,0,1-3.361-.3,8.93,8.93,0,0,1-2.732-1.083l1.663-3.116A9.631,9.631,0,0,0,85.1,11a9.321,9.321,0,0,0,2.152.245,3.368,3.368,0,0,0,2.5-.887,3.31,3.31,0,0,0,.88-2.439v-.14H87.8a6.192,6.192,0,0,1-4.709-1.733,6.877,6.877,0,0,1-1.649-4.933,7.041,7.041,0,0,1,1.132-3.976,7.188,7.188,0,0,1,3.2-2.62,11.789,11.789,0,0,1,4.779-.908H94.9V7.862a6.388,6.388,0,0,1-1.977,5.024A8.093,8.093,0,0,1,87.34,14.653Zm3.3-10.313V-2.955h-.922A3.848,3.848,0,0,0,86.858-1.92,3.965,3.965,0,0,0,85.831,1a3.815,3.815,0,0,0,.7,2.529,2.671,2.671,0,0,0,2.138.811Z" transform="translate(68.524 56.896)" fill="#fff"/>
  <path id="Path_2221" data-name="Path 2221" d="M106.08,6.549a7.06,7.06,0,0,1-2.62-.433,6.577,6.577,0,0,1-2.243-1.663q-.307-.321-1.453-1.928A14.668,14.668,0,0,0,97.64,0a2.337,2.337,0,0,0-1.453-.636,2.236,2.236,0,0,0-1.16.475,4.928,4.928,0,0,0-1.174,1.1,1.918,1.918,0,0,0-.475,1.076,1.316,1.316,0,0,0,.5,1.02,4.738,4.738,0,0,0,1.572.8,12.906,12.906,0,0,1,2.7,1.174,3.794,3.794,0,0,1,1.314,1.356A3.811,3.811,0,0,1,99.9,8.24,4.316,4.316,0,0,1,97.856,12.1q-2.047,1.328-6.17,1.328h-6.75a5.467,5.467,0,0,1-2.963-.831,5.57,5.57,0,0,1-2.061-2.327A7.545,7.545,0,0,1,79.18,6.9,17.239,17.239,0,0,1,80.1,1.364h3.8a12.45,12.45,0,0,0-.482,2.25A24.582,24.582,0,0,0,83.3,6.269a3.775,3.775,0,0,0,.482,1.852A3.662,3.662,0,0,0,85.063,9.49a3.078,3.078,0,0,0,1.649.5h4.947a9.531,9.531,0,0,0,3.165-.349,1.2,1.2,0,0,0,.845-1.174,1.006,1.006,0,0,0-.468-.831,4.736,4.736,0,0,0-1.5-.622,6.823,6.823,0,0,1-3.34-1.635,3.914,3.914,0,0,1-.936-2.753A5.736,5.736,0,0,1,90.506-.515a9.617,9.617,0,0,1,2.8-2.767,6.053,6.053,0,0,1,3.3-1.125,4.065,4.065,0,0,1,1.7.356,5.354,5.354,0,0,1,1.516,1.076,25.922,25.922,0,0,1,2.4,3.1,10.253,10.253,0,0,0,2.117,2.439,3.012,3.012,0,0,0,1.74.552h.14q.154,0,.154.112V6.409q0,.14-.154.14ZM87.159,20.5a1.823,1.823,0,0,1-1.4-.552,2.11,2.11,0,0,1-.517-1.5,2.148,2.148,0,0,1,.51-1.516,1.818,1.818,0,0,1,1.4-.552,1.79,1.79,0,0,1,1.383.545,2.161,2.161,0,0,1,.5,1.523,2.1,2.1,0,0,1-.517,1.516A1.812,1.812,0,0,1,87.159,20.5Zm4.863,0a1.823,1.823,0,0,1-1.4-.552,2.11,2.11,0,0,1-.517-1.5,2.148,2.148,0,0,1,.51-1.516,1.818,1.818,0,0,1,1.4-.552,1.8,1.8,0,0,1,1.4.552,2.167,2.167,0,0,1,.5,1.516,2.093,2.093,0,0,1-.524,1.5A1.811,1.811,0,0,1,92.022,20.5ZM105.941,6.549a.124.124,0,0,1-.14-.14V3.223q0-.112.14-.112h3.577V-7.621h4.262V6.549Zm5.674-16.629a1.84,1.84,0,0,1-1.411-.552,2.11,2.11,0,0,1-.517-1.5,2.148,2.148,0,0,1,.51-1.516,1.835,1.835,0,0,1,1.418-.552,1.8,1.8,0,0,1,1.376.545,2.143,2.143,0,0,1,.51,1.523,2.093,2.093,0,0,1-.524,1.5A1.794,1.794,0,0,1,111.614-10.081Zm15.3,13.192q.14,0,.14.112V6.409a.124.124,0,0,1-.14.14h-7.84V-15.2h4.262V3.111Zm11.277,0q.14,0,.14.112V6.409a.124.124,0,0,1-.14.14H126.637a.124.124,0,0,1-.14-.14V3.223q0-.112.14-.112h3.577V-7.621h4.262V3.111ZM132.254,13.7a1.84,1.84,0,0,1-1.411-.552,2.11,2.11,0,0,1-.517-1.5,2.148,2.148,0,0,1,.51-1.516,1.835,1.835,0,0,1,1.418-.552,1.8,1.8,0,0,1,1.376.545,2.143,2.143,0,0,1,.51,1.523,2.093,2.093,0,0,1-.524,1.5A1.794,1.794,0,0,1,132.254,13.7Zm8.888-10.593a9.751,9.751,0,0,1-.769-3.941,9.629,9.629,0,0,1,.419-2.683,10.679,10.679,0,0,1,1.034-2.473A12.245,12.245,0,0,1,144.768-7.2a10.7,10.7,0,0,1,2.732-.419,7.544,7.544,0,0,1,3.556.838,6.022,6.022,0,0,1,2.48,2.369,7.005,7.005,0,0,1,.88,3.556,8.157,8.157,0,0,1-.531,2.949,2.888,2.888,0,0,0,1.181.79,5.154,5.154,0,0,0,1.67.231h.154q.14,0,.14.112V6.409a.124.124,0,0,1-.14.14h-.154a7.3,7.3,0,0,1-2.62-.426,5.706,5.706,0,0,1-2.1-1.488,7.411,7.411,0,0,1-2.5,1.432,8.931,8.931,0,0,1-2.907.482h-8.692a.124.124,0,0,1-.14-.14V3.223q0-.112.14-.112Zm3.186-3.34a10.332,10.332,0,0,0,.657,3.34h1.076a3.949,3.949,0,0,0,2.9-1.16,3.814,3.814,0,0,0,1.167-2.809,3.7,3.7,0,0,0-.741-2.425,2.422,2.422,0,0,0-1.97-.9,5.351,5.351,0,0,0-2.669.8A11.747,11.747,0,0,0,144.328-.229ZM156.6,6.549a.124.124,0,0,1-.14-.14V3.223q0-.112.14-.112h3.577V-15.2h4.262V6.549ZM170.167-15.2h4.262V6.549h-4.262Zm20.771,28.619a8.263,8.263,0,0,1-4.157-1.006,6.672,6.672,0,0,1-2.7-2.83,9.092,9.092,0,0,1-.929-4.185,14.572,14.572,0,0,1,.391-3.3,13.211,13.211,0,0,1,1.076-3.025h3.773a26.05,26.05,0,0,0-.713,3.221,20.217,20.217,0,0,0-.266,3.137,4.964,4.964,0,0,0,1.048,3.319,3.448,3.448,0,0,0,2.767,1.237h.852a4.087,4.087,0,0,0,3.249-1.195,4.954,4.954,0,0,0,1.041-3.361V-15.2h4.262V3.111h3.731q.14,0,.14.112V6.409a.124.124,0,0,1-.14.14h-3.759q-.517,6.875-8.413,6.875Zm13.136-6.875a.124.124,0,0,1-.14-.14V3.223q0-.112.14-.112h4.43V-7.621h4.262V3.111h4.3q.14,0,.14.112V6.409a.124.124,0,0,1-.14.14ZM207.9,13.7a1.823,1.823,0,0,1-1.4-.552,2.11,2.11,0,0,1-.517-1.5,2.148,2.148,0,0,1,.51-1.516,1.818,1.818,0,0,1,1.4-.552,1.79,1.79,0,0,1,1.383.545,2.162,2.162,0,0,1,.5,1.523,2.1,2.1,0,0,1-.517,1.516A1.812,1.812,0,0,1,207.9,13.7Zm4.863,0a1.823,1.823,0,0,1-1.4-.552,2.11,2.11,0,0,1-.517-1.5,2.148,2.148,0,0,1,.51-1.516,1.818,1.818,0,0,1,1.4-.552,1.8,1.8,0,0,1,1.4.552,2.167,2.167,0,0,1,.5,1.516,2.093,2.093,0,0,1-.524,1.5A1.81,1.81,0,0,1,212.766,13.7Zm4.011-7.155a.124.124,0,0,1-.14-.14V3.223q0-.112.14-.112h3.577V-15.2h4.262V6.549Zm11.99-3.438h9.558a17.772,17.772,0,0,0-1.432-4.269,9.89,9.89,0,0,0-2.152-2.809,10.99,10.99,0,0,0-3.193-1.963l1.607-4.011A13.673,13.673,0,0,1,239.3-5.2a21.4,21.4,0,0,1,3.347,8.42V6.549H228.767Z" transform="translate(-79.18 15.195)" fill="#fff"/>
  <path id="np_dubai_134339_000000" d="M36.477,25.291H22.822V21.639h12.9a43.523,43.523,0,0,0-1.5-4.7h-11.4V13.286h9.654a19.762,19.762,0,0,0-9.654-8.754V.781H19.171v8.1H14.219v3.651h4.952V32.293H37.178a67.611,67.611,0,0,0-.7-7Z" transform="translate(17.252 40.869)" fill="#fff"/>
</svg>
