<svg xmlns="http://www.w3.org/2000/svg" width="89.004" height="36.385" viewBox="0 0 89.004 36.385">
  <g id="Group_3607" data-name="Group 3607" transform="translate(-0.638 -4.777)">
    <path id="Path_2225" data-name="Path 2225" d="M6.517-1.463a4.525,4.525,0,0,0,1.359-.181,2.521,2.521,0,0,0,.936-.508,1.971,1.971,0,0,0,.537-.779,2.781,2.781,0,0,0,.171-.993,2.038,2.038,0,0,0-.751-1.667A3.5,3.5,0,0,0,6.517-6.2H3.572v4.74ZM3.572-12.16v4.645H6a4.772,4.772,0,0,0,1.354-.171,2.727,2.727,0,0,0,.95-.475A1.857,1.857,0,0,0,8.864-8.9a2.429,2.429,0,0,0,.181-.945A2.083,2.083,0,0,0,8.322-11.6,3.672,3.672,0,0,0,6.08-12.16ZM6.08-13.613a8.3,8.3,0,0,1,2.161.247,4.186,4.186,0,0,1,1.491.7,2.734,2.734,0,0,1,.86,1.116,3.828,3.828,0,0,1,.276,1.487,2.973,2.973,0,0,1-.157.964,2.893,2.893,0,0,1-.47.86,3.354,3.354,0,0,1-.793.717A4.344,4.344,0,0,1,8.322-7a4.111,4.111,0,0,1,2.256,1.069,2.84,2.84,0,0,1,.755,2.057A3.824,3.824,0,0,1,11.015-2.3a3.379,3.379,0,0,1-.931,1.225A4.338,4.338,0,0,1,8.578-.28,6.785,6.785,0,0,1,6.546,0H1.738V-13.613Zm13.2,12.15a3.8,3.8,0,0,0,1.51-.285,3.168,3.168,0,0,0,1.126-.8,3.49,3.49,0,0,0,.7-1.226,4.844,4.844,0,0,0,.242-1.567v-8.274H24.69v8.274a6.209,6.209,0,0,1-.375,2.185,5.077,5.077,0,0,1-1.074,1.743A4.909,4.909,0,0,1,21.536-.257a5.847,5.847,0,0,1-2.261.418,5.847,5.847,0,0,1-2.261-.418A4.958,4.958,0,0,1,15.3-1.411a5.04,5.04,0,0,1-1.078-1.743,6.209,6.209,0,0,1-.375-2.185v-8.274h1.833v8.265a4.844,4.844,0,0,0,.242,1.568,3.49,3.49,0,0,0,.7,1.226,3.209,3.209,0,0,0,1.131.8A3.781,3.781,0,0,0,19.275-1.463ZM29.84,0H28V-13.613H29.84Zm11.2-1.549V0H33.316V-13.613H35.15V-1.549ZM54.872-6.8a7.666,7.666,0,0,1-.485,2.784A6.173,6.173,0,0,1,53.02-1.872,6.09,6.09,0,0,1,50.9-.489,7.405,7.405,0,0,1,48.155,0H43.073V-13.613h5.083a7.405,7.405,0,0,1,2.741.489,6.057,6.057,0,0,1,2.123,1.387,6.223,6.223,0,0,1,1.368,2.152A7.666,7.666,0,0,1,54.872-6.8Zm-1.89,0a6.833,6.833,0,0,0-.342-2.242,4.725,4.725,0,0,0-.969-1.672,4.133,4.133,0,0,0-1.52-1.045,5.28,5.28,0,0,0-1.995-.361H44.916v10.63h3.239a5.28,5.28,0,0,0,1.995-.361,4.16,4.16,0,0,0,1.52-1.04,4.676,4.676,0,0,0,.969-1.667A6.833,6.833,0,0,0,52.981-6.8ZM59.366,0H57.522V-13.613h1.843ZM73.872-13.613V0h-.922a.792.792,0,0,1-.366-.076.924.924,0,0,1-.29-.257L64.42-10.592q.019.237.028.465t.009.427V0H62.842V-13.613h.95A1.3,1.3,0,0,1,64-13.6a.535.535,0,0,1,.152.048.577.577,0,0,1,.133.095,1.457,1.457,0,0,1,.143.157L72.3-3.049q-.019-.247-.033-.48t-.014-.442v-9.642ZM88.407-6.546v5.225a7.63,7.63,0,0,1-2.19,1.107,8.472,8.472,0,0,1-2.551.366A8.2,8.2,0,0,1,80.7-.356a6.53,6.53,0,0,1-2.256-1.425,6.216,6.216,0,0,1-1.439-2.2A7.657,7.657,0,0,1,76.5-6.8a7.912,7.912,0,0,1,.489-2.84,6.283,6.283,0,0,1,1.392-2.2,6.184,6.184,0,0,1,2.194-1.42,7.9,7.9,0,0,1,2.888-.5,8.9,8.9,0,0,1,1.5.119,6.9,6.9,0,0,1,1.283.342,6.054,6.054,0,0,1,1.092.542,6.7,6.7,0,0,1,.94.717l-.522.836a.542.542,0,0,1-.318.242.554.554,0,0,1-.432-.09q-.228-.133-.522-.323a4.556,4.556,0,0,0-.717-.366,5.775,5.775,0,0,0-1-.3,6.567,6.567,0,0,0-1.363-.123,5.52,5.52,0,0,0-2.08.375,4.4,4.4,0,0,0-1.587,1.074A4.751,4.751,0,0,0,78.736-9.03,6.644,6.644,0,0,0,78.384-6.8a6.72,6.72,0,0,0,.366,2.294A4.8,4.8,0,0,0,79.8-2.788,4.454,4.454,0,0,0,81.443-1.71a6.052,6.052,0,0,0,2.175.37,6.058,6.058,0,0,0,1.686-.214,7.305,7.305,0,0,0,1.439-.594V-5.14H84.626a.4.4,0,0,1-.29-.1.341.341,0,0,1-.109-.256V-6.546ZM8.151,12.979h4.731V18.67A7.376,7.376,0,0,1,10.635,19.8a8.765,8.765,0,0,1-2.522.356,8.552,8.552,0,0,1-3.078-.527,6.925,6.925,0,0,1-2.356-1.468,6.48,6.48,0,0,1-1.511-2.233A7.339,7.339,0,0,1,.637,13.1a7.7,7.7,0,0,1,.508-2.84A6.364,6.364,0,0,1,2.594,8.04,6.616,6.616,0,0,1,4.869,6.586a8.137,8.137,0,0,1,2.988-.523,8.736,8.736,0,0,1,1.6.138,7.692,7.692,0,0,1,1.368.38,6.461,6.461,0,0,1,2.1,1.306L12.094,9.16a.769.769,0,0,1-.494.371.9.9,0,0,1-.665-.152q-.342-.209-.67-.375a5.12,5.12,0,0,0-.7-.29,4.87,4.87,0,0,0-.807-.19,6.761,6.761,0,0,0-1.007-.067,4.386,4.386,0,0,0-1.738.333,3.719,3.719,0,0,0-1.325.94,4.21,4.21,0,0,0-.841,1.463A5.837,5.837,0,0,0,3.553,13.1a6,6,0,0,0,.323,2.038,4.242,4.242,0,0,0,.912,1.515A3.888,3.888,0,0,0,6.2,17.6a4.961,4.961,0,0,0,1.829.323,4.925,4.925,0,0,0,1.221-.138,6.109,6.109,0,0,0,1.05-.375V15.089H8.74a.606.606,0,0,1-.432-.147.492.492,0,0,1-.157-.375Zm12.7,4.74a3.171,3.171,0,0,0,1.244-.233,2.559,2.559,0,0,0,.931-.66,2.894,2.894,0,0,0,.58-1.035,4.376,4.376,0,0,0,.2-1.368V6.215h2.85v8.208a6.367,6.367,0,0,1-.4,2.3,5.2,5.2,0,0,1-1.154,1.81,5.262,5.262,0,0,1-1.824,1.188,7.091,7.091,0,0,1-4.85,0A5.253,5.253,0,0,1,16.6,18.537a5.2,5.2,0,0,1-1.154-1.81,6.367,6.367,0,0,1-.4-2.3V6.215h2.85v8.208a4.376,4.376,0,0,0,.2,1.368,2.894,2.894,0,0,0,.579,1.035,2.559,2.559,0,0,0,.931.66A3.2,3.2,0,0,0,20.853,17.72ZM32.243,20H29.374V6.215h2.869Zm15.248-6.9a7.4,7.4,0,0,1-.508,2.779,6.316,6.316,0,0,1-1.434,2.18,6.561,6.561,0,0,1-2.228,1.425A7.813,7.813,0,0,1,40.432,20h-5.3V6.215h5.3a7.813,7.813,0,0,1,2.888.513,6.524,6.524,0,0,1,2.228,1.43,6.376,6.376,0,0,1,1.434,2.18A7.341,7.341,0,0,1,47.491,13.1Zm-2.926,0a6.2,6.2,0,0,0-.285-1.947,4.1,4.1,0,0,0-.817-1.463,3.565,3.565,0,0,0-1.3-.921,4.419,4.419,0,0,0-1.734-.323H38v9.319h2.432a4.477,4.477,0,0,0,1.734-.318,3.492,3.492,0,0,0,1.3-.921,4.154,4.154,0,0,0,.817-1.468A6.236,6.236,0,0,0,44.564,13.1Zm7.895-4.655v3.543h4.6v2.157h-4.6v3.619h5.909V20H49.59V6.215h8.778V8.448Zm15.5.409a1.082,1.082,0,0,1-.271.318.593.593,0,0,1-.356.1.879.879,0,0,1-.451-.147q-.242-.147-.565-.318a5.477,5.477,0,0,0-.741-.318,2.945,2.945,0,0,0-.979-.147,2.164,2.164,0,0,0-1.482.442,1.475,1.475,0,0,0-.494,1.154,1.083,1.083,0,0,0,.271.755,2.353,2.353,0,0,0,.712.518,6.621,6.621,0,0,0,1,.39q.56.171,1.149.375a10.119,10.119,0,0,1,1.15.48,4.043,4.043,0,0,1,1,.693,3.178,3.178,0,0,1,.712,1.021,3.573,3.573,0,0,1,.271,1.468,4.713,4.713,0,0,1-.328,1.762,4.179,4.179,0,0,1-.945,1.434A4.375,4.375,0,0,1,66.1,19.8a5.659,5.659,0,0,1-2.057.351,6.508,6.508,0,0,1-1.306-.133,7.534,7.534,0,0,1-1.254-.37,6.918,6.918,0,0,1-1.135-.57,4.99,4.99,0,0,1-.931-.741l.836-1.349a.845.845,0,0,1,.276-.252.706.706,0,0,1,.361-.1.985.985,0,0,1,.542.19q.285.19.655.418a5.306,5.306,0,0,0,.86.418,3.242,3.242,0,0,0,1.173.19,2.344,2.344,0,0,0,1.544-.456,1.669,1.669,0,0,0,.546-1.358,1.272,1.272,0,0,0-.271-.845,2.178,2.178,0,0,0-.708-.542,5.609,5.609,0,0,0-1-.375q-.561-.157-1.15-.347a9.433,9.433,0,0,1-1.15-.456,3.557,3.557,0,0,1-1-.7,3.33,3.33,0,0,1-.708-1.083,4.167,4.167,0,0,1-.271-1.606,3.815,3.815,0,0,1,1.2-2.774,4.469,4.469,0,0,1,1.449-.9,5.3,5.3,0,0,1,1.971-.342,6.7,6.7,0,0,1,2.3.385,5.166,5.166,0,0,1,1.791,1.069Z" transform="translate(0.002 18.542)" fill="#fff"/>
    <path id="np_dubai_134339_000000" d="M26.477,14.28H18.957V12.269h7.107a23.97,23.97,0,0,0-.826-2.59H18.957V7.668h5.317a10.883,10.883,0,0,0-5.317-4.821V.781H16.946V5.244H14.219V7.255h2.727V18.136h9.917a37.236,37.236,0,0,0-.386-3.857Z" transform="translate(62.779 23.026)" fill="#fff"/>
  </g>
</svg>
