<?xml version="1.0" encoding="utf-8"?>
<!-- Generator: Adobe Illustrator 24.1.2, SVG Export Plug-In . SVG Version: 6.00 Build 0)  -->
<svg version="1.1" id="Layer_1" xmlns="http://www.w3.org/2000/svg" xmlns:xlink="http://www.w3.org/1999/xlink" x="0px" y="0px"
	 viewBox="0 0 24.43 9.61" style="enable-background:new 0 0 24.43 9.61;" xml:space="preserve">
<style type="text/css">
	.st0{clip-path:url(#SVGID_2_);}
	.st1{fill:#222222;}
</style>
<g>
	<defs>
		<rect id="SVGID_1_" x="-3.83" width="31.96" height="9.59"/>
	</defs>
	<clipPath id="SVGID_2_">
		<use xlink:href="#SVGID_1_"  style="overflow:visible;"/>
	</clipPath>
	<g id="Building_Guides" class="st0">
		<g id="Group_3607" transform="translate(23.486 -4.777)">
			<path id="Path_2225" class="st1" d="M-21.83,8.21c0.13,0,0.25-0.01,0.38-0.05c0.1-0.03,0.18-0.08,0.26-0.14
				c0.07-0.06,0.12-0.13,0.15-0.22c0.03-0.09,0.05-0.18,0.05-0.28c0.01-0.18-0.07-0.35-0.21-0.46c-0.18-0.13-0.4-0.19-0.63-0.17
				h-0.82v1.32H-21.83z M-22.65,5.22v1.3h0.68c0.13,0,0.25-0.01,0.38-0.05c0.1-0.03,0.19-0.07,0.26-0.13
				c0.07-0.05,0.12-0.13,0.15-0.21c0.03-0.08,0.05-0.17,0.05-0.26c0.02-0.19-0.06-0.37-0.2-0.49c-0.19-0.12-0.4-0.17-0.62-0.16
				L-22.65,5.22z M-21.95,4.82c0.2,0,0.4,0.02,0.6,0.07c0.15,0.04,0.29,0.1,0.41,0.2c0.11,0.08,0.19,0.19,0.24,0.31
				c0.05,0.13,0.08,0.27,0.08,0.42c0,0.09-0.01,0.18-0.04,0.27c-0.03,0.09-0.07,0.17-0.13,0.24c-0.06,0.08-0.14,0.15-0.22,0.2
				c-0.1,0.06-0.2,0.11-0.31,0.14c0.23,0.03,0.45,0.14,0.63,0.3c0.14,0.16,0.22,0.36,0.21,0.57c0,0.15-0.03,0.3-0.09,0.44
				c-0.06,0.13-0.15,0.25-0.26,0.34c-0.12,0.1-0.27,0.18-0.42,0.22c-0.18,0.05-0.37,0.08-0.56,0.08h-1.33v-3.8H-21.95z M-18.29,8.21
				c0.14,0,0.29-0.02,0.42-0.08c0.12-0.05,0.23-0.13,0.31-0.22c0.09-0.1,0.15-0.22,0.2-0.34c0.05-0.14,0.07-0.29,0.07-0.44V4.82
				h0.51v2.31c0,0.21-0.03,0.41-0.1,0.61c-0.07,0.18-0.17,0.35-0.3,0.49c-0.13,0.14-0.29,0.25-0.47,0.32c-0.4,0.16-0.85,0.16-1.26,0
				c-0.18-0.07-0.34-0.18-0.47-0.32c-0.13-0.14-0.23-0.31-0.3-0.49c-0.07-0.2-0.11-0.4-0.1-0.61V4.82h0.51v2.31
				c0,0.15,0.02,0.3,0.07,0.44c0.04,0.13,0.11,0.24,0.2,0.34c0.09,0.1,0.19,0.17,0.31,0.22C-18.57,8.18-18.43,8.21-18.29,8.21z
				 M-15.35,8.62h-0.51v-3.8h0.51V8.62z M-12.24,8.19v0.43h-2.14v-3.8h0.51v3.37L-12.24,8.19z M-8.4,6.72
				c0,0.27-0.04,0.53-0.13,0.78c-0.08,0.22-0.21,0.43-0.38,0.6c-0.17,0.17-0.37,0.3-0.59,0.39c-0.24,0.09-0.5,0.14-0.76,0.14h-1.41
				v-3.8h1.41c0.26,0,0.52,0.04,0.76,0.14c0.22,0.09,0.42,0.22,0.59,0.39c0.17,0.17,0.3,0.38,0.38,0.6C-8.44,6.19-8.4,6.46-8.4,6.72
				z M-8.93,6.72c0-0.21-0.03-0.42-0.09-0.63c-0.06-0.17-0.15-0.33-0.27-0.47C-9.41,5.5-9.55,5.4-9.71,5.34
				c-0.18-0.07-0.36-0.1-0.55-0.1h-0.9V8.2h0.9c0.19,0,0.38-0.03,0.55-0.1c0.16-0.06,0.3-0.16,0.42-0.29
				c0.12-0.13,0.21-0.29,0.27-0.47C-8.95,7.14-8.92,6.93-8.93,6.72z M-7.15,8.62h-0.51v-3.8h0.51V8.62z M-3.13,4.82v3.8h-0.26
				c-0.04,0-0.07-0.01-0.1-0.02c-0.03-0.02-0.06-0.04-0.08-0.07l-2.19-2.86c0,0.04,0.01,0.09,0.01,0.13c0,0.04,0,0.08,0,0.12v2.71
				h-0.45v-3.8h0.26c0.02,0,0.04,0,0.06,0c0.01,0,0.03,0.01,0.04,0.01c0.01,0.01,0.03,0.02,0.04,0.03c0.01,0.01,0.03,0.03,0.04,0.04
				l2.19,2.86c0-0.05-0.01-0.09-0.01-0.13c0-0.04,0-0.08,0-0.12V4.82H-3.13z M0.91,6.79v1.46C0.73,8.38,0.52,8.49,0.3,8.56
				c-0.23,0.07-0.47,0.1-0.71,0.1c-0.28,0-0.56-0.04-0.82-0.14c-0.23-0.09-0.45-0.22-0.63-0.4c-0.18-0.17-0.31-0.38-0.4-0.61
				c-0.1-0.25-0.14-0.52-0.14-0.79c0-0.27,0.04-0.54,0.14-0.79c0.08-0.23,0.22-0.44,0.39-0.61C-1.7,5.14-1.49,5-1.26,4.92
				c0.26-0.1,0.53-0.14,0.8-0.14c0.14,0,0.28,0.01,0.42,0.03c0.12,0.02,0.24,0.05,0.36,0.1C0.42,4.95,0.52,5,0.62,5.06
				c0.09,0.06,0.18,0.13,0.26,0.2L0.73,5.49C0.71,5.52,0.68,5.55,0.64,5.56c-0.04,0.01-0.09,0-0.12-0.03
				C0.48,5.51,0.43,5.48,0.38,5.44c-0.06-0.04-0.13-0.07-0.2-0.1C0.09,5.3,0,5.28-0.1,5.26c-0.12-0.02-0.25-0.04-0.38-0.03
				c-0.2,0-0.39,0.03-0.58,0.1c-0.17,0.07-0.32,0.17-0.44,0.3c-0.13,0.14-0.22,0.3-0.28,0.47c-0.07,0.2-0.1,0.41-0.1,0.62
				c0,0.22,0.03,0.43,0.1,0.64c0.06,0.18,0.16,0.34,0.29,0.48c0.13,0.13,0.28,0.24,0.46,0.3c0.19,0.07,0.4,0.11,0.6,0.1
				c0.16,0,0.32-0.02,0.47-0.06c0.14-0.04,0.27-0.1,0.4-0.17V7.18h-0.59c-0.03,0-0.06-0.01-0.08-0.03
				c-0.02-0.02-0.03-0.04-0.03-0.07V6.79H0.91z M-21.37,12.24h1.31v1.59c-0.19,0.14-0.4,0.25-0.62,0.31c-0.23,0.07-0.46,0.1-0.7,0.1
				c-0.29,0-0.58-0.05-0.85-0.15c-0.24-0.09-0.47-0.23-0.65-0.41c-0.18-0.18-0.32-0.39-0.42-0.62c-0.1-0.25-0.15-0.52-0.15-0.79
				c0-0.27,0.04-0.54,0.14-0.79c0.09-0.23,0.23-0.44,0.4-0.62c0.18-0.18,0.4-0.32,0.63-0.41c0.26-0.1,0.55-0.15,0.83-0.15
				c0.15,0,0.3,0.01,0.44,0.04c0.13,0.02,0.26,0.06,0.38,0.11c0.22,0.08,0.41,0.21,0.58,0.36l-0.23,0.36
				c-0.03,0.05-0.08,0.09-0.14,0.1c-0.06,0.01-0.13,0-0.18-0.04c-0.06-0.04-0.13-0.07-0.19-0.1c-0.06-0.03-0.13-0.06-0.19-0.08
				c-0.07-0.02-0.15-0.04-0.22-0.05c-0.09-0.01-0.19-0.02-0.28-0.02c-0.17,0-0.33,0.03-0.48,0.09c-0.14,0.06-0.27,0.15-0.37,0.26
				c-0.1,0.12-0.18,0.26-0.23,0.41c-0.06,0.17-0.08,0.35-0.08,0.53c0,0.19,0.03,0.39,0.09,0.57c0.05,0.16,0.14,0.3,0.25,0.42
				c0.11,0.12,0.24,0.2,0.39,0.26c0.16,0.06,0.33,0.09,0.51,0.09c0.11,0,0.23-0.01,0.34-0.04c0.1-0.03,0.2-0.06,0.29-0.1v-0.65
				h-0.43c-0.04,0-0.09-0.01-0.12-0.04c-0.03-0.03-0.04-0.07-0.04-0.1V12.24z M-17.85,13.56c0.12,0,0.24-0.02,0.35-0.06
				c0.1-0.04,0.19-0.1,0.26-0.18c0.07-0.08,0.13-0.18,0.16-0.29c0.04-0.12,0.06-0.25,0.06-0.38v-2.29h0.79v2.29
				c0,0.22-0.04,0.44-0.11,0.64c-0.14,0.38-0.44,0.69-0.83,0.84c-0.43,0.16-0.91,0.16-1.35,0c-0.38-0.15-0.69-0.45-0.83-0.84
				c-0.08-0.21-0.11-0.42-0.11-0.64v-2.29h0.79v2.29c0,0.13,0.02,0.26,0.06,0.38c0.03,0.11,0.09,0.2,0.16,0.29
				c0.07,0.08,0.16,0.14,0.26,0.18C-18.08,13.54-17.97,13.57-17.85,13.56L-17.85,13.56z M-14.68,14.2h-0.8v-3.85h0.8V14.2z
				 M-10.45,12.27c0,0.27-0.04,0.53-0.14,0.78c-0.09,0.23-0.22,0.44-0.4,0.61c-0.18,0.17-0.39,0.31-0.62,0.4
				c-0.26,0.1-0.53,0.15-0.8,0.14h-1.47v-3.85h1.47c0.27,0,0.55,0.05,0.8,0.14c0.23,0.09,0.44,0.23,0.62,0.4
				c0.17,0.17,0.31,0.38,0.4,0.61C-10.5,11.75-10.45,12.01-10.45,12.27z M-11.26,12.27c0-0.18-0.02-0.37-0.08-0.54
				c-0.05-0.15-0.12-0.29-0.23-0.41c-0.1-0.11-0.22-0.2-0.36-0.26c-0.15-0.06-0.32-0.09-0.48-0.09h-0.68v2.6h0.68
				c0.16,0,0.33-0.03,0.48-0.09c0.14-0.06,0.26-0.14,0.36-0.26c0.1-0.12,0.18-0.26,0.23-0.41C-11.29,12.64-11.26,12.46-11.26,12.27
				L-11.26,12.27z M-9.07,10.98v0.99h1.28v0.6h-1.28v1.01h1.64v0.62h-2.44v-3.85h2.44v0.62L-9.07,10.98z M-4.77,11.09
				c-0.02,0.03-0.04,0.06-0.08,0.09c-0.03,0.02-0.06,0.03-0.1,0.03c-0.04,0-0.09-0.02-0.13-0.04c-0.04-0.03-0.1-0.06-0.16-0.09
				c-0.07-0.03-0.14-0.06-0.21-0.09c-0.09-0.03-0.18-0.04-0.27-0.04c-0.15-0.01-0.29,0.03-0.41,0.12c-0.09,0.08-0.14,0.2-0.14,0.32
				c0,0.08,0.02,0.15,0.08,0.21c0.06,0.06,0.12,0.11,0.2,0.14c0.09,0.04,0.18,0.08,0.28,0.11c0.1,0.03,0.21,0.07,0.32,0.1
				c0.11,0.04,0.22,0.08,0.32,0.13c0.1,0.05,0.2,0.12,0.28,0.19c0.08,0.08,0.15,0.18,0.2,0.28c0.05,0.13,0.08,0.27,0.08,0.41
				c0,0.17-0.03,0.34-0.09,0.49c-0.06,0.15-0.15,0.29-0.26,0.4c-0.12,0.12-0.27,0.21-0.42,0.27c-0.18,0.07-0.38,0.1-0.57,0.1
				c-0.12,0-0.24-0.01-0.36-0.04c-0.12-0.02-0.24-0.06-0.35-0.1c-0.11-0.04-0.22-0.1-0.32-0.16c-0.09-0.06-0.18-0.13-0.26-0.21
				l0.23-0.38c0.02-0.03,0.05-0.05,0.08-0.07c0.03-0.02,0.06-0.03,0.1-0.03c0.05,0,0.11,0.02,0.15,0.05
				c0.05,0.04,0.11,0.07,0.18,0.12c0.08,0.05,0.16,0.09,0.24,0.12c0.1,0.04,0.21,0.06,0.33,0.05c0.15,0.01,0.31-0.04,0.43-0.13
				c0.11-0.1,0.16-0.24,0.15-0.38c0-0.09-0.02-0.17-0.08-0.24c-0.05-0.06-0.12-0.11-0.2-0.15c-0.09-0.04-0.18-0.08-0.28-0.1
				c-0.1-0.03-0.21-0.06-0.32-0.1c-0.11-0.04-0.22-0.08-0.32-0.13c-0.1-0.05-0.2-0.12-0.28-0.2c-0.08-0.09-0.15-0.19-0.2-0.3
				c-0.05-0.14-0.08-0.29-0.08-0.45c0-0.14,0.03-0.28,0.08-0.42c0.06-0.14,0.14-0.26,0.25-0.36c0.12-0.11,0.25-0.19,0.4-0.25
				c0.17-0.07,0.36-0.1,0.55-0.1c0.22,0,0.43,0.03,0.64,0.11c0.18,0.06,0.35,0.17,0.5,0.3L-4.77,11.09z"/>
			<path id="np_dubai_134339_000000" class="st1" d="M0.64,13.42H-1.2v-0.49h1.74c-0.06-0.21-0.12-0.43-0.2-0.63H-1.2v-0.49h1.3
				c-0.29-0.53-0.75-0.94-1.3-1.18v-0.5h-0.49v1.09h-0.67v0.49h0.67v2.66h2.42C0.72,14.05,0.69,13.74,0.64,13.42L0.64,13.42z"/>
		</g>
	</g>
</g>
</svg>
