<svg version="1.1" id="facebookTransparent" xmlns="http://www.w3.org/2000/svg" xmlns:xlink="http://www.w3.org/1999/xlink" x="0px" y="0px"
viewBox="0 0 32 32" style="enable-background:new 0 0 32 32;" xml:space="preserve" >
    <g id="Group_66" transform="translate(-667.21 -2443.21)">
        <rect id="Rectangle_90" x="669.4" y="2445.2" fill="#ffffff" style="opacity:0" width="27.4" height="30"/>
        <path id="Path_532" fill="#ffffff" d="M667.5,2473.9v-29.3c0.3-0.6,0.7-1.1,1.3-1.3h28.9c0.6,0.3,1.1,0.7,1.3,1.3v29.3
            c-0.3,0.6-0.7,1.1-1.3,1.3h-8.5c0-0.2,0-0.4,0-0.6v-11.8c1.3,0,2.5,0,3.7,0c0.3,0,0.4-0.1,0.4-0.4c0.1-0.6,0.1-1.2,0.2-1.7
            c0.1-0.9,0.2-1.8,0.3-2.7h-4.7c0-1.3,0-2.5,0-3.7c0-0.9,0.6-1.6,1.5-1.6c0.4-0.1,0.8-0.1,1.2-0.1c0.7,0,1.4,0,2.1,0v-4.4
            c-1.4,0-2.8-0.2-4.2-0.1c-2.8,0-5.2,2.2-5.4,5c-0.1,1.4-0.2,2.9-0.1,4.3v0.6h-4.1v4.8h4.1v11.8c0,0.2,0,0.4,0,0.6h-15.5
            C668.2,2475,667.7,2474.5,667.5,2473.9z"/>
    </g>
</svg>