<?xml version="1.0" encoding="UTF-8"?>
<!-- Generator: Adobe Illustrator 21.1.0, SVG Export Plug-In . SVG Version: 6.00 Build 0)  -->
<svg version="1.1" id="artwork" xmlns="http://www.w3.org/2000/svg" xmlns:xlink="http://www.w3.org/1999/xlink" x="0px" y="0px" viewBox="0 0 135 40" style="enable-background:new 0 0 135 40;" xml:space="preserve">
<style type="text/css">
	.st0{fill:#A6A6A6;}
	.st1{fill:#FFFFFF;}
	.st2{fill:url(#SVGID_1_);}
	.st3{fill:url(#SVGID_2_);}
	.st4{fill:url(#SVGID_3_);}
	.st5{fill:url(#SVGID_4_);}
	.st6{opacity:0.2;enable-background:new    ;}
	.st7{opacity:0.12;enable-background:new    ;}
	.st8{opacity:0.25;fill:#FFFFFF;enable-background:new    ;}
	.st9{fill:#FFFFFF;stroke:#FFFFFF;stroke-width:0.2;stroke-miterlimit:10;}
</style>
<g>
	<path class="st0" d="M130.2,40H4.7C2.1,40,0,37.9,0,35.3V4.7C0,2.1,2.1,0,4.7,0h125.5c2.6,0,4.8,2.1,4.8,4.7v30.5   C135,37.9,132.8,40,130.2,40L130.2,40z"/>
	<path d="M134,35.3c0,2.1-1.7,3.8-3.8,3.8H4.7c-2.1,0-3.8-1.7-3.8-3.8V4.7c0-2.1,1.7-3.8,3.8-3.8h125.5c2.1,0,3.8,1.7,3.8,3.8   L134,35.3L134,35.3z"/>
</g>
<title>ar_get</title>
<path class="st1" d="M68.1,21.8c-2.3,0-4.2,1.9-4.2,4.3c0,2.3,1.9,4.2,4.3,4.2c2.3,0,4.2-1.9,4.2-4.2s-1.8-4.2-4.1-4.3  C68.2,21.7,68.2,21.7,68.1,21.8z M68.1,28.6c-1.4,0.1-2.7-1-2.8-2.4c-0.1-1.4,1-2.7,2.4-2.8c1.4-0.1,2.7,1,2.8,2.4  c0,0.1,0,0.1,0,0.2C70.6,27.4,69.6,28.5,68.1,28.6C68.2,28.6,68.2,28.6,68.1,28.6z M58.8,21.8c-2.3,0-4.2,1.9-4.2,4.3  c0,2.3,1.9,4.2,4.3,4.2c2.3,0,4.2-1.9,4.2-4.2s-1.8-4.2-4.1-4.3C58.9,21.7,58.9,21.7,58.8,21.8L58.8,21.8z M58.8,28.6  c-1.4,0.1-2.7-1-2.8-2.4s1-2.7,2.4-2.8c1.4-0.1,2.7,1,2.8,2.4c0,0.1,0,0.1,0,0.2C61.3,27.4,60.2,28.5,58.8,28.6  C58.9,28.6,58.8,28.6,58.8,28.6L58.8,28.6z M47.7,23.1v1.8H52c-0.1,0.8-0.4,1.6-1,2.3c-0.9,0.9-2.1,1.4-3.3,1.3  c-2.7,0-4.8-2.1-4.8-4.8s2.1-4.8,4.8-4.8c1.2,0,2.4,0.4,3.3,1.3l1.3-1.3c-1.2-1.2-2.8-1.9-4.5-1.9c-3.6-0.1-6.7,2.7-6.9,6.3  c-0.1,3.6,2.7,6.7,6.3,6.9c0.2,0,0.3,0,0.5,0c1.7,0.1,3.4-0.6,4.6-1.8c1-1.2,1.6-2.7,1.6-4.2c0-0.4,0-0.8-0.1-1.1H47.7z M93.1,24.5  c-0.5-1.6-2-2.6-3.6-2.7c-2.2,0-4,1.8-4,4c0,0.1,0,0.2,0,0.3c0,2.3,1.8,4.2,4.1,4.2c0.1,0,0.1,0,0.2,0c1.4,0,2.8-0.7,3.5-1.9l-1.4-1  c-0.4,0.7-1.2,1.2-2.1,1.2s-1.7-0.5-2.1-1.3l5.7-2.3L93.1,24.5z M87.2,25.9c-0.1-1.3,0.9-2.4,2.2-2.5l0,0c0.7,0,1.3,0.3,1.6,0.9  L87.2,25.9z M82.6,30h1.9V17.5h-1.9V30z M79.6,22.7L79.6,22.7c-0.6-0.6-1.5-1-2.3-1c-2.3,0.1-4.2,2.1-4,4.5c0.1,2.2,1.9,3.9,4,4  c0.9,0,1.7-0.4,2.2-1h0.1v0.6c0,1.6-0.9,2.5-2.3,2.5c-1,0-1.8-0.6-2.1-1.5l-1.6,0.7c0.6,1.5,2.1,2.5,3.8,2.5c2.2,0,4-1.3,4-4.4V22  h-1.7L79.6,22.7L79.6,22.7z M77.4,28.6c-1.4-0.1-2.5-1.4-2.4-2.8c0.1-1.3,1.1-2.2,2.4-2.4c1.3,0.1,2.3,1.2,2.3,2.5c0,0,0,0,0,0.1  c0.1,1.3-0.9,2.5-2.2,2.6C77.5,28.6,77.5,28.6,77.4,28.6L77.4,28.6z M101.8,17.5h-4.5V30h1.9v-4.7h2.6c2.1,0.2,4-1.5,4.2-3.6  s-1.5-4-3.6-4.2C102.2,17.5,102,17.5,101.8,17.5L101.8,17.5z M101.8,23.5h-2.6v-4.3h2.7c1.2,0,2.1,1,2.1,2.1S103,23.5,101.8,23.5  L101.8,23.5z M113.3,21.7c-1.4-0.1-2.7,0.7-3.3,1.9l1.7,0.7c0.3-0.6,1-1,1.7-0.9c1-0.1,1.9,0.6,2,1.6l0,0v0.1  c-0.6-0.3-1.3-0.5-1.9-0.5c-1.8,0-3.6,1-3.6,2.8c0.1,1.6,1.4,2.8,3,2.8h0.1c1,0.1,1.9-0.4,2.4-1.2h0.1v1h1.8v-4.8  C117.2,23,115.5,21.7,113.3,21.7L113.3,21.7z M113.1,28.5c-0.6,0-1.5-0.3-1.5-1.1c0-1,1.1-1.3,2-1.3c0.6,0,1.2,0.1,1.7,0.4  C115.2,27.7,114.3,28.6,113.1,28.5L113.1,28.5z M123.7,22l-2.1,5.4h-0.1l-2.2-5.4h-2l3.3,7.6l-1.9,4.2h1.9l5.1-11.8H123.7z   M106.9,30h1.9V17.5h-1.9V30z"/>
<linearGradient id="SVGID_1_" gradientUnits="userSpaceOnUse" x1="21.795" y1="-1812.705" x2="5.015" y2="-1829.485" gradientTransform="matrix(1 0 0 -1 0 -1804)">
	<stop offset="0" style="stop-color:#00A0FF"/>
	<stop offset="1.000000e-02" style="stop-color:#00A1FF"/>
	<stop offset="0.26" style="stop-color:#00BEFF"/>
	<stop offset="0.51" style="stop-color:#00D2FF"/>
	<stop offset="0.76" style="stop-color:#00DFFF"/>
	<stop offset="1" style="stop-color:#00E3FF"/>
</linearGradient>
<path class="st2" d="M10.4,7.5C10.1,7.9,9.9,8.4,10,8.9V31c0,0.5,0.1,1,0.5,1.4l0.1,0.1L23,20.1v-0.3L10.4,7.5L10.4,7.5z"/>
<linearGradient id="SVGID_2_" gradientUnits="userSpaceOnUse" x1="33.83" y1="-1824.05" x2="9.64" y2="-1824.05" gradientTransform="matrix(1 0 0 -1 0 -1804)">
	<stop offset="0" style="stop-color:#FFE000"/>
	<stop offset="0.41" style="stop-color:#FFBD00"/>
	<stop offset="0.78" style="stop-color:#FFA500"/>
	<stop offset="1" style="stop-color:#FF9C00"/>
</linearGradient>
<path class="st3" d="M27,24.3l-4.1-4.1v-0.3l4.1-4.1h0.1l4.9,2.8c1.4,0.8,1.4,2.1,0,2.9l-4.9,2.8L27,24.3z"/>
<linearGradient id="SVGID_3_" gradientUnits="userSpaceOnUse" x1="24.815" y1="-1826.2849" x2="2.055" y2="-1849.0349" gradientTransform="matrix(1 0 0 -1 0 -1804)">
	<stop offset="0" style="stop-color:#FF3A44"/>
	<stop offset="1" style="stop-color:#C31162"/>
</linearGradient>
<path class="st4" d="M27.1,24.2L22.9,20L10.4,32.5c0.6,0.5,1.5,0.5,2.1,0.1L27.1,24.2"/>
<linearGradient id="SVGID_4_" gradientUnits="userSpaceOnUse" x1="7.29" y1="-1804.1899" x2="17.45" y2="-1814.35" gradientTransform="matrix(1 0 0 -1 0 -1804)">
	<stop offset="0" style="stop-color:#32A071"/>
	<stop offset="7.000000e-02" style="stop-color:#2DA771"/>
	<stop offset="0.48" style="stop-color:#15CF74"/>
	<stop offset="0.8" style="stop-color:#06E775"/>
	<stop offset="1" style="stop-color:#00F076"/>
</linearGradient>
<path class="st5" d="M27.1,15.8L12.5,7.5C11.9,7,11,7,10.4,7.5L22.9,20L27.1,15.8z"/>
<path class="st6" d="M27,24.1l-14.5,8.2c-0.6,0.4-1.4,0.4-2,0l0,0l-0.1,0.1l0,0l0.1,0.1l0,0c0.6,0.4,1.4,0.4,2,0l14.6-8.3L27,24.1z"/>
<path class="st7" d="M10.4,32.3c-0.3-0.4-0.5-0.9-0.5-1.4v0.2c0,0.5,0.1,1,0.5,1.4V32.3L10.4,32.3z"/>
<path class="st7" d="M32,21.3l-5,2.8l0.1,0.1l4.9-2.8c0.6-0.3,0.9-0.8,1-1.4l0,0C32.9,20.6,32.5,21,32,21.3z"/>
<path class="st8" d="M12.5,7.6L32,18.7c0.5,0.3,0.9,0.7,1,1.3l0,0c-0.1-0.6-0.4-1.2-1-1.4L12.5,7.6C11.1,6.7,10,7.4,10,8.9V9  C10,7.5,11.1,6.8,12.5,7.6z"/>
<path class="st9" d="M70.4,14.5c-0.5,0-1-0.2-1.4-0.5c-0.4-0.4-0.6-1-0.5-1.5c0-0.2,0-0.4,0-0.6c0-0.2,0.1-0.5,0.2-0.8l0.4,0.1  C69,11.5,69,11.7,69,12c0,0.5,0.1,0.9,0.4,1.2s0.7,0.5,1.1,0.5c0.6,0,1.1-0.1,1.6-0.4c0.5-0.2,0.8-0.6,1.1-1  c-0.4-0.7-0.6-1.4-0.7-2.1c0-0.2,0.1-0.4,0.2-0.5c0.2-0.2,0.3-0.4,0.6-0.5c0,0.3,0.1,0.7,0.2,1.4l0,0c0.2,0.1,0.5,0.2,0.8,0.2  c0,0,0.1,0,0.1,0.1l0,0v0.7c0,0,0,0.1-0.1,0.1l0,0c-0.2,0-0.5,0-0.7-0.1v0.3c0,0.5-0.2,0.9-0.4,1.3c-0.3,0.4-0.7,0.8-1.2,1  C71.5,14.3,71,14.5,70.4,14.5z M71.3,8.5c-0.2,0.3-0.4,0.6-0.7,0.8c-0.3-0.2-0.5-0.5-0.8-0.7c0.4-0.4,0.6-0.6,0.8-0.8  C70.8,8,71,8.3,71.3,8.5L71.3,8.5z"/>
<path class="st9" d="M74.3,11.6C74.2,11.6,74.2,11.6,74.3,11.6C74.2,11.6,74.2,11.5,74.3,11.6l-0.1-0.8c0,0,0-0.1,0.1-0.1l0,0  c0.3,0,0.5-0.1,0.7-0.2c0.2-0.2,0.4-0.4,0.5-0.6l0.2-0.4c0.2-0.5,0.5-0.9,0.8-1.3c0.2-0.2,0.6-0.4,0.9-0.4S77.9,8,78,8.2  c0.2,0.3,0.4,0.6,0.5,1s0.2,0.8,0.2,1.2c0,0.2,0,0.4-0.1,0.6c-0.1,0.2-0.2,0.4-0.4,0.5c-0.5,0-0.9-0.1-1.4-0.2  c-0.4-0.1-0.9-0.2-1.3-0.4C75.3,11.4,74.8,11.7,74.3,11.6L74.3,11.6z M78,10.8c0-0.4-0.1-0.9-0.3-1.3c-0.2-0.4-0.3-0.6-0.5-0.6  c-0.1,0-0.3,0-0.4,0.1s-0.3,0.2-0.4,0.4c-0.2,0.3-0.3,0.6-0.5,0.9C76.6,10.5,77.3,10.7,78,10.8L78,10.8z"/>
<path class="st9" d="M84.8,11.2c-0.3,0-0.6-0.1-0.8-0.1c-0.2,0-0.3-0.1-0.5-0.1c-0.2-0.1-0.3-0.1-0.5-0.2c-0.1-0.1-0.3-0.2-0.4-0.3  s-0.1-0.2-0.1-0.2c0-0.2,0.1-0.3,0.2-0.5s0.1-0.4,0.2-0.5c0.2-0.3,0.4-0.5,0.7-0.7C84,8.3,84.4,8.1,84.8,8V7.5  c0.2-0.2,0.5-0.4,0.8-0.6l0.1,3.6c0.3,0.2,0.7,0.3,1.1,0.3c0,0,0.1,0,0.1,0.1l0,0v0.7c0,0,0,0.1-0.1,0.1l0,0c-0.4,0-0.7-0.1-1.1-0.2  c-0.3-0.2-0.4-0.4-0.5-0.7v-0.2L84.8,11.2z M83,9.7c0.3,0.2,0.6,0.4,1,0.5s0.8,0.1,1.2,0.1l-0.3-1.8l0,0C84.2,8.7,83.5,9.1,83,9.7z"/>
<path class="st9" d="M89.8,9.1c0.1,0,0.2,0,0.3,0.1C90,9.5,89.9,9.8,89.8,10c-0.1,0.1-0.1,0.2-0.2,0.4c0.2,0.1,0.4,0.3,0.7,0.3  c0.2,0.1,0.5,0.1,0.7,0.1c0,0,0.1,0,0.1,0.1l0,0v0.7c0,0,0,0.1-0.1,0.1l0,0c-0.6,0-1.3-0.2-1.7-0.6L89,11.2  c-0.2,0.1-0.5,0.2-0.8,0.3c-0.4,0.1-0.9,0.1-1.3,0.1c0,0-0.1,0-0.1-0.1l0,0v-0.7c0,0,0-0.1,0.1-0.1l0,0c0.4,0,0.8,0,1.2-0.1  c0.2,0,0.5-0.1,0.7-0.2c0.2-0.3,0.4-0.6,0.6-0.9l0.2-0.4C89.5,9.2,89.6,9.1,89.8,9.1z M88.8,13c-0.2,0.3-0.4,0.5-0.7,0.8  c-0.3-0.2-0.5-0.4-0.7-0.7c0.2-0.2,0.4-0.4,0.7-0.7L88.8,13z M90.4,12.9c-0.2,0.3-0.4,0.5-0.7,0.8c-0.3-0.2-0.5-0.4-0.7-0.7  c0.2-0.2,0.4-0.4,0.7-0.7L90.4,12.9z"/>
<path class="st9" d="M91.1,11.6C91,11.6,91,11.6,91.1,11.6C91,11.6,91,11.5,91.1,11.6L91,10.9c0,0,0-0.1,0.1-0.1l0,0  c0.4,0,0.8-0.1,1.2-0.3c-0.1-0.8-0.2-2.2-0.3-4.2l-0.1-1.5c0.2-0.2,0.5-0.4,0.7-0.6c0,1,0.1,2.6,0.1,4.7v1.5  c0.3,0.2,0.7,0.3,1.1,0.3c0.1,0,0.1,0,0.1,0.1v0.7c0,0.1,0,0.1-0.1,0.1c-0.5,0-0.9-0.1-1.3-0.4c-0.2,0.1-0.5,0.2-0.7,0.3  C91.6,11.6,91.3,11.6,91.1,11.6z"/>
<path class="st9" d="M93.9,11.6C93.9,11.6,93.8,11.6,93.9,11.6C93.8,11.6,93.8,11.5,93.9,11.6l-0.1-0.8c0,0,0-0.1,0.1-0.1l0,0  c0.5,0,0.9,0,1.4,0c-0.2-0.1-0.3-0.3-0.5-0.5c-0.1-0.2-0.2-0.4-0.2-0.6c0-0.3,0.1-0.7,0.2-1C95,8.3,95.2,8,95.5,7.8  c0.2-0.2,0.5-0.3,0.8-0.3s0.5,0.1,0.7,0.2c0.3,0.2,0.6,0.4,0.8,0.6l-0.2,0.4c-0.2-0.1-0.4-0.2-0.6-0.2c-0.1,0-0.3,0-0.4,0  c-0.5,0-1,0.1-1.4,0.4c0,0.6,0.3,1.2,0.9,1.5c0.3,0.2,0.7,0.3,1,0.3c0.3-0.1,0.5-0.1,0.8-0.2c0.3-0.1,0.6-0.2,1.1-0.4  c0.1,0.1,0.2,0.2,0.2,0.4v0.1c0,0.2-0.2,0.4-0.5,0.5c-0.9,0.2-1.5,0.4-2,0.5s-0.9,0.1-1.4,0.2C94.9,11.6,94.4,11.6,93.9,11.6z"/>
<path class="st9" d="M107.3,12.2l-0.3-1.8c-0.3-1.9-0.5-3.2-0.6-3.9c-0.1-0.5-0.1-1-0.2-1.4c0-0.2,0-0.4,0.2-0.6  c0.1-0.1,0.3-0.2,0.6-0.3v0.1l0.4,1.2l-0.3,0.2V6l0.4,3.3c0.1,0.5,0.1,0.9,0.2,1.4l0,0c0.2,0.1,0.5,0.2,0.8,0.2c0,0,0.1,0,0.1,0.1  l0,0v0.7c0,0,0,0.1-0.1,0.1l0,0c-0.3,0-0.5-0.1-0.8-0.2V12c0,0.5-0.1,0.9-0.4,1.3c-0.3,0.4-0.7,0.8-1.2,1c-0.5,0.3-1,0.4-1.5,0.4  s-1.1-0.2-1.5-0.5c-0.4-0.4-0.6-1-0.5-1.5c0-0.2,0-0.4,0-0.6c0-0.2,0.1-0.5,0.2-0.8l0.4,0.1c-0.1,0.3-0.1,0.5-0.1,0.8  c0,0.5,0.1,0.9,0.4,1.2s0.7,0.5,1.1,0.5s0.7-0.1,1.1-0.2c0.4-0.1,0.7-0.3,1-0.5C106.9,12.7,107.2,12.5,107.3,12.2z"/>
<path class="st9" d="M117.2,11.6c-0.3,0-0.6-0.1-0.9-0.2c-0.3-0.1-0.5-0.3-0.8-0.5c-0.4,0.2-0.8,0.4-1.2,0.5  c-0.5,0.1-0.9,0.2-1.4,0.2s-1.1-0.1-1.6-0.2c-0.5-0.1-0.9-0.2-1.3-0.5l-0.2,0.2c-0.3,0.3-0.8,0.4-1.2,0.4c0,0-0.1,0-0.1-0.1l0,0  v-0.7c0,0,0-0.1,0.1-0.1l0,0c0.3,0,0.5,0,0.8-0.2c0.2-0.2,0.5-0.4,0.6-0.7l0.2-0.3c0.1-0.1,0.2-0.2,0.3-0.2c0.1,0,0.2,0,0.3,0.1  c-0.2,0.4-0.3,0.6-0.3,0.8c0.2,0.1,0.4,0.2,0.6,0.2c1.4-1.9,2.6-2.8,3.6-2.8c0.3,0,0.5,0.1,0.8,0.2c0.3,0.2,0.6,0.4,0.8,0.6  c0.2,0.2,0.3,0.4,0.4,0.7c0,0.4-0.1,0.9-0.4,1.2c0.4,0.2,0.8,0.3,1.2,0.3c0.1,0,0.1,0,0.1,0.1v0.7C117.3,11.6,117.2,11.6,117.2,11.6  z M113,10.8c1,0,2.1-0.4,2.9-0.9c-0.2-0.4-0.5-0.7-0.8-0.9s-0.6-0.3-0.9-0.3c-0.5,0-0.9,0.2-1.2,0.5c-0.6,0.4-1.1,0.9-1.6,1.5  C111.9,10.7,112.5,10.8,113,10.8z"/>
<path class="st9" d="M117.2,11.6L117.2,11.6C117.1,11.6,117.1,11.5,117.2,11.6l-0.1-0.8c0,0,0-0.1,0.1-0.1l0,0  c0.9,0,1.7-0.1,2.5-0.3l0.6-0.2c0.4-0.1,0.7-0.2,1.1-0.3c-0.3-0.2-0.6-0.3-0.9-0.5c-0.2-0.2-0.5-0.4-0.7-0.5s-0.4-0.1-0.6-0.1  c-0.3,0-0.7,0.1-0.9,0.3L118,9.3c0-0.2,0-0.3,0-0.5c0-0.3,0.1-0.5,0.4-0.7s0.6-0.3,1-0.2c0.2,0,0.4,0,0.6,0.1  c0.3,0.1,0.6,0.3,0.8,0.5c0.3,0.2,0.7,0.5,1,0.6s0.5,0.2,0.8,0.3c0.4,0.1,0.8,0.1,1.2,0.1l-0.4,0.8l-0.6-0.1h-0.3  c-0.2,0-0.5,0-0.7,0.1c-0.4,0.1-0.7,0.3-1.1,0.5c-0.5,0.3-1,0.4-1.5,0.6C118.6,11.6,117.9,11.6,117.2,11.6z"/>
<path class="st9" d="M125.2,8v0.7c0,0.7,0,1.7-0.1,2.9l-0.5,0.1c0-2.6-0.1-4.7-0.3-6.4V5.1c0-0.2,0-0.4,0.2-0.6  c0.1-0.2,0.3-0.3,0.6-0.3v0.1l0.4,1.2l-0.3,0.2v0.1C125.2,6.6,125.2,7.3,125.2,8z"/>
</svg>