<svg version="1.1" id="instagramTransparent" xmlns="http://www.w3.org/2000/svg" xmlns:xlink="http://www.w3.org/1999/xlink" x="0px" y="0px"
    viewBox="0 0 32 32" style="enable-background:new 0 0 32 32;" xml:space="preserve">
    <g>
        <path id="Path_1251" fill="#ffffff" d="M22.5,0H9.5C4.3,0,0,4.3,0,9.5v12.9C0,27.7,4.3,32,9.5,32h12.9c5.3,0,9.5-4.3,9.5-9.5V9.5
            C32,4.3,27.7,0,22.5,0z M28.8,22.5c0,3.5-2.8,6.3-6.3,6.3H9.5c-3.5,0-6.3-2.8-6.3-6.3V9.5C3.2,6,6,3.2,9.5,3.2h12.9
            c3.5,0,6.3,2.8,6.3,6.3V22.5z"/>
        <path id="Path_1252" fill="#ffffff" d="M16,7.7c-4.6,0-8.3,3.7-8.3,8.3c0,4.6,3.7,8.3,8.3,8.3c4.6,0,8.3-3.7,8.3-8.3
            C24.3,11.4,20.6,7.7,16,7.7z M16,21.1c-2.8,0-5.1-2.3-5.1-5.1c0-2.8,2.3-5.1,5.1-5.1c2.8,0,5.1,2.3,5.1,5.1c0,0,0,0,0,0
            C21.1,18.8,18.8,21.1,16,21.1L16,21.1z"/>
        <circle id="Ellipse_56" fill="#ffffff" cx="24.3" cy="7.8" r="2"/>
    </g>
</svg>