<svg version="1.1" id="linkedInTransparent" xmlns="http://www.w3.org/2000/svg" xmlns:xlink="http://www.w3.org/1999/xlink" x="0px" y="0px"
	 viewBox="0 0 32 32" style="enable-background:new 0 0 32 32;" xml:space="preserve" >
		<g id="Group_65" transform="translate(-645.749 -2501.915)">
			<rect id="Rectangle_89" x="648.8" y="2504.6" fill="#ffffff" style="opacity:0;" width="26.9" height="26.9"/>
			<g id="Asset_1" transform="translate(645.749 2501.915)">
				<g id="Layer_1_1_">
					<path id="Path_531" fill="#ffffff" d="M32,16v13.6c0.1,1.1-0.8,2.2-1.9,2.3c-0.2,0-0.3,0-0.5,0H2.4c-1.3,0.1-2.3-0.9-2.4-2.2
						c0-0.1,0-0.1,0-0.2V2.4C-0.1,1.1,0.9,0.1,2.1,0c0.1,0,0.2,0,0.2,0h27.3c1.2-0.1,2.3,0.9,2.4,2.1c0,0.1,0,0.2,0,0.2
						C32,6.9,32,11.5,32,16z M17.1,14v-1.7c0-0.3-0.1-0.4-0.4-0.4c-1.3,0-2.6,0-3.9,0c-0.3,0-0.3,0.1-0.3,0.4V27
						c0,0.3,0.1,0.4,0.4,0.4c1.3,0,2.7,0,4,0c0.4,0,0.4,0,0.4-0.4v-7.2c0-0.6,0-1.1,0.1-1.6c0.1-1.2,1-2.1,2.2-2.2
						c1.2-0.3,2.4,0.4,2.7,1.6c0,0.1,0.1,0.3,0.1,0.4c0.1,0.5,0.1,1,0.1,1.5c0,2.5,0,5.1,0,7.6c0,0.4,0,0.4,0.4,0.4h4
						c0.4,0,0.4,0,0.4-0.4v-7.8c0-1.1-0.1-2.3-0.3-3.4c-0.2-1.4-1-2.6-2.2-3.3c-1.5-0.8-3.2-1-4.8-0.5C18.8,12.1,17.7,12.9,17.1,14z
						M9.5,19.7v-7.3c0-0.3-0.1-0.4-0.4-0.4c-1.4,0-2.7,0-4.1,0c-0.3,0-0.4,0.1-0.4,0.4c0,4.9,0,9.8,0,14.7c0,0.3,0.1,0.4,0.4,0.4
						c1.3,0,2.7,0,4,0c0.5,0,0.5,0,0.5-0.5L9.5,19.7z M9.9,7.1c0-1.6-1.3-2.8-2.8-2.8S4.3,5.6,4.3,7.1c0,1.5,1.3,2.8,2.8,2.8
						C8.6,10,9.9,8.7,9.9,7.1C9.9,7.1,9.9,7.1,9.9,7.1L9.9,7.1z"/>
				</g>
			</g>
		</g>
	</svg>