<svg xmlns="http://www.w3.org/2000/svg" width="177.626" height="42.606" viewBox="0 0 177.626 42.606">
  <g id="Group_3614" data-name="Group 3614" transform="translate(-55.304 -686.54)">
    <g id="Group_3611" data-name="Group 3611" transform="translate(183.802 711.909)">
      <path id="Path_2228" data-name="Path 2228" d="M763.734,826.023a1.008,1.008,0,0,0-1.484.042l-1.654,1.654a1.009,1.009,0,0,0-.042,1.485l1.739,1.739a1.008,1.008,0,0,0,1.484-.042l1.654-1.654a1.009,1.009,0,0,0,.042-1.484Z" transform="translate(-760.248 -825.718)" fill="#222"/>
      <path id="Path_2229" data-name="Path 2229" d="M800.568,826.023a1.009,1.009,0,0,0-1.484.042l-1.654,1.654a1.009,1.009,0,0,0-.042,1.485l1.738,1.739a1.008,1.008,0,0,0,1.484-.042l1.654-1.654a1.009,1.009,0,0,0,.043-1.484Z" transform="translate(-790.368 -825.718)" fill="#222"/>
    </g>
    <g id="Group_3612" data-name="Group 3612" transform="translate(135.451 721.144)">
      <path id="Path_2230" data-name="Path 2230" d="M500.036,876.819a1.458,1.458,0,0,0-2.147.061l-2.394,2.393a1.46,1.46,0,0,0-.06,2.148l2.516,2.516a1.459,1.459,0,0,0,2.148-.061l2.394-2.393a1.461,1.461,0,0,0,.061-2.148Z" transform="translate(-494.992 -876.377)" fill="#222"/>
      <path id="Path_2231" data-name="Path 2231" d="M553.339,876.819a1.46,1.46,0,0,0-2.148.061l-2.393,2.393a1.459,1.459,0,0,0-.061,2.148l2.516,2.516a1.459,1.459,0,0,0,2.148-.061l2.394-2.393a1.461,1.461,0,0,0,.062-2.148Z" transform="translate(-538.578 -876.377)" fill="#222"/>
      <path id="Path_2232" data-name="Path 2232" d="M666.322,876.819a1.46,1.46,0,0,0-2.148.061l-2.393,2.393a1.459,1.459,0,0,0-.061,2.148l2.515,2.516a1.46,1.46,0,0,0,2.148-.061l2.394-2.393a1.461,1.461,0,0,0,.062-2.148Z" transform="translate(-630.966 -876.377)" fill="#222"/>
    </g>
    <path id="Path_2233" data-name="Path 2233" d="M101.107,744.114H97.728a1.385,1.385,0,0,0-1.4,1.482v8.609c0,3.419-1.606,5.438-4.984,5.438H65.519a6.313,6.313,0,0,1-4.12-1.483V745.21a1.173,1.173,0,0,0-1.812-.865l-3.09,1.772a1.948,1.948,0,0,0-1.193,1.811v10.642a3.271,3.271,0,0,0,.947,2.347,12.737,12.737,0,0,0,9.35,3.707H92.663c6.137,0,9.844-3.624,9.844-10.3V745.6A1.386,1.386,0,0,0,101.107,744.114Z" transform="translate(0 -47.079)" fill="#222"/>
    <path id="Path_2234" data-name="Path 2234" d="M192.438,745.585a1.46,1.46,0,0,0,2.148-.061l2.394-2.394a1.46,1.46,0,0,0,.061-2.147l-2.516-2.517a1.46,1.46,0,0,0-2.148.061l-2.394,2.393a1.461,1.461,0,0,0-.061,2.149Z" transform="translate(-109.718 -42.099)" fill="#222"/>
    <path id="Path_2235" data-name="Path 2235" d="M139.134,745.585a1.459,1.459,0,0,0,2.147-.061l2.393-2.394a1.459,1.459,0,0,0,.061-2.147l-2.516-2.517a1.459,1.459,0,0,0-2.147.061l-2.394,2.393a1.46,1.46,0,0,0-.063,2.149Z" transform="translate(-66.129 -42.099)" fill="#222"/>
    <path id="Path_2236" data-name="Path 2236" d="M401.489,740.417h-3.379a1.386,1.386,0,0,0-1.4,1.483v8.608c0,3.419-1.605,5.438-4.983,5.438h-4.776a5.127,5.127,0,0,1-4.864-2.772,15.214,15.214,0,0,0,.208-2.543V741.9a1.385,1.385,0,0,0-1.4-1.483h-3.379a1.385,1.385,0,0,0-1.4,1.483v8.608c0,3.419-1.607,5.438-4.984,5.438H358.2v-11.08a2.309,2.309,0,0,0-.824-2.183c-2.1-1.854-5.314-3.089-9.555-3.089-7.044,0-12.316,4-12.316,10.8,0,7.043,4.818,10.537,10.421,10.537h6.137v1.633c0,3.46-2.389,4.984-5.684,4.984a9.681,9.681,0,0,1-4.49-1.111,4.849,4.849,0,0,0-1.646-.743,1.046,1.046,0,0,0-1.114,1.072v2.429a2.159,2.159,0,0,0,1.072,1.731,11.316,11.316,0,0,0,6.506,1.606c5.892,0,11.493-3.541,11.493-10.339v-1.262H372.45c3.8,0,6.663-1.391,8.3-4.031a7.534,7.534,0,0,0,7.025,4.031h5.273c6.138,0,9.845-3.624,9.845-10.3V741.9A1.385,1.385,0,0,0,401.489,740.417Zm-49.428,15.529h-4.736c-3.378,0-5.52-1.766-5.52-5.8,0-4.077,2.677-5.855,5.89-5.855a6.7,6.7,0,0,1,4.366,1.235Z" transform="translate(-229.125 -43.382)" fill="#222"/>
    <path id="Path_2237" data-name="Path 2237" d="M743.17,716.128a5.8,5.8,0,0,1-3.14-.881,5.906,5.906,0,0,1-2.185-2.466,8,8,0,0,1-.778-3.57,18.27,18.27,0,0,1,.978-5.866h4.029a13.148,13.148,0,0,0-.511,2.385,26.038,26.038,0,0,0-.126,2.814,4,4,0,0,0,.511,1.962,3.88,3.88,0,0,0,1.355,1.452,3.262,3.262,0,0,0,1.748.526h5.244a10.027,10.027,0,0,0,3.436-.43,1.459,1.459,0,0,0,1.081-1.392,1.717,1.717,0,0,0-.407-1.118,5.6,5.6,0,0,0-1.37-1.089q-1.274-.8-2.925-1.918a9.447,9.447,0,0,1-2.281-1.977,3.112,3.112,0,0,1-.629-1.881,7.307,7.307,0,0,1,1.607-4.051,13.306,13.306,0,0,1,3.859-3.674,8.2,8.2,0,0,1,4.31-1.4,4.11,4.11,0,0,1,1.444.274,12.431,12.431,0,0,1,2.1,1.148l-1.629,3.3a10.915,10.915,0,0,0-1.185-.578,3.173,3.173,0,0,0-1.215-.237,4.3,4.3,0,0,0-2.111.844,9.634,9.634,0,0,0-2.163,1.851,2.932,2.932,0,0,0-.852,1.763,1.737,1.737,0,0,0,.689,1.118,13.688,13.688,0,0,0,2.007,1.474,24.819,24.819,0,0,1,2.592,1.9,9.733,9.733,0,0,1,2.022,2.155,3.722,3.722,0,0,1,.659,2.007,4.543,4.543,0,0,1-2.318,4.17,13.181,13.181,0,0,1-6.688,1.385Z" transform="translate(-557.49 -5.736)" fill="#222"/>
    <g id="Group_3613" data-name="Group 3613" transform="translate(207.423 686.54)">
      <path id="Path_2238" data-name="Path 2238" d="M898.145,705.944q.148,0,.148.119v3.377a.131.131,0,0,1-.148.148h-8.31V686.54h4.518v19.4Z" transform="translate(-889.835 -686.54)" fill="#222"/>
      <path id="Path_2239" data-name="Path 2239" d="M936.555,741.958a10.331,10.331,0,0,1-.815-4.177,10.209,10.209,0,0,1,.444-2.844,11.316,11.316,0,0,1,1.1-2.622,12.975,12.975,0,0,1,3.118-1.289,11.347,11.347,0,0,1,2.9-.445,8,8,0,0,1,3.77.889,6.385,6.385,0,0,1,2.629,2.511,7.425,7.425,0,0,1,.933,3.77,7.75,7.75,0,0,1-1.074,4.088,7.386,7.386,0,0,1-2.985,2.77,9.019,9.019,0,0,1-4.221.992h-9.213a.131.131,0,0,1-.148-.148v-3.377q0-.118.148-.119Zm3.377-3.54a10.946,10.946,0,0,0,.7,3.54h1.141a4.185,4.185,0,0,0,3.073-1.229,4.042,4.042,0,0,0,1.237-2.977,3.925,3.925,0,0,0-.785-2.57,2.567,2.567,0,0,0-2.088-.955,5.671,5.671,0,0,0-2.829.844A12.451,12.451,0,0,0,939.932,738.418Z" transform="translate(-925.12 -722.554)" fill="#222"/>
    </g>
  </g>
</svg>
