<svg xmlns="http://www.w3.org/2000/svg" viewBox="0 0 170.219 43">
  <path id="Path_2227" data-name="Path 2227" d="M120.125,173.5c-2.509-1-7.773-.865-9.738.746-.325.267-.3-.221-.3-.221l.015-11c.024-.626-.488-1.423-1.817-.685-1.388.771-2.481,1.345-3.339,1.862a1.428,1.428,0,0,0-.892,1.536V176.3a36.829,36.829,0,0,0-5.8.9s1.542-3.4,3.243-8.292.851-5.422.479-5.741-2.1-.719-6.432,2.658a61.532,61.532,0,0,1-7.974,5.316s-1.382.532-1.488.213.159-.638.532-1.594,1.834-3.4,2.585-5.2a.98.98,0,0,0-.712-1.488c-.638-.106-1.235.039-2.83,1.422s-6.856,5.6-8.77,6.963c-1.382.983-1.542.531-1.595,0-.056-.563.725-5.659-.523-6.562-1.042-.754-2.035-.845-3.809.4a34.444,34.444,0,0,0-4.465,4.066s-.638.877-.5-.718a16.5,16.5,0,0,0-.293-5.369c-.479-1.139-1.515-1.621-3-.824a31.255,31.255,0,0,0-2.765,1.739,8.015,8.015,0,0,0-.987.808c-.724.7-2.172,2.037-2.148,1.573a7.134,7.134,0,0,0,0-2.339c-.011-.024-.024-.049-.039-.074-.271-.464-.783-.455-1.369-.4a7.806,7.806,0,0,0-2.471.744c-2.153.956-3.285,1.884-3.71,3.478-.718,2.691.594,2.205,1.052,1.6.744-.983,2.049-2.738,3.1-2.917a.672.672,0,0,1,.569,1.136,24.149,24.149,0,0,0-2.95,4.279c-.951,1.715-.293,3.482.239,3.8.476.285.992.114,1.967-1.063,2.834-3.426,7.788-9.09,9.249-9.275.852-.109.6,4.6.638,7.309.027,1.914.744,2.551,1.807,2.126s4.173-5.077,5.4-6.193,1.568-1.409,1.94-.878,0,2.871,0,5.263,1.888,2.9,3.3,2.232c1.677-.791,4.757-3.827,6.352-5.315s1.888-2.049,1.887-1.861c0,.4-.531,2.924-.666,4.113a2.541,2.541,0,0,0,0,1.273c.335.813,1.436,1.624,4.97-.123,4.678-2.313,8.682-4.961,10.055-5.6.232-.109.5,0,.478.256a4.791,4.791,0,0,1-.222.99c-.787,2.538-3.667,9.355-3.667,9.355a21.468,21.468,0,0,0-3.827,3.084c-2.765,2.551-8.348,8.358-9.143,13.129-.532,3.19,1.063,4.732,2.631,4.705,1.992-.035,1.887-.24,6.246-6.672A59.41,59.41,0,0,0,97.8,178.631a7.621,7.621,0,0,1,2.644-.566,17.161,17.161,0,0,1,3.611-.038v11.131c0,.215.108.313.318.561a12.615,12.615,0,0,0,9.35,4.536c4.285,0,6.285-.45,8.756-2.533,2.068-1.744,3.886-4.194,3.877-9.154a9.492,9.492,0,0,0-6.234-9.066m-33.29,19.48c-2.233,3.243-2.5,3.774-2.871,3.933s-.956.265-.532-1.807,2.817-6.273,5.422-9.515a24.491,24.491,0,0,1,4.359-4.465s-4.146,8.612-6.378,11.854m33.255-8.282a4.629,4.629,0,0,1-1.837,3.72,5.522,5.522,0,0,1-3.9,1.1,6.151,6.151,0,0,1-3.788-1.066c-.473-.276-.473-.592-.473-.592v-8.545a.422.422,0,0,1,.174-.343,7.179,7.179,0,0,1,5.089-1.234,4.652,4.652,0,0,1,3.659,1.817,7.532,7.532,0,0,1,1.081,5.146m27.6-10.046a14.377,14.377,0,0,0-10.55-1.471c-4.592,1.023-8.429,4.3-8.886,9.969A10.716,10.716,0,0,0,130.8,191.2a10.03,10.03,0,0,0,8.31,3.123,7.093,7.093,0,0,0,5.151-2.542.066.066,0,0,1,.117.043v.555a1.354,1.354,0,0,0,1.349,1.354l3.214.012a1.391,1.391,0,0,0,1.4-1.38l.078-14.756c.014-1.212-1.5-2.273-2.725-2.951m-3.355,11.738a2.12,2.12,0,0,1-.133.6,2.727,2.727,0,0,1-.694.9,5.729,5.729,0,0,1-3.257,1.538,5.207,5.207,0,0,1-4.021-1.05,4.679,4.679,0,0,1-1.722-3.767c-.139-2.2.186-4.227,1.4-5.348a5.351,5.351,0,0,1,3.336-1.614,7.5,7.5,0,0,1,4.82.994.622.622,0,0,1,.31.584Zm55.081-11.645V192.5a1.185,1.185,0,0,1-1.183,1.185l-3.453.01a1.133,1.133,0,0,1-1.135-1.159l.017-.743a.088.088,0,0,0-.161-.054c-.484.709-2.106,2.515-6.061,2.512-3.9,0-7.713-1.861-8.829-6.774a19.027,19.027,0,0,1-.354-4.042v-8.306a1.424,1.424,0,0,1,1.424-1.424h3.428a1.278,1.278,0,0,1,1.278,1.273l.039,10.03c0,.017-.1,4.324,4.278,4.322s4.765-2.727,4.765-2.727l-.02-11.542a1.355,1.355,0,0,1,1.354-1.357h3.574a1.038,1.038,0,0,1,1.038,1.038m-24.736,0v21.125a9.648,9.648,0,0,1-2.973,6.206c-2.793,2.438-5.5,2.689-8.334,2.94s-6.279-1.492-6.959-2.467c-.445-.639-.34-2.1-.352-3.3a1.108,1.108,0,0,1,1.667-.836,9.847,9.847,0,0,0,5.511,1.736c4,.024,5-2.313,5.258-3.229a32.249,32.249,0,0,0,.209-4.417l0-.664c0-.088-.121-.073-.171,0-.484.708-1.879,2.417-5.835,2.414-3.9,0-7.712-1.861-8.828-6.774a19.008,19.008,0,0,1-.355-4.042v-8.306a1.423,1.423,0,0,1,1.423-1.424h3.429a1.278,1.278,0,0,1,1.278,1.273l.039,10.03c0,.017-.1,4.324,4.278,4.322s4.765-2.727,4.765-2.727l-.019-11.542a1.355,1.355,0,0,1,1.355-1.357h3.574a1.038,1.038,0,0,1,1.037,1.038m44.541,13.422v3.337a.875.875,0,0,1-.206.569c-.547.639-2.273,2.178-6.206,2.178a9.384,9.384,0,0,1-7.462-2.984,8.389,8.389,0,0,1-2.438-5.7v-1l-.085-15.48a1.312,1.312,0,0,1,.593-1.105l3.575-2.342a1.181,1.181,0,0,1,1.827.987v6.711a.354.354,0,0,0,.354.354h8.557A1.313,1.313,0,0,1,219.042,175v1.876a1.481,1.481,0,0,1-1.481,1.48h-8.411a.333.333,0,0,0-.333.333v6.877a4.521,4.521,0,0,0,4.758,3.783,5.979,5.979,0,0,0,3.938-1.219,4.3,4.3,0,0,1,.6-.383.856.856,0,0,1,.823,0,.54.54,0,0,1,.285.422" transform="translate(-49 -162.044)" fill="#222"/>
</svg>
