<svg xmlns="http://www.w3.org/2000/svg" width="135.768" height="61.86" viewBox="0 0 135.768 61.86">
  <g id="Group_3615" data-name="Group 3615" transform="translate(-359.943 -692.866)">
    <path id="Path_2241" data-name="Path 2241" d="M-116.561-3.363a2.491,2.491,0,0,0,2.037-.779,3.843,3.843,0,0,0,.643-2.461v-5.072h4.17v5.4a8.924,8.924,0,0,1-.082,1.258,4.383,4.383,0,0,0,1.388,1.292,3.764,3.764,0,0,0,1.757.362h1.723v-10.5h4.184V0h-5.824a6.038,6.038,0,0,1-4.4-2.105A5.465,5.465,0,0,1-115.645,0h-3.336q-.506,6.727-8.23,6.727h-1.23a8.085,8.085,0,0,1-4.067-.984,6.527,6.527,0,0,1-2.639-2.769,8.9,8.9,0,0,1-.909-4.095,14.257,14.257,0,0,1,.383-3.233,12.925,12.925,0,0,1,1.053-2.96h3.691a25.481,25.481,0,0,0-.7,3.151,19.781,19.781,0,0,0-.26,3.069,4.857,4.857,0,0,0,1.025,3.247,3.374,3.374,0,0,0,2.707,1.21h.834a4,4,0,0,0,3.179-1.169,4.847,4.847,0,0,0,1.019-3.288V-11.676h4.17v8.313Zm22.23,10.09a9.558,9.558,0,0,1-2.632-.342,9.081,9.081,0,0,1-2.522-1.23L-97.8,2.434a5.783,5.783,0,0,0,1.306.643,4.582,4.582,0,0,0,1.36.178,2.2,2.2,0,0,0,1.8-.854A3.338,3.338,0,0,0-92.649.246V-13.863h4.17V.451a6.419,6.419,0,0,1-1.593,4.58A5.566,5.566,0,0,1-94.33,6.727Zm11.033-28h4.17V0H-83.3Zm8.23,17.91h9.352a17.388,17.388,0,0,0-1.4-4.177,9.677,9.677,0,0,0-2.105-2.748,10.753,10.753,0,0,0-3.124-1.921l1.572-3.924a13.319,13.319,0,0,1,5.947,4.566,20.991,20.991,0,0,1,3.309,8.2h3.678q.137,0,.137.109V-.137A.121.121,0,0,1-57.84,0H-75.067Zm20.1,0a9.54,9.54,0,0,1-.752-3.855,9.42,9.42,0,0,1,.41-2.625,10.448,10.448,0,0,1,1.012-2.42,11.981,11.981,0,0,1,2.878-1.189,10.471,10.471,0,0,1,2.673-.41,7.381,7.381,0,0,1,3.479.82,5.892,5.892,0,0,1,2.427,2.317,6.853,6.853,0,0,1,.861,3.479,7.98,7.98,0,0,1-.52,2.885,2.826,2.826,0,0,0,1.155.772,5.043,5.043,0,0,0,1.634.226h.15q.137,0,.137.109V-.137A.121.121,0,0,1-39.561,0h-.15a7.146,7.146,0,0,1-2.563-.417,5.583,5.583,0,0,1-2.058-1.456,7.25,7.25,0,0,1-2.447,1.4A8.738,8.738,0,0,1-49.623,0h-8.5a.121.121,0,0,1-.137-.137V-3.254q0-.109.137-.109Zm3.117-3.268a10.108,10.108,0,0,0,.643,3.268h1.053A3.864,3.864,0,0,0-47.32-4.5a3.732,3.732,0,0,0,1.142-2.748A3.623,3.623,0,0,0-46.9-9.618,2.369,2.369,0,0,0-48.83-10.5a5.235,5.235,0,0,0-2.611.779A11.492,11.492,0,0,0-51.852-6.631Zm17.063,3.268q.15,0,.15.109V-.137q0,.137-.15.137h-5.059a.121.121,0,0,1-.137-.137V-3.254q0-.109.137-.109Zm3.92,0q.15,0,.15.109V-.137q0,.137-.15.137h-5.059a.121.121,0,0,1-.137-.137V-3.254q0-.109.137-.109Zm3.92,0q.15,0,.15.109V-.137q0,.137-.15.137h-5.059a.121.121,0,0,1-.137-.137V-3.254q0-.109.137-.109Zm3.92,0q.15,0,.15.109V-.137q0,.137-.15.137h-5.059a.121.121,0,0,1-.137-.137V-3.254q0-.109.137-.109Zm3.92,0q.15,0,.15.109V-.137q0,.137-.15.137h-5.059A.121.121,0,0,1-24.3-.137V-3.254q0-.109.137-.109ZM-20.248,0a.121.121,0,0,1-.137-.137V-3.254q0-.109.137-.109h3.5v-17.91h4.17V0ZM-6.973-21.273H-2.8V0h-4.17Z" transform="translate(496 748)" fill="#fff"/>
    <path id="Path_2240" data-name="Path 2240" d="M264.9,13.525a8.263,8.263,0,0,1-4.157-1.006,6.672,6.672,0,0,1-2.7-2.83,9.092,9.092,0,0,1-.929-4.185,14.572,14.572,0,0,1,.391-3.3,13.212,13.212,0,0,1,1.076-3.025h3.773a26.05,26.05,0,0,0-.713,3.221,20.219,20.219,0,0,0-.266,3.137,4.964,4.964,0,0,0,1.048,3.319,3.448,3.448,0,0,0,2.767,1.237h.852a4.087,4.087,0,0,0,3.249-1.195,4.954,4.954,0,0,0,1.041-3.361V-15.094h4.262V3.212h3.731q.14,0,.14.112V6.51a.124.124,0,0,1-.14.14h-3.759q-.517,6.875-8.413,6.875ZM278.032,6.65a.124.124,0,0,1-.14-.14V3.324q0-.112.14-.112h4.43V-7.52h4.262V3.212h4.3q.14,0,.14.112V6.51a.124.124,0,0,1-.14.14Zm3.829,7.155a1.823,1.823,0,0,1-1.4-.552,2.11,2.11,0,0,1-.517-1.5,2.148,2.148,0,0,1,.51-1.516,1.818,1.818,0,0,1,1.4-.552,1.79,1.79,0,0,1,1.383.545,2.162,2.162,0,0,1,.5,1.523,2.1,2.1,0,0,1-.517,1.516A1.812,1.812,0,0,1,281.861,13.8Zm4.863,0a1.823,1.823,0,0,1-1.4-.552,2.11,2.11,0,0,1-.517-1.5,2.148,2.148,0,0,1,.51-1.516,1.818,1.818,0,0,1,1.4-.552,1.8,1.8,0,0,1,1.4.552,2.167,2.167,0,0,1,.5,1.516,2.092,2.092,0,0,1-.524,1.5A1.811,1.811,0,0,1,286.724,13.8Zm4.011-7.155a.124.124,0,0,1-.14-.14V3.324q0-.112.14-.112h3.577V-15.094h4.262V6.65Zm11.99-3.438h9.558a17.772,17.772,0,0,0-1.432-4.269A9.891,9.891,0,0,0,308.7-3.866a10.99,10.99,0,0,0-3.193-1.963l1.607-4.011A13.673,13.673,0,0,1,313.254-5.1a21.4,21.4,0,0,1,3.347,8.42V6.65H302.724Z" transform="translate(179.11 708.43)" fill="#fff"/>
    <path id="np_school_3030619_000000" d="M11.639,36.334H10.412A1.037,1.037,0,0,1,9.375,35.3V24.928a1.037,1.037,0,0,1,1.037-1.037h1.037V35.3a3.11,3.11,0,0,0,.191,1.037ZM35.3,23.892H34.26V35.3a3.11,3.11,0,0,1-.191,1.037H35.3A1.036,1.036,0,0,0,36.334,35.3V24.928A1.035,1.035,0,0,0,35.3,23.892Zm-3.111-3.111V35.3a1.035,1.035,0,0,1-1.037,1.037H27V29.076a1.035,1.035,0,0,0-1.037-1.037H19.744a1.037,1.037,0,0,0-1.037,1.037v7.258H14.559A1.037,1.037,0,0,1,13.522,35.3V20.781a1.038,1.038,0,0,1,.573-.928l7.722-3.861v-5.58a1.037,1.037,0,0,1,1.037-1.037H27a1.036,1.036,0,0,1,1.037,1.037v3.111A1.036,1.036,0,0,1,27,14.56H23.891v1.432l7.722,3.861a1.038,1.038,0,0,1,.573.928Zm-6.221,2.074a3.11,3.11,0,1,0-3.111,3.111,3.109,3.109,0,0,0,3.111-3.111Z" transform="translate(390.857 683.491)" fill="#fff"/>
  </g>
</svg>
