<svg xmlns="http://www.w3.org/2000/svg" width="83.161" height="45.319" viewBox="0 0 83.161 45.319">
  <g id="schoolguides-ar" transform="translate(-371.943 -692.866)">
    <path id="Path_2241" data-name="Path 2241" d="M-110.182-8.124a1.745,1.745,0,0,0,1.45-.572,2.887,2.887,0,0,0,.457-1.807v-3.724h2.968v3.965a6.758,6.758,0,0,1-.058.923,3.158,3.158,0,0,0,.988.949,2.61,2.61,0,0,0,1.25.266h1.226v-7.709h2.977V-5.655h-4.145A4.245,4.245,0,0,1-106.2-7.2a3.843,3.843,0,0,1-3.328,1.546H-111.9q-.36,4.939-5.858,4.939h-.876a5.613,5.613,0,0,1-2.895-.723,4.732,4.732,0,0,1-1.878-2.033,6.7,6.7,0,0,1-.647-3.006,10.783,10.783,0,0,1,.272-2.374,9.688,9.688,0,0,1,.749-2.173h2.627a19.219,19.219,0,0,0-.5,2.314,14.971,14.971,0,0,0-.185,2.253,3.641,3.641,0,0,0,.73,2.384,2.37,2.37,0,0,0,1.927.888h.594a2.8,2.8,0,0,0,2.262-.858,3.634,3.634,0,0,0,.725-2.414v-7.769h2.968v6.1ZM-94.361-.716a6.606,6.606,0,0,1-1.873-.251,6.381,6.381,0,0,1-1.8-.9l1.2-2A4.064,4.064,0,0,0-95.9-3.4a3.167,3.167,0,0,0,.968.13,1.546,1.546,0,0,0,1.284-.627,2.5,2.5,0,0,0,.487-1.581V-15.833H-90.2V-5.324A4.8,4.8,0,0,1-91.33-1.961,3.9,3.9,0,0,1-94.361-.716Zm7.852-20.557h2.968V-5.655h-2.968Zm6.858,13.149H-73a13.043,13.043,0,0,0-1-3.067,7.084,7.084,0,0,0-1.5-2.018,7.618,7.618,0,0,0-2.223-1.41L-76.6-17.5a9.523,9.523,0,0,1,4.233,3.353,15.684,15.684,0,0,1,2.355,6.023h2.617q.1,0,.1.08v2.289a.087.087,0,0,1-.1.1h-12.26Zm14.3,0a7.2,7.2,0,0,1-.535-2.831,7.118,7.118,0,0,1,.292-1.927,7.8,7.8,0,0,1,.72-1.777,8.383,8.383,0,0,1,2.048-.873,7.241,7.241,0,0,1,1.9-.3,5.123,5.123,0,0,1,2.476.6,4.253,4.253,0,0,1,1.727,1.7,5.158,5.158,0,0,1,.613,2.555,6.024,6.024,0,0,1-.37,2.118,2.008,2.008,0,0,0,.822.567,3.487,3.487,0,0,0,1.163.166h.107q.1,0,.1.08v2.289a.087.087,0,0,1-.1.1h-.107a4.945,4.945,0,0,1-1.824-.306A3.976,3.976,0,0,1-57.778-7.03,5.123,5.123,0,0,1-59.519-6a6.046,6.046,0,0,1-2.024.346H-67.6a.087.087,0,0,1-.1-.1V-8.044q0-.08.1-.08Zm2.218-2.4a7.628,7.628,0,0,0,.457,2.4h.749A2.706,2.706,0,0,0-59.9-8.957a2.784,2.784,0,0,0,.812-2.018,2.717,2.717,0,0,0-.516-1.742,1.666,1.666,0,0,0-1.372-.647,3.642,3.642,0,0,0-1.858.572A8.688,8.688,0,0,0-63.129-10.523Zm9.143,2.4q.107,0,.107.08v2.289q0,.1-.107.1h-.6a.087.087,0,0,1-.1-.1V-8.044q0-.08.1-.08Zm1.159,0q.107,0,.107.08v2.289q0,.1-.107.1C-56.492-5.655-56.492-8.124-52.827-8.124Zm-.81,2.469a.087.087,0,0,1-.1-.1V-8.044q0-.08.1-.08h2.491V-21.273h2.968V-5.655Zm9.448-15.619h2.968V-5.655h-2.968Z" transform="translate(496 738.901)" fill="#222"/>
    <path id="np_school_3030619_000000" d="M11.037,29.168h-.9a.761.761,0,0,1-.761-.761V20.794a.761.761,0,0,1,.761-.761H10.9v8.374a2.283,2.283,0,0,0,.14.761Zm17.369-9.135h-.761v8.374a2.283,2.283,0,0,1-.14.761h.9a.76.76,0,0,0,.761-.761V20.794a.76.76,0,0,0-.761-.761Zm-2.284-2.284V28.407a.76.76,0,0,1-.761.761H22.316V23.839a.76.76,0,0,0-.761-.761H16.988a.761.761,0,0,0-.761.761v5.329H13.181a.761.761,0,0,1-.761-.761V17.749a.762.762,0,0,1,.421-.681l5.669-2.835v-4.1a.761.761,0,0,1,.761-.761h3.045a.76.76,0,0,1,.761.761V12.42a.76.76,0,0,1-.761.761H20.033v1.052L25.7,17.068a.762.762,0,0,1,.421.681Zm-4.568,1.523a2.284,2.284,0,1,0-2.284,2.284,2.283,2.283,0,0,0,2.284-2.284Z" transform="translate(378.304 683.491)" fill="#222"/>
    <path id="Path_2243" data-name="Path 2243" d="M94.335,6.452a6.25,6.25,0,0,1-3.145-.761,5.046,5.046,0,0,1-2.04-2.14,6.877,6.877,0,0,1-.7-3.166,11.022,11.022,0,0,1,.3-2.5A9.993,9.993,0,0,1,89.557-4.4h2.854a19.7,19.7,0,0,0-.539,2.436,15.294,15.294,0,0,0-.2,2.373,3.755,3.755,0,0,0,.793,2.51,2.608,2.608,0,0,0,2.093.935H95.2a3.091,3.091,0,0,0,2.458-.9A3.747,3.747,0,0,0,98.446.406V-15.2h3.224V-1.349h2.822q.106,0,.106.085v2.41a.093.093,0,0,1-.106.106h-2.843q-.391,5.2-6.363,5.2Zm9.936-5.2a.093.093,0,0,1-.106-.106v-2.41q0-.085.106-.085h3.351V-9.466h3.224v8.118H114.1q.106,0,.106.085v2.41a.093.093,0,0,1-.106.106Zm2.9,5.412a1.379,1.379,0,0,1-1.057-.418,1.6,1.6,0,0,1-.391-1.136,1.625,1.625,0,0,1,.386-1.147,1.375,1.375,0,0,1,1.062-.418,1.354,1.354,0,0,1,1.046.412,1.635,1.635,0,0,1,.381,1.152,1.588,1.588,0,0,1-.391,1.147A1.37,1.37,0,0,1,107.167,6.663Zm3.678,0a1.379,1.379,0,0,1-1.057-.418A1.6,1.6,0,0,1,109.4,5.11a1.625,1.625,0,0,1,.386-1.147,1.375,1.375,0,0,1,1.062-.418,1.358,1.358,0,0,1,1.057.418,1.639,1.639,0,0,1,.381,1.147,1.583,1.583,0,0,1-.4,1.136A1.369,1.369,0,0,1,110.845,6.663Zm3.034-5.412a.093.093,0,0,1-.106-.106v-2.41q0-.085.106-.085h2.706V-15.2h3.224V1.252Zm9.069-2.6h7.23a13.442,13.442,0,0,0-1.083-3.229A7.481,7.481,0,0,0,127.466-6.7a8.313,8.313,0,0,0-2.415-1.485l1.216-3.034a10.342,10.342,0,0,1,4.645,3.588,16.184,16.184,0,0,1,2.532,6.368V1.252h-10.5Z" transform="translate(321.66 708.132)" fill="#222"/>
  </g>
</svg>
