<svg xmlns="http://www.w3.org/2000/svg" width="89.013" height="34.372" viewBox="0 0 89.013 34.372">
  <g id="Group_3608" data-name="Group 3608" transform="translate(-0.336 -5.437)">
    <path id="Path_2226" data-name="Path 2226" d="M8.7-11.486a.7.7,0,0,1-.185.214.406.406,0,0,1-.242.071.678.678,0,0,1-.38-.161q-.218-.162-.546-.356a4.394,4.394,0,0,0-.789-.356,3.393,3.393,0,0,0-1.116-.161,3.258,3.258,0,0,0-1.088.166,2.33,2.33,0,0,0-.789.451,1.852,1.852,0,0,0-.48.67,2.126,2.126,0,0,0-.161.831,1.536,1.536,0,0,0,.28.945,2.415,2.415,0,0,0,.741.641,5.677,5.677,0,0,0,1.045.461q.584.195,1.2.4t1.2.47a4.21,4.21,0,0,1,1.045.66,3.01,3.01,0,0,1,.741.979,3.257,3.257,0,0,1,.28,1.425,4.6,4.6,0,0,1-.3,1.677A3.866,3.866,0,0,1,8.26-1.092a4.155,4.155,0,0,1-1.434.912A5.276,5.276,0,0,1,4.892.152,5.894,5.894,0,0,1,2.48-.328a5.662,5.662,0,0,1-1.853-1.3L1.159-2.5a.7.7,0,0,1,.185-.176.434.434,0,0,1,.242-.071.538.538,0,0,1,.28.1q.157.1.356.252t.456.333a3.768,3.768,0,0,0,.584.332,3.955,3.955,0,0,0,.746.252,4.062,4.062,0,0,0,.941.1,3.51,3.51,0,0,0,1.168-.181,2.482,2.482,0,0,0,.869-.508,2.2,2.2,0,0,0,.546-.784,2.619,2.619,0,0,0,.19-1.016,1.706,1.706,0,0,0-.28-1.012,2.323,2.323,0,0,0-.736-.66A5.115,5.115,0,0,0,5.662-5.99q-.589-.185-1.2-.38a12.7,12.7,0,0,1-1.2-.451,3.867,3.867,0,0,1-1.045-.665,3.056,3.056,0,0,1-.736-1.021,3.637,3.637,0,0,1-.28-1.515,3.606,3.606,0,0,1,.28-1.4,3.566,3.566,0,0,1,.817-1.2,3.991,3.991,0,0,1,1.32-.836,4.82,4.82,0,0,1,1.8-.314A5.724,5.724,0,0,1,7.5-13.4a4.9,4.9,0,0,1,1.648,1.045ZM22.838-2.812a.352.352,0,0,1,.266.124l.731.788A5.824,5.824,0,0,1,21.807-.39a6.942,6.942,0,0,1-2.883.542,6.74,6.74,0,0,1-2.66-.508,5.851,5.851,0,0,1-2.043-1.425,6.442,6.442,0,0,1-1.311-2.2A8.215,8.215,0,0,1,12.445-6.8a7.925,7.925,0,0,1,.484-2.821,6.457,6.457,0,0,1,1.363-2.2,6.1,6.1,0,0,1,2.1-1.43,7,7,0,0,1,2.708-.508,6.6,6.6,0,0,1,2.565.465,6.457,6.457,0,0,1,1.957,1.264l-.608.845a.5.5,0,0,1-.147.157.422.422,0,0,1-.242.062.754.754,0,0,1-.418-.185,6.35,6.35,0,0,0-.646-.413,5.016,5.016,0,0,0-1-.413,5.039,5.039,0,0,0-1.472-.185,4.948,4.948,0,0,0-1.928.366,4.21,4.21,0,0,0-1.506,1.059,4.887,4.887,0,0,0-.983,1.691A6.747,6.747,0,0,0,14.326-6.8a6.568,6.568,0,0,0,.366,2.271,5.013,5.013,0,0,0,1,1.686A4.216,4.216,0,0,0,17.181-1.8a4.748,4.748,0,0,0,1.857.361,7.661,7.661,0,0,0,1.1-.071,4.48,4.48,0,0,0,.9-.223,3.8,3.8,0,0,0,.77-.385,5.482,5.482,0,0,0,.708-.556A.491.491,0,0,1,22.838-2.812Zm15.4-10.8V0H36.395V-6.194H29.051V0H27.208V-13.613h1.843v6.07h7.344v-6.07ZM55.527-6.8a7.858,7.858,0,0,1-.484,2.807,6.429,6.429,0,0,1-1.368,2.2,6.114,6.114,0,0,1-2.123,1.43,7.16,7.16,0,0,1-2.741.508,7.124,7.124,0,0,1-2.736-.508A6.124,6.124,0,0,1,43.956-1.8a6.429,6.429,0,0,1-1.368-2.2A7.858,7.858,0,0,1,42.1-6.8a7.858,7.858,0,0,1,.484-2.807,6.48,6.48,0,0,1,1.368-2.2,6.148,6.148,0,0,1,2.118-1.439,7.066,7.066,0,0,1,2.736-.513,7.1,7.1,0,0,1,2.741.513,6.137,6.137,0,0,1,2.123,1.439,6.48,6.48,0,0,1,1.368,2.2A7.858,7.858,0,0,1,55.527-6.8Zm-1.89,0a6.918,6.918,0,0,0-.342-2.252,4.762,4.762,0,0,0-.969-1.686,4.2,4.2,0,0,0-1.52-1.059,5.16,5.16,0,0,0-2-.371,5.134,5.134,0,0,0-1.985.371A4.25,4.25,0,0,0,45.3-10.74a4.724,4.724,0,0,0-.974,1.686A6.918,6.918,0,0,0,43.985-6.8a6.875,6.875,0,0,0,.342,2.247A4.73,4.73,0,0,0,45.3-2.874a4.2,4.2,0,0,0,1.525,1.055,5.193,5.193,0,0,0,1.985.366,5.219,5.219,0,0,0,2-.366,4.155,4.155,0,0,0,1.52-1.055,4.768,4.768,0,0,0,.969-1.681A6.876,6.876,0,0,0,53.637-6.8Zm18.335,0a7.858,7.858,0,0,1-.485,2.807,6.429,6.429,0,0,1-1.368,2.2A6.114,6.114,0,0,1,68-.366a7.16,7.16,0,0,1-2.741.508A7.124,7.124,0,0,1,62.52-.366,6.124,6.124,0,0,1,60.4-1.8a6.429,6.429,0,0,1-1.368-2.2A7.858,7.858,0,0,1,58.549-6.8a7.858,7.858,0,0,1,.484-2.807,6.48,6.48,0,0,1,1.368-2.2,6.148,6.148,0,0,1,2.119-1.439,7.066,7.066,0,0,1,2.736-.513A7.1,7.1,0,0,1,68-13.252a6.137,6.137,0,0,1,2.123,1.439,6.48,6.48,0,0,1,1.368,2.2A7.858,7.858,0,0,1,71.972-6.8Zm-1.891,0a6.919,6.919,0,0,0-.342-2.252,4.762,4.762,0,0,0-.969-1.686A4.2,4.2,0,0,0,67.25-11.8a5.16,5.16,0,0,0-1.995-.371,5.134,5.134,0,0,0-1.986.371,4.25,4.25,0,0,0-1.525,1.059,4.724,4.724,0,0,0-.974,1.686A6.918,6.918,0,0,0,60.429-6.8a6.875,6.875,0,0,0,.342,2.247,4.73,4.73,0,0,0,.974,1.681A4.2,4.2,0,0,0,63.27-1.819a5.193,5.193,0,0,0,1.986.366,5.219,5.219,0,0,0,1.995-.366,4.155,4.155,0,0,0,1.52-1.055,4.769,4.769,0,0,0,.969-1.681A6.876,6.876,0,0,0,70.081-6.8Zm13.48,5.253V0H75.839V-13.613h1.833V-1.549ZM8.151,12.979h4.731V18.67A7.376,7.376,0,0,1,10.635,19.8a8.765,8.765,0,0,1-2.522.356,8.552,8.552,0,0,1-3.078-.527,6.925,6.925,0,0,1-2.356-1.468,6.48,6.48,0,0,1-1.511-2.233A7.339,7.339,0,0,1,.637,13.1a7.7,7.7,0,0,1,.508-2.84A6.364,6.364,0,0,1,2.594,8.04,6.616,6.616,0,0,1,4.869,6.586a8.137,8.137,0,0,1,2.988-.523,8.736,8.736,0,0,1,1.6.138,7.692,7.692,0,0,1,1.368.38,6.461,6.461,0,0,1,2.1,1.306L12.094,9.16a.769.769,0,0,1-.494.371.9.9,0,0,1-.665-.152q-.342-.209-.67-.375a5.12,5.12,0,0,0-.7-.29,4.87,4.87,0,0,0-.807-.19,6.761,6.761,0,0,0-1.007-.067,4.386,4.386,0,0,0-1.738.333,3.719,3.719,0,0,0-1.325.94,4.21,4.21,0,0,0-.841,1.463A5.837,5.837,0,0,0,3.553,13.1a6,6,0,0,0,.323,2.038,4.242,4.242,0,0,0,.912,1.515A3.888,3.888,0,0,0,6.2,17.6a4.961,4.961,0,0,0,1.829.323,4.925,4.925,0,0,0,1.221-.138,6.109,6.109,0,0,0,1.05-.375V15.089H8.74a.606.606,0,0,1-.432-.147.492.492,0,0,1-.157-.375Zm12.7,4.74a3.171,3.171,0,0,0,1.244-.233,2.559,2.559,0,0,0,.931-.66,2.894,2.894,0,0,0,.58-1.035,4.376,4.376,0,0,0,.2-1.368V6.215h2.85v8.208a6.367,6.367,0,0,1-.4,2.3,5.2,5.2,0,0,1-1.154,1.81,5.262,5.262,0,0,1-1.824,1.188,7.091,7.091,0,0,1-4.85,0A5.253,5.253,0,0,1,16.6,18.537a5.2,5.2,0,0,1-1.154-1.81,6.367,6.367,0,0,1-.4-2.3V6.215h2.85v8.208a4.376,4.376,0,0,0,.2,1.368,2.894,2.894,0,0,0,.579,1.035,2.559,2.559,0,0,0,.931.66A3.2,3.2,0,0,0,20.853,17.72ZM32.243,20H29.374V6.215h2.869Zm15.248-6.9a7.4,7.4,0,0,1-.508,2.779,6.316,6.316,0,0,1-1.434,2.18,6.561,6.561,0,0,1-2.228,1.425A7.813,7.813,0,0,1,40.432,20h-5.3V6.215h5.3a7.813,7.813,0,0,1,2.888.513,6.524,6.524,0,0,1,2.228,1.43,6.376,6.376,0,0,1,1.434,2.18A7.341,7.341,0,0,1,47.491,13.1Zm-2.926,0a6.2,6.2,0,0,0-.285-1.947,4.1,4.1,0,0,0-.817-1.463,3.565,3.565,0,0,0-1.3-.921,4.419,4.419,0,0,0-1.734-.323H38v9.319h2.432a4.477,4.477,0,0,0,1.734-.318,3.492,3.492,0,0,0,1.3-.921,4.154,4.154,0,0,0,.817-1.468A6.236,6.236,0,0,0,44.564,13.1Zm7.895-4.655v3.543h4.6v2.157h-4.6v3.619h5.909V20H49.59V6.215h8.778V8.448Zm15.5.409a1.082,1.082,0,0,1-.271.318.593.593,0,0,1-.356.1.879.879,0,0,1-.451-.147q-.242-.147-.565-.318a5.477,5.477,0,0,0-.741-.318,2.945,2.945,0,0,0-.979-.147,2.164,2.164,0,0,0-1.482.442,1.475,1.475,0,0,0-.494,1.154,1.083,1.083,0,0,0,.271.755,2.353,2.353,0,0,0,.712.518,6.621,6.621,0,0,0,1,.39q.56.171,1.149.375a10.119,10.119,0,0,1,1.15.48,4.043,4.043,0,0,1,1,.693,3.178,3.178,0,0,1,.712,1.021,3.573,3.573,0,0,1,.271,1.468,4.713,4.713,0,0,1-.328,1.762,4.179,4.179,0,0,1-.945,1.434A4.375,4.375,0,0,1,66.1,19.8a5.659,5.659,0,0,1-2.057.351,6.508,6.508,0,0,1-1.306-.133,7.534,7.534,0,0,1-1.254-.37,6.918,6.918,0,0,1-1.135-.57,4.99,4.99,0,0,1-.931-.741l.836-1.349a.845.845,0,0,1,.276-.252.706.706,0,0,1,.361-.1.985.985,0,0,1,.542.19q.285.19.655.418a5.306,5.306,0,0,0,.86.418,3.242,3.242,0,0,0,1.173.19,2.344,2.344,0,0,0,1.544-.456,1.669,1.669,0,0,0,.546-1.358,1.272,1.272,0,0,0-.271-.845,2.178,2.178,0,0,0-.708-.542,5.609,5.609,0,0,0-1-.375q-.561-.157-1.15-.347a9.433,9.433,0,0,1-1.15-.456,3.557,3.557,0,0,1-1-.7,3.33,3.33,0,0,1-.708-1.083,4.167,4.167,0,0,1-.271-1.606,3.815,3.815,0,0,1,1.2-2.774,4.469,4.469,0,0,1,1.449-.9,5.3,5.3,0,0,1,1.971-.342,6.7,6.7,0,0,1,2.3.385,5.166,5.166,0,0,1,1.791,1.069Z" transform="translate(-0.291 19.202)" fill="#fff"/>
    <path id="np_school_3030619_000000" d="M10.554,23.42H9.915a.54.54,0,0,1-.54-.54v-5.4a.54.54,0,0,1,.54-.54h.54V22.88a1.62,1.62,0,0,0,.1.54ZM22.88,16.938h-.54V22.88a1.62,1.62,0,0,1-.1.54h.639a.539.539,0,0,0,.54-.54v-5.4a.539.539,0,0,0-.54-.54Zm-1.621-1.621V22.88a.539.539,0,0,1-.54.54H18.558V19.639a.539.539,0,0,0-.54-.54H14.777a.54.54,0,0,0-.54.54V23.42H12.076a.54.54,0,0,1-.54-.54V15.317a.541.541,0,0,1,.3-.483l4.023-2.012V9.915a.54.54,0,0,1,.54-.54h2.161a.539.539,0,0,1,.54.54v1.621a.539.539,0,0,1-.54.54H16.938v.746l4.023,2.012a.541.541,0,0,1,.3.483ZM18.018,16.4A1.62,1.62,0,1,0,16.4,18.018,1.62,1.62,0,0,0,18.018,16.4Z" transform="translate(65.929 16.388)" fill="#fff"/>
  </g>
</svg>
