<svg xmlns="http://www.w3.org/2000/svg" viewBox="0 0 81.894 32.16">
  <g id="schoolguides" transform="translate(-0.336 -5.437)">
    <path id="Path_2226" data-name="Path 2226" d="M8.341-11.6a.665.665,0,0,1-.177.2.39.39,0,0,1-.231.068.65.65,0,0,1-.363-.153q-.209-.153-.522-.338a4.213,4.213,0,0,0-.753-.338,3.263,3.263,0,0,0-1.066-.153,3.134,3.134,0,0,0-1.039.158,2.23,2.23,0,0,0-.753.428,1.757,1.757,0,0,0-.458.635,2,2,0,0,0-.154.788,1.449,1.449,0,0,0,.268.9A2.3,2.3,0,0,0,3.8-8.8a5.443,5.443,0,0,0,1,.437q.558.185,1.143.383t1.143.446a4.026,4.026,0,0,1,1,.626,2.856,2.856,0,0,1,.708.928,3.068,3.068,0,0,1,.268,1.351,4.329,4.329,0,0,1-.29,1.59,3.663,3.663,0,0,1-.849,1.293,3.973,3.973,0,0,1-1.37.865A5.074,5.074,0,0,1,4.7-.569,5.667,5.667,0,0,1,2.4-1.024a5.409,5.409,0,0,1-1.77-1.23l.508-.829a.666.666,0,0,1,.177-.167.417.417,0,0,1,.231-.068.517.517,0,0,1,.268.095q.15.095.34.239t.436.315a3.607,3.607,0,0,0,.558.315,3.8,3.8,0,0,0,.712.239,3.908,3.908,0,0,0,.9.095A3.376,3.376,0,0,0,5.872-2.19a2.375,2.375,0,0,0,.83-.482,2.088,2.088,0,0,0,.522-.743,2.467,2.467,0,0,0,.182-.964,1.609,1.609,0,0,0-.268-.959,2.214,2.214,0,0,0-.7-.626,4.9,4.9,0,0,0-1-.428q-.563-.176-1.143-.36A12.186,12.186,0,0,1,3.15-7.181a3.7,3.7,0,0,1-1-.631,2.9,2.9,0,0,1-.7-.968,3.427,3.427,0,0,1-.268-1.437,3.4,3.4,0,0,1,.268-1.324,3.381,3.381,0,0,1,.78-1.135,3.816,3.816,0,0,1,1.261-.793,4.635,4.635,0,0,1,1.72-.3,5.5,5.5,0,0,1,1.983.342,4.688,4.688,0,0,1,1.575.991Zm13.5,8.224a.337.337,0,0,1,.254.117l.7.748A5.561,5.561,0,0,1,20.86-1.083a6.674,6.674,0,0,1-2.754.513,6.481,6.481,0,0,1-2.541-.482A5.589,5.589,0,0,1,13.613-2.4a6.1,6.1,0,0,1-1.252-2.085,7.738,7.738,0,0,1-.445-2.675,7.464,7.464,0,0,1,.463-2.675,6.116,6.116,0,0,1,1.3-2.09,5.825,5.825,0,0,1,2.01-1.356,6.732,6.732,0,0,1,2.586-.482,6.342,6.342,0,0,1,2.45.441,6.174,6.174,0,0,1,1.869,1.2l-.581.8a.474.474,0,0,1-.141.149.406.406,0,0,1-.231.059.723.723,0,0,1-.4-.176,6.072,6.072,0,0,0-.617-.392,4.811,4.811,0,0,0-.953-.392,4.848,4.848,0,0,0-1.407-.176,4.757,4.757,0,0,0-1.842.347,4.022,4.022,0,0,0-1.438,1,4.626,4.626,0,0,0-.939,1.6,6.354,6.354,0,0,0-.336,2.135,6.186,6.186,0,0,0,.349,2.153,4.746,4.746,0,0,0,.953,1.6,4.027,4.027,0,0,0,1.425,1,4.565,4.565,0,0,0,1.774.342,7.372,7.372,0,0,0,1.048-.068,4.306,4.306,0,0,0,.862-.212,3.64,3.64,0,0,0,.735-.365,5.232,5.232,0,0,0,.676-.527A.471.471,0,0,1,21.844-3.38ZM36.555-13.621V-.713H34.795V-6.586H27.779V-.713H26.019V-13.621h1.761v5.756h7.015v-5.756ZM53.072-7.163A7.4,7.4,0,0,1,52.609-4.5,6.089,6.089,0,0,1,51.3-2.416,5.843,5.843,0,0,1,49.274-1.06a6.885,6.885,0,0,1-2.618.482,6.85,6.85,0,0,1-2.614-.482,5.853,5.853,0,0,1-2.024-1.356A6.089,6.089,0,0,1,40.711-4.5a7.4,7.4,0,0,1-.463-2.662,7.4,7.4,0,0,1,.463-2.662,6.138,6.138,0,0,1,1.307-2.09,5.875,5.875,0,0,1,2.024-1.365,6.794,6.794,0,0,1,2.614-.486,6.829,6.829,0,0,1,2.618.486A5.865,5.865,0,0,1,51.3-11.914a6.137,6.137,0,0,1,1.307,2.09A7.4,7.4,0,0,1,53.072-7.163Zm-1.806,0A6.516,6.516,0,0,0,50.939-9.3a4.508,4.508,0,0,0-.926-1.6,4.017,4.017,0,0,0-1.452-1,4.962,4.962,0,0,0-1.906-.351,4.937,4.937,0,0,0-1.9.351,4.061,4.061,0,0,0-1.457,1,4.471,4.471,0,0,0-.93,1.6,6.515,6.515,0,0,0-.327,2.135,6.475,6.475,0,0,0,.327,2.13,4.477,4.477,0,0,0,.93,1.594,4.013,4.013,0,0,0,1.457,1,4.993,4.993,0,0,0,1.9.347,5.018,5.018,0,0,0,1.906-.347,3.97,3.97,0,0,0,1.452-1,4.514,4.514,0,0,0,.926-1.594A6.475,6.475,0,0,0,51.266-7.163Zm17.515,0A7.4,7.4,0,0,1,68.318-4.5a6.089,6.089,0,0,1-1.307,2.085A5.843,5.843,0,0,1,64.983-1.06a6.885,6.885,0,0,1-2.618.482,6.85,6.85,0,0,1-2.614-.482,5.853,5.853,0,0,1-2.024-1.356A6.089,6.089,0,0,1,56.42-4.5a7.4,7.4,0,0,1-.463-2.662,7.4,7.4,0,0,1,.463-2.662,6.138,6.138,0,0,1,1.307-2.09,5.875,5.875,0,0,1,2.024-1.365,6.794,6.794,0,0,1,2.614-.486,6.828,6.828,0,0,1,2.618.486,5.865,5.865,0,0,1,2.028,1.365,6.137,6.137,0,0,1,1.307,2.09A7.4,7.4,0,0,1,68.78-7.163Zm-1.806,0A6.516,6.516,0,0,0,66.648-9.3a4.508,4.508,0,0,0-.926-1.6,4.017,4.017,0,0,0-1.452-1,4.961,4.961,0,0,0-1.906-.351,4.937,4.937,0,0,0-1.9.351,4.061,4.061,0,0,0-1.457,1,4.471,4.471,0,0,0-.93,1.6,6.515,6.515,0,0,0-.327,2.135,6.475,6.475,0,0,0,.327,2.13,4.477,4.477,0,0,0,.93,1.594,4.013,4.013,0,0,0,1.457,1,4.993,4.993,0,0,0,1.9.347,5.018,5.018,0,0,0,1.906-.347,3.97,3.97,0,0,0,1.452-1,4.514,4.514,0,0,0,.926-1.594A6.475,6.475,0,0,0,66.975-7.163ZM79.852-2.181V-.713H72.474V-13.621h1.751v11.44ZM7.814,11.594h4.519v5.4a7.067,7.067,0,0,1-2.146,1.067,8.431,8.431,0,0,1-2.409.338,8.224,8.224,0,0,1-2.94-.5A6.623,6.623,0,0,1,2.587,16.5a6.142,6.142,0,0,1-1.443-2.117,6.914,6.914,0,0,1-.508-2.675,7.248,7.248,0,0,1,.486-2.693A6.03,6.03,0,0,1,2.506,6.91,6.326,6.326,0,0,1,4.679,5.532a7.825,7.825,0,0,1,2.854-.5,8.406,8.406,0,0,1,1.525.131,7.391,7.391,0,0,1,1.307.36A6.179,6.179,0,0,1,12.37,6.766l-.79,1.207a.734.734,0,0,1-.472.351.869.869,0,0,1-.635-.144q-.327-.2-.64-.356a4.912,4.912,0,0,0-.667-.275,4.681,4.681,0,0,0-.771-.18,6.506,6.506,0,0,0-.962-.063,4.217,4.217,0,0,0-1.661.315,3.552,3.552,0,0,0-1.266.892A3.985,3.985,0,0,0,3.7,9.9a5.5,5.5,0,0,0-.281,1.811,5.646,5.646,0,0,0,.309,1.932A4.017,4.017,0,0,0,4.6,15.08a3.716,3.716,0,0,0,1.348.892,4.77,4.77,0,0,0,1.747.306,4.738,4.738,0,0,0,1.166-.131,5.864,5.864,0,0,0,1-.356v-2.2H8.377a.582.582,0,0,1-.413-.14.465.465,0,0,1-.15-.356Zm12.133,4.495a3.049,3.049,0,0,0,1.189-.221,2.444,2.444,0,0,0,.889-.626,2.739,2.739,0,0,0,.554-.982,4.121,4.121,0,0,0,.191-1.3V5.18h2.723v7.783a6,6,0,0,1-.386,2.184A4.922,4.922,0,0,1,24,16.863a5.03,5.03,0,0,1-1.742,1.126,6.821,6.821,0,0,1-4.633,0,5.021,5.021,0,0,1-1.747-1.126,4.922,4.922,0,0,1-1.1-1.716,6,6,0,0,1-.386-2.184V5.18h2.723v7.783a4.121,4.121,0,0,0,.191,1.3,2.739,2.739,0,0,0,.554.982,2.444,2.444,0,0,0,.889.626A3.074,3.074,0,0,0,19.948,16.089Zm10.881,2.162H28.088V5.18h2.741Zm14.565-6.54a6.974,6.974,0,0,1-.486,2.635,5.985,5.985,0,0,1-1.37,2.067,6.273,6.273,0,0,1-2.128,1.351,7.513,7.513,0,0,1-2.759.486H33.588V5.18h5.064a7.513,7.513,0,0,1,2.759.486,6.238,6.238,0,0,1,2.128,1.356,6.042,6.042,0,0,1,1.37,2.067A6.915,6.915,0,0,1,45.394,11.711Zm-2.8,0a5.842,5.842,0,0,0-.272-1.847,3.884,3.884,0,0,0-.78-1.387A3.406,3.406,0,0,0,40.308,7.6,4.249,4.249,0,0,0,38.651,7.3H36.328v8.837h2.323a4.3,4.3,0,0,0,1.656-.3,3.336,3.336,0,0,0,1.239-.874,3.93,3.93,0,0,0,.78-1.392A5.873,5.873,0,0,0,42.6,11.711ZM50.14,7.3v3.36h4.392V12.7H50.14v3.432h5.645v2.117H47.4V5.18h8.385V7.3Zm14.81.387a1.028,1.028,0,0,1-.259.3.569.569,0,0,1-.34.095.844.844,0,0,1-.431-.14q-.231-.14-.54-.3a5.253,5.253,0,0,0-.708-.3,2.833,2.833,0,0,0-.935-.14,2.078,2.078,0,0,0-1.416.419,1.394,1.394,0,0,0-.472,1.094,1.022,1.022,0,0,0,.259.716,2.247,2.247,0,0,0,.681.491,6.353,6.353,0,0,0,.957.369q.535.162,1.1.356a9.707,9.707,0,0,1,1.1.455,3.863,3.863,0,0,1,.957.658,3.013,3.013,0,0,1,.681.968,3.366,3.366,0,0,1,.259,1.392,4.439,4.439,0,0,1-.313,1.671,3.96,3.96,0,0,1-.9,1.36,4.184,4.184,0,0,1-1.457.914,5.442,5.442,0,0,1-1.965.333,6.261,6.261,0,0,1-1.248-.126,7.238,7.238,0,0,1-1.2-.351,6.628,6.628,0,0,1-1.084-.54,4.761,4.761,0,0,1-.889-.7l.8-1.279a.8.8,0,0,1,.263-.239.678.678,0,0,1,.345-.095.946.946,0,0,1,.517.18q.272.18.626.4a5.085,5.085,0,0,0,.821.4,3.118,3.118,0,0,0,1.121.18,2.251,2.251,0,0,0,1.475-.432,1.577,1.577,0,0,0,.522-1.288,1.2,1.2,0,0,0-.259-.8,2.078,2.078,0,0,0-.676-.513,5.383,5.383,0,0,0-.953-.356q-.535-.149-1.1-.329a9.05,9.05,0,0,1-1.1-.432,3.4,3.4,0,0,1-.953-.667,3.155,3.155,0,0,1-.676-1.027A3.925,3.925,0,0,1,57.3,8.846a3.6,3.6,0,0,1,1.143-2.63,4.274,4.274,0,0,1,1.384-.856,5.1,5.1,0,0,1,1.883-.324,6.443,6.443,0,0,1,2.2.365,4.942,4.942,0,0,1,1.711,1.013Z" transform="translate(-0.291 19.202)" fill="#222"/>
    <path id="np_school_3030619_000000" d="M10.421,21.834H9.854a.479.479,0,0,1-.479-.479V16.563a.479.479,0,0,1,.479-.479h.479v5.271a1.437,1.437,0,0,0,.088.479Zm10.933-5.75h-.479v5.271a1.437,1.437,0,0,1-.088.479h.567a.479.479,0,0,0,.479-.479V16.563a.479.479,0,0,0-.479-.479Zm-1.438-1.438v6.708a.479.479,0,0,1-.479.479H17.521V18.479A.479.479,0,0,0,17.042,18H14.167a.479.479,0,0,0-.479.479v3.354H11.771a.479.479,0,0,1-.479-.479V14.646a.48.48,0,0,1,.265-.429l3.569-1.784V9.854a.479.479,0,0,1,.479-.479h1.917A.479.479,0,0,1,18,9.854v1.438a.479.479,0,0,1-.479.479H16.083v.662l3.569,1.784a.48.48,0,0,1,.265.429Zm-2.875.958A1.437,1.437,0,1,0,15.6,17.042,1.437,1.437,0,0,0,17.042,15.6Z" transform="translate(60.396 15.602)" fill="#222"/>
  </g>
</svg>
