<svg version="1.1" id="searchIconBlack" xmlns="http://www.w3.org/2000/svg" xmlns:xlink="http://www.w3.org/1999/xlink" x="0px" y="0px"
	 viewBox="0 0 32 32" style="enable-background:new 0 0 32 32;" xml:space="preserve">
		<path fill="#28AF6B" d="M30.7,28.8L24.9,23c5.1-5.7,4.6-14.4-1.1-19.5S9.4-1.1,4.3,4.6S-0.3,19,5.4,24.1c4.6,4.1,11.3,4.7,16.5,1.4
		l6.1,6.1c0.7,0.7,2,0.7,2.7,0c0,0,0,0,0,0C31.5,30.8,31.5,29.6,30.7,28.8C30.8,28.8,30.7,28.8,30.7,28.8L30.7,28.8z M4.7,13.8
		c0-5.5,4.5-9.9,9.9-9.9c5.5,0,9.9,4.5,9.9,9.9c0,5.5-4.4,9.9-9.9,9.9C9.1,23.7,4.7,19.3,4.7,13.8z"/>
	</svg>