<svg version="1.1" id="twitterTransparent" xmlns="http://www.w3.org/2000/svg" xmlns:xlink="http://www.w3.org/1999/xlink" x="0px" y="0px"
    viewBox="0 0 32 32" style="enable-background:new 0 0 32 32;" xml:space="preserve">
    <path id="np_twitter_354036_000000" fill="#ffffff" d="M10.7,28.9c10-0.2,18.1-8.4,18-18.4c0-0.3,0-0.6,0-0.8c1.3-0.9,2.4-2.1,3.3-3.4
    c-1.2,0.5-2.5,0.9-3.7,1c1.4-0.8,2.4-2.1,2.9-3.6c-1.3,0.8-2.7,1.3-4.1,1.6c-2.5-2.6-6.6-2.8-9.2-0.3c-1.7,1.6-2.4,4-1.9,6.3
    C10.5,10.9,5.7,8.4,2.3,4.4c-1.7,3-0.8,6.8,2,8.7c-1,0-2.1-0.3-3-0.8v0.1c0,3.1,2.2,5.8,5.2,6.4c-1,0.3-2,0.3-2.9,0.1
    c0.9,2.6,3.3,4.5,6.1,4.5C7,25.4,3.6,26.4,0.1,26l0,0c2.9,1.8,6.2,2.8,9.6,2.9L10.7,28.9"/>
</svg>